<?xml version="1.0" standalone="yes"?>
<svg xmlns="http://www.w3.org/2000/svg" width="200" height="200">
<path style="fill:#f3f3f3; stroke:none;" d="M0 0L0 200L200 200L200 0L0 0z"/>
<path style="fill:#9f9f9f; stroke:none;" d="M149 6L150 7L149 6z"/>
<path style="fill:#868686; stroke:none;" d="M150.667 6.33333L151.333 6.66667L150.667 6.33333z"/>
<path style="fill:#535353; stroke:none;" d="M152.667 6.33333L153.333 6.66667L152.667 6.33333z"/>
<path style="fill:#424242; stroke:none;" d="M91 74C84.3427 60.502 67.7006 51.8687 58.5293 39.9992C53.9392 34.0587 52.3124 24.6086 45.8951 20.3519C36.1107 13.8617 25.0044 11.0755 18.8164 24C16.5499 28.7338 23.7362 41.1525 27.3904 44.3009C31.765 48.0701 38.2623 49.2443 43 52.6373C51.124 58.4556 57.9475 66.9475 65 74C67.9394 76.9394 75.9444 82.4587 75.9444 87C75.9444 91.7826 67.1144 97.8856 64 101C58.6532 106.347 52.8225 114.558 46 117.972C34.9102 123.521 24.8167 120.863 16.5988 133.004C12.3885 139.224 5.87941 160.416 14.7029 165.914C17.7757 167.828 21.6508 163.453 23.5756 161.571C28.6366 156.621 42.6624 136.801 49.9475 148.214C54.9048 155.979 38.5979 167.309 34.0046 172C29.3597 176.743 27.0426 181.185 35.0008 183.33C36.9538 183.857 38.9981 184.268 41 184.557C43.744 184.953 46.2814 184.695 49 184.245C52.9109 183.599 56.4896 182.56 60 180.676C74.7539 172.759 71.8119 161.392 78.0278 149C80.168 144.733 84.6737 141.326 88 138C90.7656 135.234 95.7041 128.062 100 128.056C105.04 128.047 112.657 137.674 116 141.001C129.981 154.914 157.722 197.072 179.96 176.812C204.192 154.734 162.81 126.461 148 112.015C144.491 108.591 130.832 99.9918 132.828 94.3002C134.013 90.9219 138.708 87.7729 141.211 85.3457C145.358 81.3225 149.798 75.6289 155 73.0278C168.63 66.213 182.512 68.511 188.226 50C189.214 46.8003 189.849 43.3479 189.957 40C190.033 37.6401 189.825 35.3081 189.331 33C183.817 7.21402 163.275 56.8673 151.576 43.6551C141.375 32.1338 174.084 21.9813 171.248 11.2747C168.464 0.758148 144.406 8.12962 139 11.4684C124.879 20.1903 129.588 31.6105 122.397 43C115.229 54.3514 100.968 64.981 91 74z"/>
<path style="fill:#535353; stroke:none;" d="M160.667 6.33333L161.333 6.66667L160.667 6.33333z"/>
<path style="fill:#868686; stroke:none;" d="M162 6L163 7L162 6z"/>
<path style="fill:#9f9f9f; stroke:none;" d="M163.667 6.33333L164.333 6.66667L163.667 6.33333M145 7L146 8L145 7z"/>
<path style="fill:#868686; stroke:none;" d="M146 7L147 8L146 7z"/>
<path style="fill:#535353; stroke:none;" d="M147 7L148 8L147 7z"/>
<path style="fill:#868686; stroke:none;" d="M166 7L167 8L166 7z"/>
<path style="fill:#9f9f9f; stroke:none;" d="M167 7L168 8L167 7M143 8L144 9L143 8z"/>
<path style="fill:#535353; stroke:none;" d="M144 8L145 9L144 8M168 8L169 9L168 8z"/>
<path style="fill:#868686; stroke:none;" d="M169 8L170 9L169 8z"/>
<path style="fill:#9f9f9f; stroke:none;" d="M170 8L171 9L170 8M141 9L142 10L141 9z"/>
<path style="fill:#535353; stroke:none;" d="M142 9L143 10L142 9M146 9L147 10L146 9M171 9L172 10L171 9z"/>
<path style="fill:#9f9f9f; stroke:none;" d="M139 10L140 11L139 10z"/>
<path style="fill:#535353; stroke:none;" d="M140 10L141 11L140 10z"/>
<path style="fill:#868686; stroke:none;" d="M172 10L173 11L172 10M138 11L139 12L138 11z"/>
<path style="fill:#535353; stroke:none;" d="M146 11L147 12L146 11M154 11L154 12L160 12L154 11M172.333 11.6667L172.667 12.3333L172.333 11.6667z"/>
<path style="fill:#868686; stroke:none;" d="M29.6667 12.3333L30.3333 12.6667L29.6667 12.3333z"/>
<path style="fill:#9f9f9f; stroke:none;" d="M136 12L137 13L136 12z"/>
<path style="fill:#535353; stroke:none;" d="M137 12L138 13L137 12M149 12L150 13L149 12z"/>
<path style="fill:#868686; stroke:none;" d="M150 12L151 13L150 12z"/>
<path style="fill:#9f9f9f; stroke:none;" d="M151 12L151 13L154 13L151 12z"/>
<path style="fill:#f3f3f3; stroke:none;" d="M97 77L97 78C99.559 80.557 103.817 86.6604 108 85.6551C110.663 85.0151 112.225 81.9744 115 81.6304C120.313 80.9717 122.508 90.0233 128 88.6543C137.615 86.2574 143.125 71.465 152 67.0278C156.427 64.8141 162.223 66.0572 167 64.2894C179.325 59.7278 186.757 45.7108 183 33C175.302 38.4226 169.296 49.5101 160 52.1813C149.817 55.1075 140.446 43.1995 145.001 34C149.24 25.438 158.556 20.7283 164 13C150.625 11.946 137.166 14.8119 131.814 29C129.91 34.0482 131.252 40.4775 128.397 45C120.897 56.879 106.933 67.0675 97 77z"/>
<path style="fill:#9f9f9f; stroke:none;" d="M159 12L159 13L162 13L159 12z"/>
<path style="fill:#868686; stroke:none;" d="M162 12L163 13L162 12z"/>
<path style="fill:#535353; stroke:none;" d="M163 12L165 14L165 12L163 12M28 13L29 14L28 13M31 13L32 14L31 13z"/>
<path style="fill:#868686; stroke:none;" d="M32 13L33 14L32 13M135 13L136 14L135 13z"/>
<path style="fill:#535353; stroke:none;" d="M146 13L147 14L146 13z"/>
<path style="fill:#868686; stroke:none;" d="M147 13L148 14L147 13z"/>
<path style="fill:#9f9f9f; stroke:none;" d="M148 13L149 14L148 13z"/>
<path style="fill:#868686; stroke:none;" d="M172 13L173 14L172 13z"/>
<path style="fill:#535353; stroke:none;" d="M27 14L28 15L27 14M33 14L34 15L33 14z"/>
<path style="fill:#868686; stroke:none;" d="M34 14L35 15L34 14M134 14L135 15L134 14z"/>
<path style="fill:#535353; stroke:none;" d="M138 14L139 15L138 14M141 14L142 15L141 14M144 14L145 15L144 14z"/>
<path style="fill:#9f9f9f; stroke:none;" d="M145 14L146 15L145 14z"/>
<path style="fill:#535353; stroke:none;" d="M163 14L164 15L163 14z"/>
<path style="fill:#868686; stroke:none;" d="M171 14L172 15L171 14z"/>
<path style="fill:#535353; stroke:none;" d="M26 15L27 16L26 15z"/>
<path style="fill:#868686; stroke:none;" d="M36 15L37 16L36 15M133 15L134 16L133 15z"/>
<path style="fill:#535353; stroke:none;" d="M142 15L143 16L142 15z"/>
<path style="fill:#9f9f9f; stroke:none;" d="M143 15L144 16L143 15z"/>
<path style="fill:#535353; stroke:none;" d="M162 15L163 16L162 15z"/>
<path style="fill:#868686; stroke:none;" d="M170 15L171 16L170 15z"/>
<path style="fill:#535353; stroke:none;" d="M25 16L26 17L25 16z"/>
<path style="fill:#868686; stroke:none;" d="M38 16L39 17L38 16M132 16L133 17L132 16M141 16L142 17L141 16z"/>
<path style="fill:#535353; stroke:none;" d="M161 16L162 17L161 16z"/>
<path style="fill:#868686; stroke:none;" d="M169 16L170 17L169 16z"/>
<path style="fill:#535353; stroke:none;" d="M24 17L25 18L24 17z"/>
<path style="fill:#868686; stroke:none;" d="M40 17L41 18L40 17z"/>
<path style="fill:#9f9f9f; stroke:none;" d="M41 17L42 18L41 17z"/>
<path style="fill:#868686; stroke:none;" d="M131 17L132 18L131 17z"/>
<path style="fill:#535353; stroke:none;" d="M139 17L138 19L139 17z"/>
<path style="fill:#9f9f9f; stroke:none;" d="M140 17L141 18L140 17z"/>
<path style="fill:#535353; stroke:none;" d="M160 17L161 18L160 17z"/>
<path style="fill:#868686; stroke:none;" d="M168 17L169 18L168 17z"/>
<path style="fill:#535353; stroke:none;" d="M23 18L24 19L23 18z"/>
<path style="fill:#868686; stroke:none;" d="M42 18L43 19L42 18z"/>
<path style="fill:#9f9f9f; stroke:none;" d="M43 18L44 19L43 18M130 18L131 19L130 18M139 18L140 19L139 18z"/>
<path style="fill:#535353; stroke:none;" d="M159 18L160 19L159 18z"/>
<path style="fill:#868686; stroke:none;" d="M167 18L168 19L167 18z"/>
<path style="fill:#535353; stroke:none;" d="M22 19L23 20L22 19z"/>
<path style="fill:#868686; stroke:none;" d="M24 26L32 20L24 26z"/>
<path style="fill:#535353; stroke:none;" d="M35 19L36 20L35 19z"/>
<path style="fill:#868686; stroke:none;" d="M44 19L45 20L44 19z"/>
<path style="fill:#9f9f9f; stroke:none;" d="M45 19L46 20L45 19M129 19L130 20L129 19z"/>
<path style="fill:#535353; stroke:none;" d="M135 19L134 20L134 21L135 22L136 22L137 21L137 20L135 19M137 19L138 20L137 19M158 19L159 20L158 19z"/>
<path style="fill:#868686; stroke:none;" d="M166 19L167 20L166 19z"/>
<path style="fill:#535353; stroke:none;" d="M21 20L22 21L21 20M23 20L24 21L23 20z"/>
<path style="fill:#f3f3f3; stroke:none;" d="M30.0054 21.213C16.8399 26.2731 35.1303 48.2711 44.9946 44.7593C57.9499 40.1469 40.3245 17.2468 30.0054 21.213z"/>
<path style="fill:#9f9f9f; stroke:none;" d="M32 20L33 21L32 20z"/>
<path style="fill:#868686; stroke:none;" d="M33 20L34 21L33 20M46 20L47 21L46 20z"/>
<path style="fill:#9f9f9f; stroke:none;" d="M47 20L48 21L47 20z"/>
<path style="fill:#535353; stroke:none;" d="M129 20L130 21L129 20z"/>
<path style="fill:#424242; stroke:none;" d="M135 20L136 21L135 20z"/>
<path style="fill:#535353; stroke:none;" d="M157 20L158 21L157 20z"/>
<path style="fill:#868686; stroke:none;" d="M165 20L166 21L165 20z"/>
<path style="fill:#535353; stroke:none;" d="M20 21L21 22L20 21M25 21L26 22L25 21z"/>
<path style="fill:#868686; stroke:none;" d="M35 21L36 22L35 21M48 21L49 22L48 21M128 21L129 22L128 21z"/>
<path style="fill:#535353; stroke:none;" d="M132 21L133 22L132 21M156 21L157 22L156 21z"/>
<path style="fill:#868686; stroke:none;" d="M164 21L165 22L164 21z"/>
<path style="fill:#535353; stroke:none;" d="M19 22L20 23L19 22z"/>
<path style="fill:#868686; stroke:none;" d="M37 22L38 23L37 22z"/>
<path style="fill:#535353; stroke:none;" d="M47 22L48 23L47 22z"/>
<path style="fill:#9f9f9f; stroke:none;" d="M49 22L50 23L49 22M127 22L128 23L127 22M135 22L136 23L135 22z"/>
<path style="fill:#535353; stroke:none;" d="M155 22L156 23L155 22M159 22L160 23L159 22z"/>
<path style="fill:#868686; stroke:none;" d="M163 22L164 23L163 22z"/>
<path style="fill:#535353; stroke:none;" d="M18 23L19 24L18 23M20 23L21 24L20 23z"/>
<path style="fill:#868686; stroke:none;" d="M39 23L40 24L39 23z"/>
<path style="fill:#535353; stroke:none;" d="M49 23L50 24L49 23z"/>
<path style="fill:#868686; stroke:none;" d="M127 23L128 24L127 23z"/>
<path style="fill:#9f9f9f; stroke:none;" d="M134 23L135 24L134 23z"/>
<path style="fill:#535353; stroke:none;" d="M154 23L155 24L154 23z"/>
<path style="fill:#868686; stroke:none;" d="M162 23L163 24L162 23M183 23L184 24L183 23z"/>
<path style="fill:#535353; stroke:none;" d="M184 23L185 24L184 23z"/>
<path style="fill:#868686; stroke:none;" d="M185 23L186 24L185 23z"/>
<path style="fill:#535353; stroke:none;" d="M17 24L18 25L17 24z"/>
<path style="fill:#868686; stroke:none;" d="M41 24L42 25L41 24z"/>
<path style="fill:#535353; stroke:none;" d="M42 24L43 25L42 24z"/>
<path style="fill:#868686; stroke:none;" d="M50 24L51 25L50 24z"/>
<path style="fill:#9f9f9f; stroke:none;" d="M126 24L127 25L126 24z"/>
<path style="fill:#868686; stroke:none;" d="M133 24L134 25L133 24z"/>
<path style="fill:#9f9f9f; stroke:none;" d="M152 24L147 30L152 24z"/>
<path style="fill:#535353; stroke:none;" d="M153 24L154 25L153 24z"/>
<path style="fill:#868686; stroke:none;" d="M161 24L162 25L161 24z"/>
<path style="fill:#535353; stroke:none;" d="M186 24L187 25L186 24z"/>
<path style="fill:#9f9f9f; stroke:none;" d="M16 25L17 26L16 25z"/>
<path style="fill:#868686; stroke:none;" d="M43 25L44 26L43 25z"/>
<path style="fill:#535353; stroke:none;" d="M44 25L45 26L44 25M50 25L51 26L50 25z"/>
<path style="fill:#868686; stroke:none;" d="M126 25L127 26L126 25z"/>
<path style="fill:#9f9f9f; stroke:none;" d="M133 25L134 26L133 25z"/>
<path style="fill:#535353; stroke:none;" d="M152 25L153 26L152 25z"/>
<path style="fill:#868686; stroke:none;" d="M160 25L161 26L160 25z"/>
<path style="fill:#9f9f9f; stroke:none;" d="M180 25L179 27L180 25z"/>
<path style="fill:#535353; stroke:none;" d="M181 25L182 26L181 25z"/>
<path style="fill:#9f9f9f; stroke:none;" d="M187 25L188 26L187 25z"/>
<path style="fill:#868686; stroke:none;" d="M17 26L18 27L17 26z"/>
<path style="fill:#9f9f9f; stroke:none;" d="M44 26L45 27L44 26M51 26L52 27L51 26z"/>
<path style="fill:#868686; stroke:none;" d="M132 26L133 27L132 26z"/>
<path style="fill:#535353; stroke:none;" d="M151 26L152 27L151 26z"/>
<path style="fill:#868686; stroke:none;" d="M159 26L160 27L159 26z"/>
<path style="fill:#535353; stroke:none;" d="M180 26L181 27L180 26M187 26L188 27L187 26z"/>
<path style="fill:#9f9f9f; stroke:none;" d="M17 27L18 28L17 27z"/>
<path style="fill:#868686; stroke:none;" d="M24 27L25 28L24 27z"/>
<path style="fill:#535353; stroke:none;" d="M45 27L46 28L45 27M51 27L52 28L51 27z"/>
<path style="fill:#868686; stroke:none;" d="M125 27L126 28L125 27z"/>
<path style="fill:#535353; stroke:none;" d="M131 27L132 28L131 27M150 27L151 28L150 27z"/>
<path style="fill:#868686; stroke:none;" d="M158 27L159 28L158 27z"/>
<path style="fill:#9f9f9f; stroke:none;" d="M178 27L179 28L178 27M188 27L189 28L188 27z"/>
<path style="fill:#868686; stroke:none;" d="M18 28L19 29L18 28z"/>
<path style="fill:#9f9f9f; stroke:none;" d="M45 28L46 29L45 28M52 28L53 29L52 28z"/>
<path style="fill:#535353; stroke:none;" d="M125 28L126 29L125 28M129 28L130 29L129 28z"/>
<path style="fill:#868686; stroke:none;" d="M131 28L132 29L131 28z"/>
<path style="fill:#535353; stroke:none;" d="M149 28L150 29L149 28z"/>
<path style="fill:#868686; stroke:none;" d="M157 28L158 29L157 28z"/>
<path style="fill:#9f9f9f; stroke:none;" d="M177 28L178 29L177 28z"/>
<path style="fill:#868686; stroke:none;" d="M188 28L189 29L188 28z"/>
<path style="fill:#9f9f9f; stroke:none;" d="M18 29L19 30L18 29z"/>
<path style="fill:#868686; stroke:none;" d="M25 29L26 30L25 29z"/>
<path style="fill:#535353; stroke:none;" d="M46 29L47 30L46 29M52 29L53 30L52 29z"/>
<path style="fill:#9f9f9f; stroke:none;" d="M124.333 29.6667L124.667 30.3333L124.333 29.6667M131 29L132 30L131 29z"/>
<path style="fill:#535353; stroke:none;" d="M148 29L149 30L148 29z"/>
<path style="fill:#868686; stroke:none;" d="M156 29L157 30L156 29z"/>
<path style="fill:#9f9f9f; stroke:none;" d="M176 29L177 30L176 29z"/>
<path style="fill:#535353; stroke:none;" d="M188 29L189 30L188 29M19 30L20 31L19 30M25 30L26 31L25 30z"/>
<path style="fill:#9f9f9f; stroke:none;" d="M46 30L47 31L46 30M53 30L54 31L53 30z"/>
<path style="fill:#535353; stroke:none;" d="M130 30L131 31L130 30M147 30L148 31L147 30z"/>
<path style="fill:#868686; stroke:none;" d="M155 30L156 31L155 30z"/>
<path style="fill:#9f9f9f; stroke:none;" d="M175 30L176 31L175 30M189 30L190 31L189 30M19 31L20 32L19 31M26 31L27 32L26 31z"/>
<path style="fill:#535353; stroke:none;" d="M47 31L48 32L47 31M53 31L54 32L53 31z"/>
<path style="fill:#868686; stroke:none;" d="M124 31L125 32L124 31M130 31L131 32L130 31z"/>
<path style="fill:#535353; stroke:none;" d="M146 31L147 32L146 31z"/>
<path style="fill:#868686; stroke:none;" d="M154 31L155 32L154 31z"/>
<path style="fill:#9f9f9f; stroke:none;" d="M174 31L175 32L174 31z"/>
<path style="fill:#535353; stroke:none;" d="M183 31L184 32L183 31z"/>
<path style="fill:#868686; stroke:none;" d="M189 31L190 32L189 31M20 32L21 33L20 32z"/>
<path style="fill:#535353; stroke:none;" d="M26 32L27 33L26 32z"/>
<path style="fill:#9f9f9f; stroke:none;" d="M47 32L48 33L47 32M54 32L55 33L54 32z"/>
<path style="fill:#535353; stroke:none;" d="M124 32L125 33L124 32z"/>
<path style="fill:#9f9f9f; stroke:none;" d="M130.333 32.6667L130.667 33.3333L130.333 32.6667M145 32L146 33L145 32z"/>
<path style="fill:#868686; stroke:none;" d="M153 32L154 33L153 32z"/>
<path style="fill:#9f9f9f; stroke:none;" d="M173 32L172 34L173 32M182 32L184 34L184 32L182 32z"/>
<path style="fill:#535353; stroke:none;" d="M189.333 32.6667L189.667 33.3333L189.333 32.6667z"/>
<path style="fill:#9f9f9f; stroke:none;" d="M20 33L21 34L20 33M27 33L28 34L27 33z"/>
<path style="fill:#535353; stroke:none;" d="M48 33L49 34L48 33M54 33L55 34L54 33M129.333 33.6667L129.667 34.3333L129.333 33.6667M145 33L146 34L145 33z"/>
<path style="fill:#868686; stroke:none;" d="M152 33L153 34L152 33z"/>
<path style="fill:#535353; stroke:none;" d="M173 33L174 34L173 33z"/>
<path style="fill:#9f9f9f; stroke:none;" d="M181 33L182 34L181 33z"/>
<path style="fill:#868686; stroke:none;" d="M21 34L22 35L21 34z"/>
<path style="fill:#535353; stroke:none;" d="M27 34L28 35L27 34z"/>
<path style="fill:#9f9f9f; stroke:none;" d="M48 34L49 35L48 34M55 34L56 35L55 34M123.333 34.6667L123.667 35.3333L123.333 34.6667M144 34L145 35L144 34z"/>
<path style="fill:#868686; stroke:none;" d="M151 34L152 35L151 34z"/>
<path style="fill:#9f9f9f; stroke:none;" d="M171 34L172 35L171 34M180 34L181 35L180 34z"/>
<path style="fill:#535353; stroke:none;" d="M184 34L184 37L185 37L184 34z"/>
<path style="fill:#9f9f9f; stroke:none;" d="M21 35L22 36L21 35M28 35L29 36L28 35z"/>
<path style="fill:#535353; stroke:none;" d="M49 35L50 36L49 35M55 35L56 36L55 35z"/>
<path style="fill:#868686; stroke:none;" d="M129.333 35.6667L129.667 36.3333L129.333 35.6667z"/>
<path style="fill:#535353; stroke:none;" d="M144.333 35.6667L144.667 36.3333L144.333 35.6667M150 35L151 36L150 35z"/>
<path style="fill:#9f9f9f; stroke:none;" d="M170 35L171 36L170 35M179 35L180 36L179 35M190 35L190 44L191 44L190 35z"/>
<path style="fill:#535353; stroke:none;" d="M22 36L23 37L22 36M28 36L29 37L28 36z"/>
<path style="fill:#9f9f9f; stroke:none;" d="M49 36L50 37L49 36M56 36L57 37L56 36z"/>
<path style="fill:#868686; stroke:none;" d="M123 36L123 42L124 42L123 36z"/>
<path style="fill:#9f9f9f; stroke:none;" d="M150 36L151 37L150 36M169 36L170 37L169 36M178 36L179 37L178 36M22 37L23 38L22 37M29 37L30 38L29 37z"/>
<path style="fill:#535353; stroke:none;" d="M50 37L51 38L50 37M56 37L57 38L56 37z"/>
<path style="fill:#9f9f9f; stroke:none;" d="M129 37L129 41L130 41L129 37M143 37L143 42L144 42L143 37z"/>
<path style="fill:#535353; stroke:none;" d="M149.333 37.6667L149.667 38.3333L149.333 37.6667z"/>
<path style="fill:#9f9f9f; stroke:none;" d="M168 37L169 38L168 37M177 37L178 38L177 37z"/>
<path style="fill:#868686; stroke:none;" d="M184 37L184 42L185 42L184 37z"/>
<path style="fill:#535353; stroke:none;" d="M23 38L24 39L23 38M29 38L30 39L29 38z"/>
<path style="fill:#9f9f9f; stroke:none;" d="M50 38L51 39L50 38M57 38L58 39L57 38M167 38L168 39L167 38M176 38L177 39L176 38M23 39L24 40L23 39M30 39L31 40L30 39M58 39L59 40L58 39z"/>
<path style="fill:#868686; stroke:none;" d="M149 39L150 40L149 39z"/>
<path style="fill:#9f9f9f; stroke:none;" d="M166 39L167 40L166 39z"/>
<path style="fill:#868686; stroke:none;" d="M175 39L176 40L175 39z"/>
<path style="fill:#535353; stroke:none;" d="M24 40L25 41L24 40z"/>
<path style="fill:#868686; stroke:none;" d="M31 40L32 41L31 40z"/>
<path style="fill:#9f9f9f; stroke:none;" d="M32 40L33 41L32 40z"/>
<path style="fill:#535353; stroke:none;" d="M50 40L51 41L50 40M58 40L59 41L58 40M149.333 40.6667L149.667 41.3333L149.333 40.6667z"/>
<path style="fill:#9f9f9f; stroke:none;" d="M165 40L166 41L165 40z"/>
<path style="fill:#868686; stroke:none;" d="M174 40L175 41L174 40z"/>
<path style="fill:#9f9f9f; stroke:none;" d="M24 41L25 42L24 41z"/>
<path style="fill:#868686; stroke:none;" d="M33 41L34 42L33 41z"/>
<path style="fill:#9f9f9f; stroke:none;" d="M34 41L35 42L34 41z"/>
<path style="fill:#535353; stroke:none;" d="M49 41L50 42L49 41M59 41L60 42L59 41z"/>
<path style="fill:#868686; stroke:none;" d="M129 41L129 44L130 44L129 41z"/>
<path style="fill:#9f9f9f; stroke:none;" d="M150 41L151 42L150 41M164 41L165 42L164 41M173 41L174 42L173 41z"/>
<path style="fill:#535353; stroke:none;" d="M25 42L26 43L25 42M27 42L28 43L27 42M35 42L36 43L35 42z"/>
<path style="fill:#9f9f9f; stroke:none;" d="M36 42L37 43L36 42z"/>
<path style="fill:#535353; stroke:none;" d="M48 42L49 43L48 42M60 42L61 43L60 42M123 42L124 43L123 42M144 42L145 43L144 42M148 42L149 43L148 42z"/>
<path style="fill:#868686; stroke:none;" d="M150 42L151 43L150 42z"/>
<path style="fill:#9f9f9f; stroke:none;" d="M163 42L164 43L163 42M172 42L173 43L172 42z"/>
<path style="fill:#535353; stroke:none;" d="M184.333 42.6667L184.667 43.3333L184.333 42.6667z"/>
<path style="fill:#9f9f9f; stroke:none;" d="M25 43L26 44L25 43z"/>
<path style="fill:#535353; stroke:none;" d="M37 43L38 44L37 43z"/>
<path style="fill:#9f9f9f; stroke:none;" d="M38 43L39 44L38 43z"/>
<path style="fill:#535353; stroke:none;" d="M47 43L48 44L47 43M50 43L51 44L50 43M61 43L62 44L61 43M122 43L123 44L122 43z"/>
<path style="fill:#868686; stroke:none;" d="M144 43L145 44L144 43z"/>
<path style="fill:#9f9f9f; stroke:none;" d="M151 43L153 45L151 43M162 43L163 44L162 43M171 43L172 44L171 43z"/>
<path style="fill:#868686; stroke:none;" d="M26 44L27 45L26 44z"/>
<path style="fill:#535353; stroke:none;" d="M39 44L40 45L39 44z"/>
<path style="fill:#9f9f9f; stroke:none;" d="M40 44L41 45L40 44z"/>
<path style="fill:#868686; stroke:none;" d="M46 44L47 45L46 44z"/>
<path style="fill:#535353; stroke:none;" d="M54 44L49 47L54 58L62 66C75.1593 69.6885 85.7191 90.0536 97 98C88.4028 85.7952 75.5532 75.5532 65 65C57.3853 57.3853 51.8211 54.4317 54 44M62 44L63 45L62 44M121 44L122 45L121 44z"/>
<path style="fill:#9f9f9f; stroke:none;" d="M129 44L130 45L129 44M144 44L145 45L144 44z"/>
<path style="fill:#535353; stroke:none;" d="M147 44L148 45L147 44M151 44L152 45L151 44z"/>
<path style="fill:#9f9f9f; stroke:none;" d="M161 44L162 45L161 44M170 44L171 45L170 44M183.333 44.6667L183.667 45.3333L183.333 44.6667z"/>
<path style="fill:#535353; stroke:none;" d="M189.333 44.6667L189.667 45.3333L189.333 44.6667z"/>
<path style="fill:#9f9f9f; stroke:none;" d="M27 45L28 46L27 45z"/>
<path style="fill:#868686; stroke:none;" d="M28 45L29 46L28 45z"/>
<path style="fill:#535353; stroke:none;" d="M41 45L42 46L41 45z"/>
<path style="fill:#9f9f9f; stroke:none;" d="M42 45L43 46L42 45z"/>
<path style="fill:#535353; stroke:none;" d="M45 45L46 46L45 45z"/>
<path style="fill:#f3f3f3; stroke:none;" d="M54 45C48.7089 51.5062 54.0228 55.0206 59 60L87 88C91.9794 92.9771 95.4938 98.2911 102 93L102 92L54 45z"/>
<path style="fill:#9f9f9f; stroke:none;" d="M55 45L56 46L55 45z"/>
<path style="fill:#535353; stroke:none;" d="M58 45L59 46L58 45M63 45L64 46L63 45M120 45L121 46L120 45z"/>
<path style="fill:#868686; stroke:none;" d="M128 45L129 46L128 45z"/>
<path style="fill:#535353; stroke:none;" d="M145 45L146 46L145 45z"/>
<path style="fill:#9f9f9f; stroke:none;" d="M153 45L154 46L153 45z"/>
<path style="fill:#868686; stroke:none;" d="M160 45L161 46L160 45z"/>
<path style="fill:#9f9f9f; stroke:none;" d="M169 45L170 46L169 45z"/>
<path style="fill:#868686; stroke:none;" d="M30 46L31 47L30 46z"/>
<path style="fill:#535353; stroke:none;" d="M31 46L32 47L31 46M43.6667 46.3333L44.3333 46.6667L43.6667 46.3333z"/>
<path style="fill:#9f9f9f; stroke:none;" d="M56 46L57 47L56 46z"/>
<path style="fill:#535353; stroke:none;" d="M64 46L65 47L64 46M119 46L120 47L119 46M121 46L120 48L121 46z"/>
<path style="fill:#868686; stroke:none;" d="M127 46L128 47L127 46z"/>
<path style="fill:#9f9f9f; stroke:none;" d="M145 46L146 47L145 46z"/>
<path style="fill:#535353; stroke:none;" d="M154 46L155 47L154 46z"/>
<path style="fill:#868686; stroke:none;" d="M155 46L155 47L159 47L155 46z"/>
<path style="fill:#9f9f9f; stroke:none;" d="M168 46L169 47L168 46z"/>
<path style="fill:#868686; stroke:none;" d="M183 46L184 47L183 46M189 46L190 47L189 46M32 47L33 48L32 47z"/>
<path style="fill:#535353; stroke:none;" d="M33 47L34 48L33 47z"/>
<path style="fill:#9f9f9f; stroke:none;" d="M57 47L58 48L57 47M66 47L68 49L66 47z"/>
<path style="fill:#535353; stroke:none;" d="M118 47L119 48L118 47z"/>
<path style="fill:#868686; stroke:none;" d="M126 47L127 48L126 47M146 47L147 48L146 47z"/>
<path style="fill:#535353; stroke:none;" d="M164 47L165 48L164 47z"/>
<path style="fill:#9f9f9f; stroke:none;" d="M167 47L168 48L167 47z"/>
<path style="fill:#535353; stroke:none;" d="M183 47L184 48L183 47z"/>
<path style="fill:#9f9f9f; stroke:none;" d="M189.333 47.6667L189.667 48.3333L189.333 47.6667M34 48L35 49L34 48z"/>
<path style="fill:#535353; stroke:none;" d="M35 48L36 49L35 48z"/>
<path style="fill:#868686; stroke:none;" d="M58 48L59 49L58 48z"/>
<path style="fill:#535353; stroke:none;" d="M66 48L67 49L66 48M117 48L118 49L117 48z"/>
<path style="fill:#868686; stroke:none;" d="M125 48L126 49L125 48M147 48L148 49L147 48z"/>
<path style="fill:#535353; stroke:none;" d="M149 48L150 49L149 48z"/>
<path style="fill:#868686; stroke:none;" d="M166 48L167 49L166 48z"/>
<path style="fill:#9f9f9f; stroke:none;" d="M182 48L183 49L182 48M36 49L37 50L36 49z"/>
<path style="fill:#535353; stroke:none;" d="M37 49L38 50L37 49z"/>
<path style="fill:#9f9f9f; stroke:none;" d="M59 49L60 50L59 49M68 49L71 52L68 49z"/>
<path style="fill:#535353; stroke:none;" d="M116 49L117 50L116 49z"/>
<path style="fill:#868686; stroke:none;" d="M124 49L125 50L124 49z"/>
<path style="fill:#9f9f9f; stroke:none;" d="M148 49L149 50L148 49z"/>
<path style="fill:#535353; stroke:none;" d="M164 49L165 50L164 49z"/>
<path style="fill:#9f9f9f; stroke:none;" d="M165 49L166 50L165 49z"/>
<path style="fill:#868686; stroke:none;" d="M182 49L183 50L182 49z"/>
<path style="fill:#535353; stroke:none;" d="M188 49L189 50L188 49z"/>
<path style="fill:#9f9f9f; stroke:none;" d="M38 50L39 51L38 50z"/>
<path style="fill:#535353; stroke:none;" d="M39 50L40 51L39 50z"/>
<path style="fill:#9f9f9f; stroke:none;" d="M60 50L61 51L60 50z"/>
<path style="fill:#535353; stroke:none;" d="M68 50L69 51L68 50M115 50L116 51L115 50z"/>
<path style="fill:#868686; stroke:none;" d="M123 50L124 51L123 50z"/>
<path style="fill:#9f9f9f; stroke:none;" d="M149 50L150 51L149 50z"/>
<path style="fill:#535353; stroke:none;" d="M150 50L151 51L150 50z"/>
<path style="fill:#868686; stroke:none;" d="M163 50L164 51L163 50z"/>
<path style="fill:#9f9f9f; stroke:none;" d="M164 50L165 51L164 50z"/>
<path style="fill:#535353; stroke:none;" d="M182 50L183 51L182 50z"/>
<path style="fill:#868686; stroke:none;" d="M188 50L189 51L188 50z"/>
<path style="fill:#9f9f9f; stroke:none;" d="M40 51L41 52L40 51z"/>
<path style="fill:#535353; stroke:none;" d="M41 51L42 52L41 51z"/>
<path style="fill:#9f9f9f; stroke:none;" d="M61 51L62 52L61 51z"/>
<path style="fill:#535353; stroke:none;" d="M69 51L70 52L69 51M114 51L115 52L114 51z"/>
<path style="fill:#868686; stroke:none;" d="M122 51L123 52L122 51z"/>
<path style="fill:#9f9f9f; stroke:none;" d="M151 51L152 52L151 51z"/>
<path style="fill:#535353; stroke:none;" d="M152.667 51.3333L153.333 51.6667L152.667 51.3333M160 51L161 52L160 51z"/>
<path style="fill:#868686; stroke:none;" d="M161 51L162 52L161 51z"/>
<path style="fill:#9f9f9f; stroke:none;" d="M162 51L163 52L162 51z"/>
<path style="fill:#868686; stroke:none;" d="M181 51L182 52L181 51z"/>
<path style="fill:#9f9f9f; stroke:none;" d="M188 51L189 52L188 51M42 52L43 53L42 52z"/>
<path style="fill:#535353; stroke:none;" d="M43 52L44 53L43 52z"/>
<path style="fill:#9f9f9f; stroke:none;" d="M62 52L63 53L62 52M71 52L75 56L71 52M112 52L113 53L112 52z"/>
<path style="fill:#535353; stroke:none;" d="M113 52L114 53L113 52z"/>
<path style="fill:#868686; stroke:none;" d="M121 52L122 53L121 52z"/>
<path style="fill:#9f9f9f; stroke:none;" d="M154.667 52.3333L155.333 52.6667L154.667 52.3333z"/>
<path style="fill:#868686; stroke:none;" d="M156.667 52.3333L157.333 52.6667L156.667 52.3333z"/>
<path style="fill:#9f9f9f; stroke:none;" d="M158.667 52.3333L159.333 52.6667L158.667 52.3333z"/>
<path style="fill:#535353; stroke:none;" d="M181 52L182 53L181 52z"/>
<path style="fill:#868686; stroke:none;" d="M187 52L188 53L187 52z"/>
<path style="fill:#535353; stroke:none;" d="M44 53L45 54L44 53z"/>
<path style="fill:#868686; stroke:none;" d="M63 53L64 54L63 53z"/>
<path style="fill:#535353; stroke:none;" d="M68 53L69 54L68 53M71 53L72 54L71 53z"/>
<path style="fill:#9f9f9f; stroke:none;" d="M111 53L110 55L111 53z"/>
<path style="fill:#535353; stroke:none;" d="M117 53L118 54L117 53z"/>
<path style="fill:#868686; stroke:none;" d="M120 53L121 54L120 53M180 53L181 54L180 53z"/>
<path style="fill:#9f9f9f; stroke:none;" d="M187 53L188 54L187 53z"/>
<path style="fill:#868686; stroke:none;" d="M45 54L46 55L45 54z"/>
<path style="fill:#9f9f9f; stroke:none;" d="M64 54L65 55L64 54z"/>
<path style="fill:#535353; stroke:none;" d="M70 54L71 55L70 54M72 54L73 55L72 54M111 54L112 55L111 54z"/>
<path style="fill:#868686; stroke:none;" d="M119 54L120 55L119 54z"/>
<path style="fill:#9f9f9f; stroke:none;" d="M179 54L180 55L179 54z"/>
<path style="fill:#535353; stroke:none;" d="M186 54L187 55L186 54z"/>
<path style="fill:#868686; stroke:none;" d="M46 55L47 56L46 55z"/>
<path style="fill:#9f9f9f; stroke:none;" d="M65 55L66 56L65 55z"/>
<path style="fill:#535353; stroke:none;" d="M73 55L74 56L73 55z"/>
<path style="fill:#9f9f9f; stroke:none;" d="M109 55L110 56L109 55z"/>
<path style="fill:#868686; stroke:none;" d="M118 55L119 56L118 55z"/>
<path style="fill:#535353; stroke:none;" d="M179 55L180 56L179 55z"/>
<path style="fill:#9f9f9f; stroke:none;" d="M186 55L187 56L186 55z"/>
<path style="fill:#868686; stroke:none;" d="M47 56L48 57L47 56z"/>
<path style="fill:#9f9f9f; stroke:none;" d="M66 56L67 57L66 56M75 56L76 57L75 56M108 56L109 57L108 56z"/>
<path style="fill:#868686; stroke:none;" d="M117 56L118 57L117 56M178 56L179 57L178 56z"/>
<path style="fill:#535353; stroke:none;" d="M185 56L186 57L185 56z"/>
<path style="fill:#868686; stroke:none;" d="M48 57L49 58L48 57z"/>
<path style="fill:#9f9f9f; stroke:none;" d="M67 57L68 58L67 57M76 57L77 58L76 57M107 57L105 60L107 57z"/>
<path style="fill:#868686; stroke:none;" d="M116 57L117 58L116 57M177 57L178 58L177 57z"/>
<path style="fill:#9f9f9f; stroke:none;" d="M185 57L186 58L185 57z"/>
<path style="fill:#868686; stroke:none;" d="M49 58L50 59L49 58z"/>
<path style="fill:#9f9f9f; stroke:none;" d="M68 58L69 59L68 58M77 58L79 60L77 58z"/>
<path style="fill:#535353; stroke:none;" d="M107 58L108 59L107 58z"/>
<path style="fill:#868686; stroke:none;" d="M115 58L116 59L115 58M176 58L177 59L176 58z"/>
<path style="fill:#9f9f9f; stroke:none;" d="M184 58L185 59L184 58z"/>
<path style="fill:#868686; stroke:none;" d="M50 59L51 60L50 59z"/>
<path style="fill:#9f9f9f; stroke:none;" d="M69 59L70 60L69 59z"/>
<path style="fill:#535353; stroke:none;" d="M77 59L78 60L77 59M106 59L107 60L106 59z"/>
<path style="fill:#868686; stroke:none;" d="M114 59L115 60L114 59M175 59L176 60L175 59M183 59L184 60L183 59M51 60L52 61L51 60z"/>
<path style="fill:#535353; stroke:none;" d="M53 60L54 61L53 60z"/>
<path style="fill:#868686; stroke:none;" d="M70 60L71 61L70 60z"/>
<path style="fill:#9f9f9f; stroke:none;" d="M79 60L82 63L79 60M104 60L102 63L104 60z"/>
<path style="fill:#535353; stroke:none;" d="M107 60L108 61L107 60z"/>
<path style="fill:#868686; stroke:none;" d="M113 60L114 61L113 60M174 60L175 61L174 60z"/>
<path style="fill:#535353; stroke:none;" d="M182 60L178 65L182 60z"/>
<path style="fill:#868686; stroke:none;" d="M52 61L53 62L52 61z"/>
<path style="fill:#9f9f9f; stroke:none;" d="M71 61L72 62L71 61z"/>
<path style="fill:#535353; stroke:none;" d="M76 61L77 62L76 61M79 61L80 62L79 61M104 61L105 62L104 61z"/>
<path style="fill:#868686; stroke:none;" d="M112 61L113 62L112 61z"/>
<path style="fill:#9f9f9f; stroke:none;" d="M172 61L173 62L172 61z"/>
<path style="fill:#535353; stroke:none;" d="M173 61L174 62L173 61z"/>
<path style="fill:#9f9f9f; stroke:none;" d="M182 61L183 62L182 61z"/>
<path style="fill:#868686; stroke:none;" d="M53 62L54 63L53 62z"/>
<path style="fill:#9f9f9f; stroke:none;" d="M72 62L73 63L72 62z"/>
<path style="fill:#535353; stroke:none;" d="M78 62L79 63L78 62M80 62L81 63L80 62M103 62L104 63L103 62z"/>
<path style="fill:#868686; stroke:none;" d="M111 62L112 63L111 62M171 62L172 63L171 62z"/>
<path style="fill:#9f9f9f; stroke:none;" d="M181 62L182 63L181 62z"/>
<path style="fill:#868686; stroke:none;" d="M54 63L55 64L54 63z"/>
<path style="fill:#9f9f9f; stroke:none;" d="M73 63L74 64L73 63M82 63L83 64L82 63M101 63L102 64L101 63z"/>
<path style="fill:#868686; stroke:none;" d="M110 63L111 64L110 63z"/>
<path style="fill:#9f9f9f; stroke:none;" d="M169 63L170 64L169 63z"/>
<path style="fill:#535353; stroke:none;" d="M170 63L171 64L170 63z"/>
<path style="fill:#9f9f9f; stroke:none;" d="M180 63L181 64L180 63z"/>
<path style="fill:#868686; stroke:none;" d="M55 64L56 65L55 64z"/>
<path style="fill:#9f9f9f; stroke:none;" d="M74 64L75 65L74 64M83 64L85 66L83 64M100 64L101 65L100 64z"/>
<path style="fill:#868686; stroke:none;" d="M109 64L110 65L109 64z"/>
<path style="fill:#9f9f9f; stroke:none;" d="M166.667 64.3333L167.333 64.6667L166.667 64.3333z"/>
<path style="fill:#535353; stroke:none;" d="M168 64L169 65L168 64z"/>
<path style="fill:#9f9f9f; stroke:none;" d="M179 64L180 65L179 64z"/>
<path style="fill:#868686; stroke:none;" d="M56 65L57 66L56 65z"/>
<path style="fill:#9f9f9f; stroke:none;" d="M75 65L76 66L75 65z"/>
<path style="fill:#535353; stroke:none;" d="M78 65L79 66L78 65M83 65L84 66L83 65z"/>
<path style="fill:#9f9f9f; stroke:none;" d="M99 65L100 66L99 65z"/>
<path style="fill:#868686; stroke:none;" d="M108 65L109 66L108 65z"/>
<path style="fill:#9f9f9f; stroke:none;" d="M163.667 65.3333L164.333 65.6667L163.667 65.3333z"/>
<path style="fill:#868686; stroke:none;" d="M165 65L166 66L165 65z"/>
<path style="fill:#535353; stroke:none;" d="M166 65L167 66L166 65M173 65L174 66L173 65z"/>
<path style="fill:#868686; stroke:none;" d="M177 65L178 66L177 65M57 66L58 67L57 66z"/>
<path style="fill:#9f9f9f; stroke:none;" d="M76 66L77 67L76 66M85 66L86 67L85 66M98 66L97 68L98 66z"/>
<path style="fill:#868686; stroke:none;" d="M107 66L108 67L107 66z"/>
<path style="fill:#9f9f9f; stroke:none;" d="M151 66L152 67L151 66z"/>
<path style="fill:#868686; stroke:none;" d="M152.667 66.3333L153.333 66.6667L152.667 66.3333z"/>
<path style="fill:#9f9f9f; stroke:none;" d="M154 66L154 67L160 67L154 66z"/>
<path style="fill:#868686; stroke:none;" d="M160.667 66.3333L161.333 66.6667L160.667 66.3333z"/>
<path style="fill:#535353; stroke:none;" d="M162 66L163 67L162 66z"/>
<path style="fill:#868686; stroke:none;" d="M176 66L177 67L176 66M58 67L59 68L58 67z"/>
<path style="fill:#9f9f9f; stroke:none;" d="M77 67L78 68L77 67M86 67L88 69L86 67z"/>
<path style="fill:#535353; stroke:none;" d="M98 67L99 68L98 67z"/>
<path style="fill:#868686; stroke:none;" d="M106 67L107 68L106 67z"/>
<path style="fill:#9f9f9f; stroke:none;" d="M150 67L151 68L150 67z"/>
<path style="fill:#535353; stroke:none;" d="M174 67L175 68L174 67z"/>
<path style="fill:#9f9f9f; stroke:none;" d="M175 67L176 68L175 67z"/>
<path style="fill:#868686; stroke:none;" d="M59 68L60 69L59 68z"/>
<path style="fill:#9f9f9f; stroke:none;" d="M78 68L79 69L78 68z"/>
<path style="fill:#535353; stroke:none;" d="M86 68L87 69L86 68z"/>
<path style="fill:#9f9f9f; stroke:none;" d="M96 68L97 69L96 68z"/>
<path style="fill:#535353; stroke:none;" d="M99 68L100 69L99 68z"/>
<path style="fill:#868686; stroke:none;" d="M105 68L106 69L105 68z"/>
<path style="fill:#9f9f9f; stroke:none;" d="M149 68L150 69L149 68z"/>
<path style="fill:#535353; stroke:none;" d="M169 68L170 69L169 68M172 68L173 69L172 68z"/>
<path style="fill:#9f9f9f; stroke:none;" d="M173 68L174 69L173 68z"/>
<path style="fill:#868686; stroke:none;" d="M60 69L61 70L60 69z"/>
<path style="fill:#9f9f9f; stroke:none;" d="M79 69L80 70L79 69M88 69L90 71L88 69M95 69L94 71L95 69z"/>
<path style="fill:#868686; stroke:none;" d="M104 69L105 70L104 69z"/>
<path style="fill:#9f9f9f; stroke:none;" d="M148 69L149 70L148 69z"/>
<path style="fill:#535353; stroke:none;" d="M170 69L171 70L170 69z"/>
<path style="fill:#9f9f9f; stroke:none;" d="M171 69L172 70L171 69z"/>
<path style="fill:#868686; stroke:none;" d="M61 70L62 71L61 70z"/>
<path style="fill:#9f9f9f; stroke:none;" d="M80 70L81 71L80 70z"/>
<path style="fill:#535353; stroke:none;" d="M88 70L89 71L88 70M95 70L96 71L95 70z"/>
<path style="fill:#868686; stroke:none;" d="M103 70L104 71L103 70z"/>
<path style="fill:#9f9f9f; stroke:none;" d="M147 70L148 71L147 70z"/>
<path style="fill:#535353; stroke:none;" d="M167 70L168 71L167 70z"/>
<path style="fill:#868686; stroke:none;" d="M168 70L169 71L168 70z"/>
<path style="fill:#9f9f9f; stroke:none;" d="M169 70L170 71L169 70z"/>
<path style="fill:#868686; stroke:none;" d="M62 71L63 72L62 71z"/>
<path style="fill:#9f9f9f; stroke:none;" d="M81 71L82 72L81 71M90 71L91 72L90 71M93 71L94 72L93 71z"/>
<path style="fill:#868686; stroke:none;" d="M102 71L103 72L102 71z"/>
<path style="fill:#9f9f9f; stroke:none;" d="M146 71L147 72L146 71z"/>
<path style="fill:#535353; stroke:none;" d="M164 71L165 72L164 71z"/>
<path style="fill:#868686; stroke:none;" d="M165 71L166 72L165 71z"/>
<path style="fill:#9f9f9f; stroke:none;" d="M166.667 71.3333L167.333 71.6667L166.667 71.3333z"/>
<path style="fill:#868686; stroke:none;" d="M63 72L64 73L63 72z"/>
<path style="fill:#9f9f9f; stroke:none;" d="M82 72L83 73L82 72M91.6667 72.3333L92.3333 72.6667L91.6667 72.3333z"/>
<path style="fill:#868686; stroke:none;" d="M101 72L102 73L101 72z"/>
<path style="fill:#9f9f9f; stroke:none;" d="M145 72L146 73L145 72z"/>
<path style="fill:#868686; stroke:none;" d="M154.667 72.3333L155.333 72.6667L154.667 72.3333z"/>
<path style="fill:#535353; stroke:none;" d="M156 72L157 73L156 72z"/>
<path style="fill:#868686; stroke:none;" d="M157 72L157 73L161 73L157 72z"/>
<path style="fill:#9f9f9f; stroke:none;" d="M161 72L161 73L164 73L161 72z"/>
<path style="fill:#868686; stroke:none;" d="M64 73L65 74L64 73z"/>
<path style="fill:#9f9f9f; stroke:none;" d="M83 73L84 74L83 73z"/>
<path style="fill:#535353; stroke:none;" d="M85 73L86 74L85 73M91 73L92 74L91 73z"/>
<path style="fill:#868686; stroke:none;" d="M100 73L101 74L100 73z"/>
<path style="fill:#9f9f9f; stroke:none;" d="M144 73L145 74L144 73M153 73L154 74L153 73z"/>
<path style="fill:#868686; stroke:none;" d="M65 74L66 75L65 74z"/>
<path style="fill:#9f9f9f; stroke:none;" d="M84 74L85 75L84 74z"/>
<path style="fill:#868686; stroke:none;" d="M99 74L100 75L99 74z"/>
<path style="fill:#9f9f9f; stroke:none;" d="M143 74L144 75L143 74M152 74L153 75L152 74z"/>
<path style="fill:#868686; stroke:none;" d="M66 75L67 76L66 75z"/>
<path style="fill:#9f9f9f; stroke:none;" d="M85 75L86 76L85 75z"/>
<path style="fill:#868686; stroke:none;" d="M98 75L99 76L98 75z"/>
<path style="fill:#9f9f9f; stroke:none;" d="M142 75L143 76L142 75M151 75L152 76L151 75z"/>
<path style="fill:#868686; stroke:none;" d="M67 76L68 77L67 76z"/>
<path style="fill:#9f9f9f; stroke:none;" d="M86 76L87 77L86 76z"/>
<path style="fill:#535353; stroke:none;" d="M89 76L90 77L89 76M95 76L96 77L95 76z"/>
<path style="fill:#9f9f9f; stroke:none;" d="M97 76L98 77L97 76M141 76L142 77L141 76M150 76L151 77L150 76z"/>
<path style="fill:#868686; stroke:none;" d="M68 77L69 78L68 77z"/>
<path style="fill:#9f9f9f; stroke:none;" d="M87 77L88 78L87 77z"/>
<path style="fill:#868686; stroke:none;" d="M96 77L97 78L96 77z"/>
<path style="fill:#9f9f9f; stroke:none;" d="M140 77L141 78L140 77M149 77L150 78L149 77z"/>
<path style="fill:#868686; stroke:none;" d="M69 78L70 79L69 78z"/>
<path style="fill:#9f9f9f; stroke:none;" d="M88 78L89 79L88 78z"/>
<path style="fill:#535353; stroke:none;" d="M96 78L97 79L96 78z"/>
<path style="fill:#9f9f9f; stroke:none;" d="M97 78L98 79L97 78M139 78L140 79L139 78M148 78L149 79L148 78z"/>
<path style="fill:#868686; stroke:none;" d="M70 79L71 80L70 79z"/>
<path style="fill:#9f9f9f; stroke:none;" d="M89 79L90 80L89 79M98 79L99 80L98 79M138 79L139 80L138 79M147 79L148 80L147 79z"/>
<path style="fill:#868686; stroke:none;" d="M71 80L72 81L71 80z"/>
<path style="fill:#9f9f9f; stroke:none;" d="M90 80L91 81L90 80M99 80L100 81L99 80z"/>
<path style="fill:#868686; stroke:none;" d="M114 80L115 81L114 80z"/>
<path style="fill:#535353; stroke:none;" d="M115 80L123 88L115 80z"/>
<path style="fill:#9f9f9f; stroke:none;" d="M116 80L117 81L116 80M137 80L138 81L137 80M146 80L147 81L146 80z"/>
<path style="fill:#868686; stroke:none;" d="M72 81L73 82L72 81z"/>
<path style="fill:#9f9f9f; stroke:none;" d="M91 81L92 82L91 81M100 81L101 82L100 81M113 81L114 82L113 81M117 81L118 82L117 81M136 81L137 82L136 81z"/>
<path style="fill:#535353; stroke:none;" d="M144 81L145 82L144 81z"/>
<path style="fill:#9f9f9f; stroke:none;" d="M145 81L146 82L145 81z"/>
<path style="fill:#868686; stroke:none;" d="M73 82L74 83L73 82z"/>
<path style="fill:#9f9f9f; stroke:none;" d="M92 82L93 83L92 82M101 82L102 83L101 82M112 82L113 83L112 82M118 82L119 83L118 82M135 82L136 83L135 82z"/>
<path style="fill:#535353; stroke:none;" d="M139 82L140 83L139 82z"/>
<path style="fill:#9f9f9f; stroke:none;" d="M144 82L145 83L144 82z"/>
<path style="fill:#868686; stroke:none;" d="M74 83L75 84L74 83z"/>
<path style="fill:#9f9f9f; stroke:none;" d="M93 83L94 84L93 83M102 83L103 84L102 83M111 83L112 84L111 83M119 83L120 84L119 83M134 83L135 84L134 83M143 83L144 84L143 83z"/>
<path style="fill:#868686; stroke:none;" d="M75 84L76 85L75 84z"/>
<path style="fill:#9f9f9f; stroke:none;" d="M94 84L95 85L94 84M103 84L104 85L103 84z"/>
<path style="fill:#868686; stroke:none;" d="M110 84L111 85L110 84z"/>
<path style="fill:#9f9f9f; stroke:none;" d="M120 84L121 85L120 84M133 84L134 85L133 84M142 84L143 85L142 84z"/>
<path style="fill:#868686; stroke:none;" d="M76 85L77 86L76 85z"/>
<path style="fill:#9f9f9f; stroke:none;" d="M95 85L96 86L95 85M104 85L105 86L104 85z"/>
<path style="fill:#868686; stroke:none;" d="M109 85L110 86L109 85z"/>
<path style="fill:#9f9f9f; stroke:none;" d="M121 85L122 86L121 85M132 85L133 86L132 85z"/>
<path style="fill:#535353; stroke:none;" d="M140 85L141 86L140 85z"/>
<path style="fill:#9f9f9f; stroke:none;" d="M141 85L142 86L141 85z"/>
<path style="fill:#868686; stroke:none;" d="M77 86L78 87L77 86z"/>
<path style="fill:#9f9f9f; stroke:none;" d="M96 86L97 87L96 86M105 86L106 87L105 86z"/>
<path style="fill:#868686; stroke:none;" d="M108 86L109 87L108 86z"/>
<path style="fill:#535353; stroke:none;" d="M111 86L112 87L111 86z"/>
<path style="fill:#9f9f9f; stroke:none;" d="M122 86L123 87L122 86M131 86L132 87L131 86M140 86L141 87L140 86M77 87L78 88L77 87M97 87L98 88L97 87M106 87L107 88L106 87z"/>
<path style="fill:#868686; stroke:none;" d="M107 87L108 88L107 87z"/>
<path style="fill:#9f9f9f; stroke:none;" d="M123 87L124 88L123 87M130 87L131 88L130 87M139 87L140 88L139 87M76 88L77 89L76 88M98 88L99 89L98 88z"/>
<path style="fill:#535353; stroke:none;" d="M111 92C117.629 89.3764 120.944 95.4382 126 99L122 92C117.191 90.7265 115.038 87.3372 111 92z"/>
<path style="fill:#9f9f9f; stroke:none;" d="M124 88L127 91L124 88z"/>
<path style="fill:#868686; stroke:none;" d="M129 88L130 89L129 88z"/>
<path style="fill:#535353; stroke:none;" d="M137 88L138 89L137 88z"/>
<path style="fill:#9f9f9f; stroke:none;" d="M138 88L139 89L138 88M75 89L76 90L75 89M99 89L100 90L99 89z"/>
<path style="fill:#535353; stroke:none;" d="M105 89L106 90L105 89z"/>
<path style="fill:#868686; stroke:none;" d="M114 89L93 111L98 109C99.5775 103.372 108.403 94.6769 114 93L114 89z"/>
<path style="fill:#9f9f9f; stroke:none;" d="M115 89L114 93C107.834 94.0528 99.0528 102.834 98 109L94 110L94 111L143 160C149.019 166.019 156.501 176.775 166 176.64C178.035 176.469 185.712 161.496 178.581 152C169.805 140.314 157.331 130.331 147 120C136.764 109.764 126.838 97.3391 115 89z"/>
<path style="fill:#535353; stroke:none;" d="M124 89L125 90L124 89z"/>
<path style="fill:#868686; stroke:none;" d="M128 89L129 90L128 89z"/>
<path style="fill:#9f9f9f; stroke:none;" d="M137 89L138 90L137 89M74 90L75 91L74 90z"/>
<path style="fill:#535353; stroke:none;" d="M83 90L81 91L81 92L83 90z"/>
<path style="fill:#9f9f9f; stroke:none;" d="M100 90L101 91L100 90z"/>
<path style="fill:#535353; stroke:none;" d="M125 90L126 91L125 90z"/>
<path style="fill:#868686; stroke:none;" d="M127 90L128 91L127 90z"/>
<path style="fill:#535353; stroke:none;" d="M135 90L136 91L135 90z"/>
<path style="fill:#9f9f9f; stroke:none;" d="M136 90L137 91L136 90M73 91L74 92L73 91M101 91L102 92L101 91z"/>
<path style="fill:#868686; stroke:none;" d="M116 91L117 92L116 91z"/>
<path style="fill:#535353; stroke:none;" d="M126 91L127 92L126 91z"/>
<path style="fill:#9f9f9f; stroke:none;" d="M135 91L136 92L135 91M72 92L73 93L72 92M81 92L49 125L72 103L81 92z"/>
<path style="fill:#f3f3f3; stroke:none;" d="M82 92C72.0675 101.933 61.879 115.897 50 123.397C45.426 126.284 39.0824 124.678 34 126.559C19.7745 131.824 17 144.561 17 158C26.0583 153.776 30.5958 142.718 40 139.152C49.2339 135.65 59.4366 145.645 56.6466 155C53.9244 164.128 42.3892 170.349 37 178C50.4192 179.694 63.5685 175.637 69.0694 162C71.1073 156.948 69.7345 150.544 72.6034 146C76.8165 139.326 93.7932 130.139 93.7932 122C93.7932 117.604 87.1757 113.237 84 111L84 110C93.3937 103.359 90.5134 97.9976 82 92z"/>
<path style="fill:#868686; stroke:none;" d="M83 92L84 93L83 92M102 92L103 93L102 92z"/>
<path style="fill:#9f9f9f; stroke:none;" d="M134 92L135 93L134 92M71 93L72 94L71 93z"/>
<path style="fill:#868686; stroke:none;" d="M84 93L85 94L84 93z"/>
<path style="fill:#535353; stroke:none;" d="M89 93L90 94L89 93z"/>
<path style="fill:#868686; stroke:none;" d="M101 93L102 94L101 93z"/>
<path style="fill:#535353; stroke:none;" d="M132 93L131 95L132 93z"/>
<path style="fill:#9f9f9f; stroke:none;" d="M133 93L134 94L133 93M70 94L71 95L70 94z"/>
<path style="fill:#868686; stroke:none;" d="M85 94L86 95L85 94z"/>
<path style="fill:#9f9f9f; stroke:none;" d="M100 94L101 95L100 94z"/>
<path style="fill:#535353; stroke:none;" d="M108 94L109 95L108 94z"/>
<path style="fill:#9f9f9f; stroke:none;" d="M132 94L133 95L132 94M69 95L70 96L69 95z"/>
<path style="fill:#868686; stroke:none;" d="M86 95L87 96L86 95M99 95L100 96L99 95z"/>
<path style="fill:#9f9f9f; stroke:none;" d="M131 95L137 101L131 95M68 96L69 97L68 96z"/>
<path style="fill:#868686; stroke:none;" d="M87 96L88 97L87 96M98 96L99 97L98 96z"/>
<path style="fill:#535353; stroke:none;" d="M131 96L132 97L131 96z"/>
<path style="fill:#9f9f9f; stroke:none;" d="M67 97L68 98L67 97z"/>
<path style="fill:#535353; stroke:none;" d="M70 97L71 98L70 97z"/>
<path style="fill:#868686; stroke:none;" d="M88 97L89 98L88 97M97 97L98 98L97 97z"/>
<path style="fill:#535353; stroke:none;" d="M132 97L133 98L132 97z"/>
<path style="fill:#9f9f9f; stroke:none;" d="M66 98L67 99L66 98z"/>
<path style="fill:#868686; stroke:none;" d="M89 98L90 99L89 98z"/>
<path style="fill:#535353; stroke:none;" d="M92 98L93 99L92 98M133 98L134 99L133 98z"/>
<path style="fill:#9f9f9f; stroke:none;" d="M65 99L66 100L65 99z"/>
<path style="fill:#868686; stroke:none;" d="M90 99L91 100L90 99M126 99L127 100L126 99z"/>
<path style="fill:#535353; stroke:none;" d="M134 99L135 100L134 99z"/>
<path style="fill:#9f9f9f; stroke:none;" d="M64 100L65 101L64 100z"/>
<path style="fill:#868686; stroke:none;" d="M91 100L92 101L91 100M127 100L128 101L127 100z"/>
<path style="fill:#535353; stroke:none;" d="M135 100L136 101L135 100z"/>
<path style="fill:#9f9f9f; stroke:none;" d="M63 101L64 102L63 101z"/>
<path style="fill:#868686; stroke:none;" d="M92.3333 101.667L92.6667 102.333L92.3333 101.667M107 101L108 102L107 101M128 101L129 102L128 101z"/>
<path style="fill:#535353; stroke:none;" d="M136 101L137 102L136 101z"/>
<path style="fill:#9f9f9f; stroke:none;" d="M62 102L63 103L62 102z"/>
<path style="fill:#868686; stroke:none;" d="M129 102L130 103L129 102z"/>
<path style="fill:#535353; stroke:none;" d="M137 102L138 103L137 102z"/>
<path style="fill:#9f9f9f; stroke:none;" d="M61 103L62 104L61 103z"/>
<path style="fill:#868686; stroke:none;" d="M91 103L92 104L91 103M130 103L131 104L130 103z"/>
<path style="fill:#535353; stroke:none;" d="M138 103L139 104L138 103z"/>
<path style="fill:#9f9f9f; stroke:none;" d="M60 104L61 105L60 104z"/>
<path style="fill:#868686; stroke:none;" d="M90 104L91 105L90 104M131 104L132 105L131 104z"/>
<path style="fill:#535353; stroke:none;" d="M139 104L140 105L139 104z"/>
<path style="fill:#9f9f9f; stroke:none;" d="M59 105L60 106L59 105z"/>
<path style="fill:#868686; stroke:none;" d="M89 105L90 106L89 105M130 105L131 106L130 105M132 105L133 106L132 105z"/>
<path style="fill:#535353; stroke:none;" d="M140 105L142 107L140 105z"/>
<path style="fill:#9f9f9f; stroke:none;" d="M141 105L142 106L141 105M58 106L59 107L58 106z"/>
<path style="fill:#868686; stroke:none;" d="M88 106L89 107L88 106M133 106L134 107L133 106z"/>
<path style="fill:#9f9f9f; stroke:none;" d="M142 106L143 107L142 106M57 107L58 108L57 107z"/>
<path style="fill:#868686; stroke:none;" d="M87 107L88 108L87 107z"/>
<path style="fill:#535353; stroke:none;" d="M95 107L96 108L95 107z"/>
<path style="fill:#868686; stroke:none;" d="M134 107L135 108L134 107z"/>
<path style="fill:#9f9f9f; stroke:none;" d="M143 107L144 108L143 107M56 108L57 109L56 108z"/>
<path style="fill:#868686; stroke:none;" d="M86 108L87 109L86 108z"/>
<path style="fill:#535353; stroke:none;" d="M94 108L95 109L94 108z"/>
<path style="fill:#868686; stroke:none;" d="M135 108L136 109L135 108z"/>
<path style="fill:#535353; stroke:none;" d="M141 108L142 109L141 108z"/>
<path style="fill:#9f9f9f; stroke:none;" d="M144 108L145 109L144 108M55 109L56 110L55 109z"/>
<path style="fill:#868686; stroke:none;" d="M85 109L86 110L85 109z"/>
<path style="fill:#535353; stroke:none;" d="M93 109L94 110L93 109z"/>
<path style="fill:#868686; stroke:none;" d="M136 109L137 110L136 109z"/>
<path style="fill:#9f9f9f; stroke:none;" d="M145 109L146 110L145 109M54 110L55 111L54 110z"/>
<path style="fill:#535353; stroke:none;" d="M57 110L58 111L57 110z"/>
<path style="fill:#9f9f9f; stroke:none;" d="M84 110L85 111L84 110z"/>
<path style="fill:#868686; stroke:none;" d="M137 110L138 111L137 110z"/>
<path style="fill:#9f9f9f; stroke:none;" d="M146 110L147 111L146 110M53 111L54 112L53 111M85 111L86 112L85 111z"/>
<path style="fill:#535353; stroke:none;" d="M94 111L95 112L94 111z"/>
<path style="fill:#868686; stroke:none;" d="M138 111L139 112L138 111z"/>
<path style="fill:#9f9f9f; stroke:none;" d="M147 111L148 112L147 111M52 112L53 113L52 112M86 112L87 113L86 112z"/>
<path style="fill:#868686; stroke:none;" d="M95 112L96 113L95 112M139 112L140 113L139 112z"/>
<path style="fill:#9f9f9f; stroke:none;" d="M148 112L149 113L148 112M51 113L52 114L51 113M87 113L88 114L87 113z"/>
<path style="fill:#535353; stroke:none;" d="M96 113L97 114L96 113z"/>
<path style="fill:#868686; stroke:none;" d="M138 113L139 114L138 113M140 113L141 114L140 113z"/>
<path style="fill:#9f9f9f; stroke:none;" d="M149 113L150 114L149 113M50 114L51 115L50 114z"/>
<path style="fill:#535353; stroke:none;" d="M56 114L57 115L56 114z"/>
<path style="fill:#9f9f9f; stroke:none;" d="M88 114L89 115L88 114z"/>
<path style="fill:#535353; stroke:none;" d="M97 114L98 115L97 114z"/>
<path style="fill:#868686; stroke:none;" d="M141 114L142 115L141 114z"/>
<path style="fill:#9f9f9f; stroke:none;" d="M150 114L151 115L150 114M49 115L50 116L49 115z"/>
<path style="fill:#535353; stroke:none;" d="M51 115L52 116L51 115z"/>
<path style="fill:#9f9f9f; stroke:none;" d="M89 115L90 116L89 115z"/>
<path style="fill:#535353; stroke:none;" d="M98 115L99 116L98 115z"/>
<path style="fill:#868686; stroke:none;" d="M101 115L102 116L101 115M142 115L143 116L142 115z"/>
<path style="fill:#9f9f9f; stroke:none;" d="M151 115L152 116L151 115M48 116L49 117L48 116M90 116L91 117L90 116z"/>
<path style="fill:#535353; stroke:none;" d="M99 116L100 117L99 116z"/>
<path style="fill:#868686; stroke:none;" d="M143 116L144 117L143 116z"/>
<path style="fill:#9f9f9f; stroke:none;" d="M152 116L153 117L152 116M47 117L48 118L47 117z"/>
<path style="fill:#535353; stroke:none;" d="M55 117L56 118L55 117z"/>
<path style="fill:#9f9f9f; stroke:none;" d="M91 117L92 118L91 117z"/>
<path style="fill:#535353; stroke:none;" d="M100 117L101 118L100 117z"/>
<path style="fill:#868686; stroke:none;" d="M144 117L145 118L144 117z"/>
<path style="fill:#9f9f9f; stroke:none;" d="M153 117L154 118L153 117M38.6667 118.333L39.3333 118.667L38.6667 118.333z"/>
<path style="fill:#868686; stroke:none;" d="M40 118L40 119L47 119L40 118z"/>
<path style="fill:#9f9f9f; stroke:none;" d="M92 118L93 119L92 118z"/>
<path style="fill:#535353; stroke:none;" d="M101 118L102 119L101 118z"/>
<path style="fill:#868686; stroke:none;" d="M145 118L146 119L145 118z"/>
<path style="fill:#9f9f9f; stroke:none;" d="M154 118L155 119L154 118M34 119L35 120L34 119z"/>
<path style="fill:#868686; stroke:none;" d="M35 119L36 120L35 119z"/>
<path style="fill:#535353; stroke:none;" d="M36 119L37 120L36 119z"/>
<path style="fill:#9f9f9f; stroke:none;" d="M93 119L94 120L93 119z"/>
<path style="fill:#535353; stroke:none;" d="M102 119L103 120L102 119z"/>
<path style="fill:#868686; stroke:none;" d="M146 119L147 120L146 119z"/>
<path style="fill:#9f9f9f; stroke:none;" d="M155 119L156 120L155 119M31 120L32 121L31 120z"/>
<path style="fill:#868686; stroke:none;" d="M32 120L33 121L32 120z"/>
<path style="fill:#535353; stroke:none;" d="M33 120L34 121L33 120z"/>
<path style="fill:#9f9f9f; stroke:none;" d="M94 120L95 121L94 120z"/>
<path style="fill:#868686; stroke:none;" d="M103 120L104 121L103 120M147 120L148 121L147 120z"/>
<path style="fill:#9f9f9f; stroke:none;" d="M156 120L157 121L156 120M29 121L30 122L29 121z"/>
<path style="fill:#535353; stroke:none;" d="M30 121L31 122L30 121z"/>
<path style="fill:#9f9f9f; stroke:none;" d="M95 121L96 122L95 121z"/>
<path style="fill:#535353; stroke:none;" d="M102 121L103 122L102 121M104 121L105 122L104 121z"/>
<path style="fill:#868686; stroke:none;" d="M107 121L108 122L107 121M146 121L147 122L146 121M148 121L149 122L148 121z"/>
<path style="fill:#9f9f9f; stroke:none;" d="M157 121L158 122L157 121M27 122L28 123L27 122z"/>
<path style="fill:#535353; stroke:none;" d="M28 122L29 123L28 122z"/>
<path style="fill:#868686; stroke:none;" d="M95 122L96 123L95 122z"/>
<path style="fill:#535353; stroke:none;" d="M101 122L102 123L101 122M105 122L106 123L105 122z"/>
<path style="fill:#868686; stroke:none;" d="M149 122L150 123L149 122z"/>
<path style="fill:#9f9f9f; stroke:none;" d="M158 122L159 123L158 122M25 123L26 124L25 123z"/>
<path style="fill:#535353; stroke:none;" d="M26 123L27 124L26 123z"/>
<path style="fill:#868686; stroke:none;" d="M94 123L95 124L94 123M106 123L107 124L106 123M150 123L151 124L150 123z"/>
<path style="fill:#535353; stroke:none;" d="M156 123L157 124L156 123z"/>
<path style="fill:#9f9f9f; stroke:none;" d="M159 123L160 124L159 123z"/>
<path style="fill:#868686; stroke:none;" d="M24 124L25 125L24 124z"/>
<path style="fill:#535353; stroke:none;" d="M38 124L39 125L38 124z"/>
<path style="fill:#868686; stroke:none;" d="M39 124L39 125L42 125L39 124z"/>
<path style="fill:#9f9f9f; stroke:none;" d="M42 124L42 125L46 125L42 124z"/>
<path style="fill:#868686; stroke:none;" d="M46 124L46 125L49 125L46 124M93 124L94 125L93 124z"/>
<path style="fill:#535353; stroke:none;" d="M107 124L108 125L107 124z"/>
<path style="fill:#868686; stroke:none;" d="M151 124L152 125L151 124z"/>
<path style="fill:#9f9f9f; stroke:none;" d="M160 124L161 125L160 124z"/>
<path style="fill:#535353; stroke:none;" d="M23 125L24 126L23 125M26 125L27 126L26 125M30 125L31 126L30 125M34 125L35 126L34 125z"/>
<path style="fill:#868686; stroke:none;" d="M35 125L36 126L35 125z"/>
<path style="fill:#9f9f9f; stroke:none;" d="M36.6667 125.333L37.3333 125.667L36.6667 125.333z"/>
<path style="fill:#868686; stroke:none;" d="M92 125L93 126L92 125z"/>
<path style="fill:#535353; stroke:none;" d="M108 125L109 126L108 125z"/>
<path style="fill:#868686; stroke:none;" d="M152 125L153 126L152 125z"/>
<path style="fill:#9f9f9f; stroke:none;" d="M161 125L162 126L161 125M21 126L22 127L21 126z"/>
<path style="fill:#535353; stroke:none;" d="M22 126L23 127L22 126M24 126L23 128L24 126M29 126L30 127L29 126M32 126L33 127L32 126z"/>
<path style="fill:#9f9f9f; stroke:none;" d="M33 126L34 127L33 126z"/>
<path style="fill:#868686; stroke:none;" d="M91 126L92 127L91 126z"/>
<path style="fill:#535353; stroke:none;" d="M93 126L94 127L93 126M97 126L98 127L97 126M99 126L84 142C88.9961 138.481 97.5286 132.07 99 126z"/>
<path style="fill:#9f9f9f; stroke:none;" d="M100 126L101 127L100 126z"/>
<path style="fill:#535353; stroke:none;" d="M109 126L110 127L109 126z"/>
<path style="fill:#868686; stroke:none;" d="M153 126L154 127L153 126z"/>
<path style="fill:#9f9f9f; stroke:none;" d="M162 126L163 127L162 126M20 127L21 128L20 127z"/>
<path style="fill:#535353; stroke:none;" d="M30 127L31 128L30 127z"/>
<path style="fill:#9f9f9f; stroke:none;" d="M31 127L32 128L31 127z"/>
<path style="fill:#868686; stroke:none;" d="M90 127L91 128L90 127z"/>
<path style="fill:#9f9f9f; stroke:none;" d="M99 127L100 128L99 127M101 127L102 128L101 127z"/>
<path style="fill:#535353; stroke:none;" d="M110 127L111 128L110 127z"/>
<path style="fill:#868686; stroke:none;" d="M154 127L155 128L154 127z"/>
<path style="fill:#9f9f9f; stroke:none;" d="M163 127L164 128L163 127M19 128L18 130L19 128z"/>
<path style="fill:#535353; stroke:none;" d="M28 128L27 130L28 128z"/>
<path style="fill:#9f9f9f; stroke:none;" d="M29 128L30 129L29 128z"/>
<path style="fill:#868686; stroke:none;" d="M89 128L90 129L89 128z"/>
<path style="fill:#9f9f9f; stroke:none;" d="M98 128L99 129L98 128M102 128L103 129L102 128z"/>
<path style="fill:#868686; stroke:none;" d="M111 128L112 129L111 128M155 128L156 129L155 128z"/>
<path style="fill:#9f9f9f; stroke:none;" d="M164 128L165 129L164 128z"/>
<path style="fill:#535353; stroke:none;" d="M19 129L20 130L19 129z"/>
<path style="fill:#9f9f9f; stroke:none;" d="M28 129L29 130L28 129z"/>
<path style="fill:#868686; stroke:none;" d="M88 129L89 130L88 129z"/>
<path style="fill:#9f9f9f; stroke:none;" d="M97 129L98 130L97 129M103 129L104 130L103 129z"/>
<path style="fill:#535353; stroke:none;" d="M107 129L108 130L107 129M112 129L113 130L112 129z"/>
<path style="fill:#868686; stroke:none;" d="M154 129L155 130L154 129M156 129L157 130L156 129z"/>
<path style="fill:#9f9f9f; stroke:none;" d="M165 129L166 130L165 129z"/>
<path style="fill:#535353; stroke:none;" d="M18 130L19 131L18 130z"/>
<path style="fill:#868686; stroke:none;" d="M26 130L27 131L26 130M87 130L88 131L87 130z"/>
<path style="fill:#9f9f9f; stroke:none;" d="M96 130L97 131L96 130M104 130L105 131L104 130z"/>
<path style="fill:#535353; stroke:none;" d="M113 130L114 131L113 130z"/>
<path style="fill:#868686; stroke:none;" d="M157 130L158 131L157 130z"/>
<path style="fill:#9f9f9f; stroke:none;" d="M166 130L167 131L166 130z"/>
<path style="fill:#535353; stroke:none;" d="M17 131L18 132L17 131z"/>
<path style="fill:#868686; stroke:none;" d="M25 131L26 132L25 131M86 131L87 132L86 131z"/>
<path style="fill:#9f9f9f; stroke:none;" d="M95 131L96 132L95 131M105 131L106 132L105 131z"/>
<path style="fill:#535353; stroke:none;" d="M114 131L115 132L114 131z"/>
<path style="fill:#868686; stroke:none;" d="M117 131L118 132L117 131M158 131L159 132L158 131z"/>
<path style="fill:#9f9f9f; stroke:none;" d="M167 131L168 132L167 131z"/>
<path style="fill:#868686; stroke:none;" d="M16 132L17 133L16 132z"/>
<path style="fill:#535353; stroke:none;" d="M18 132L19 133L18 132z"/>
<path style="fill:#9f9f9f; stroke:none;" d="M24 132L25 133L24 132z"/>
<path style="fill:#868686; stroke:none;" d="M85 132L86 133L85 132z"/>
<path style="fill:#9f9f9f; stroke:none;" d="M94 132L95 133L94 132M106 132L107 133L106 132z"/>
<path style="fill:#535353; stroke:none;" d="M115 132L116 133L115 132z"/>
<path style="fill:#868686; stroke:none;" d="M159 132L160 133L159 132z"/>
<path style="fill:#9f9f9f; stroke:none;" d="M168 132L169 133L168 132M15 133L16 134L15 133z"/>
<path style="fill:#868686; stroke:none;" d="M23 133L24 134L23 133M84 133L85 134L84 133z"/>
<path style="fill:#9f9f9f; stroke:none;" d="M93 133L94 134L93 133M107 133L108 134L107 133z"/>
<path style="fill:#535353; stroke:none;" d="M116 133L117 134L116 133z"/>
<path style="fill:#868686; stroke:none;" d="M160 133L161 134L160 133z"/>
<path style="fill:#9f9f9f; stroke:none;" d="M169 133L172 136L169 133z"/>
<path style="fill:#535353; stroke:none;" d="M15 134L16 135L15 134z"/>
<path style="fill:#868686; stroke:none;" d="M22 134L23 135L22 134M83 134L84 135L83 134z"/>
<path style="fill:#9f9f9f; stroke:none;" d="M92 134L93 135L92 134M108 134C115.237 144.274 126.726 155.763 137 163C129.763 152.726 118.274 141.237 108 134z"/>
<path style="fill:#535353; stroke:none;" d="M109 134L110 135L109 134M117 134L118 135L117 134z"/>
<path style="fill:#868686; stroke:none;" d="M161 134L162 135L161 134z"/>
<path style="fill:#535353; stroke:none;" d="M169 134L170 135L169 134z"/>
<path style="fill:#9f9f9f; stroke:none;" d="M14 135L15 136L14 135z"/>
<path style="fill:#535353; stroke:none;" d="M21 135L22 136L21 135z"/>
<path style="fill:#868686; stroke:none;" d="M82 135L83 136L82 135z"/>
<path style="fill:#9f9f9f; stroke:none;" d="M91 135L92 136L91 135z"/>
<path style="fill:#535353; stroke:none;" d="M110 135L111 136L110 135M118 135L119 136L118 135z"/>
<path style="fill:#868686; stroke:none;" d="M162 135L163 136L162 135z"/>
<path style="fill:#535353; stroke:none;" d="M170 135L171 136L170 135M14 136L15 137L14 136z"/>
<path style="fill:#868686; stroke:none;" d="M81 136L82 137L81 136z"/>
<path style="fill:#9f9f9f; stroke:none;" d="M90 136L91 137L90 136z"/>
<path style="fill:#535353; stroke:none;" d="M111 136L112 137L111 136z"/>
<path style="fill:#868686; stroke:none;" d="M119 136L120 137L119 136M163 136L164 137L163 136z"/>
<path style="fill:#9f9f9f; stroke:none;" d="M172 136L173 137L172 136M13 137L14 138L13 137M20 137L21 138L20 137z"/>
<path style="fill:#868686; stroke:none;" d="M80 137L81 138L80 137z"/>
<path style="fill:#9f9f9f; stroke:none;" d="M89 137L90 138L89 137z"/>
<path style="fill:#535353; stroke:none;" d="M112 137L113 138L112 137M120 137L121 138L120 137z"/>
<path style="fill:#868686; stroke:none;" d="M123 137L124 138L123 137M162 137L163 138L162 137M164 137L165 138L164 137z"/>
<path style="fill:#9f9f9f; stroke:none;" d="M173 137L174 138L173 137z"/>
<path style="fill:#535353; stroke:none;" d="M13 138L14 139L13 138M19 138L20 139L19 138z"/>
<path style="fill:#9f9f9f; stroke:none;" d="M41 138L41 139L47 139L41 138z"/>
<path style="fill:#868686; stroke:none;" d="M79 138L80 139L79 138z"/>
<path style="fill:#9f9f9f; stroke:none;" d="M88 138L89 139L88 138z"/>
<path style="fill:#535353; stroke:none;" d="M113 138L114 139L113 138M115 138L116 139L115 138M121 138L122 139L121 138z"/>
<path style="fill:#868686; stroke:none;" d="M165 138L166 139L165 138z"/>
<path style="fill:#9f9f9f; stroke:none;" d="M174 138L175 139L174 138M12 139L13 140L12 139M19 139L20 140L19 139M38 139L39 140L38 139z"/>
<path style="fill:#868686; stroke:none;" d="M39 139L40 140L39 139z"/>
<path style="fill:#535353; stroke:none;" d="M40 139L41 140L40 139M47 139L48 140L47 139z"/>
<path style="fill:#868686; stroke:none;" d="M48 139L49 140L48 139z"/>
<path style="fill:#9f9f9f; stroke:none;" d="M49 139L50 140L49 139z"/>
<path style="fill:#868686; stroke:none;" d="M78 139L79 140L78 139z"/>
<path style="fill:#9f9f9f; stroke:none;" d="M87 139L88 140L87 139z"/>
<path style="fill:#535353; stroke:none;" d="M114 139L115 140L114 139z"/>
<path style="fill:#868686; stroke:none;" d="M122 139L123 140L122 139M166 139L167 140L166 139z"/>
<path style="fill:#9f9f9f; stroke:none;" d="M175 139L176 140L175 139z"/>
<path style="fill:#868686; stroke:none;" d="M12 140L13 141L12 140z"/>
<path style="fill:#535353; stroke:none;" d="M18 140L19 141L18 140z"/>
<path style="fill:#9f9f9f; stroke:none;" d="M36 140L37 141L36 140z"/>
<path style="fill:#535353; stroke:none;" d="M37 140L38 141L37 140z"/>
<path style="fill:#868686; stroke:none;" d="M50 140L51 141L50 140z"/>
<path style="fill:#9f9f9f; stroke:none;" d="M51 140L53 142L51 140z"/>
<path style="fill:#868686; stroke:none;" d="M77 140L78 141L77 140z"/>
<path style="fill:#9f9f9f; stroke:none;" d="M86 140L87 141L86 140z"/>
<path style="fill:#535353; stroke:none;" d="M115 140L116 141L115 140M117 140L118 141L117 140M123 140L124 141L123 140z"/>
<path style="fill:#868686; stroke:none;" d="M167 140L168 141L167 140z"/>
<path style="fill:#9f9f9f; stroke:none;" d="M176 140L177 141L176 140z"/>
<path style="fill:#535353; stroke:none;" d="M12 141L13 142L12 141z"/>
<path style="fill:#9f9f9f; stroke:none;" d="M18 141L19 142L18 141M35 141L36 142L35 141z"/>
<path style="fill:#535353; stroke:none;" d="M51 141L52 142L51 141z"/>
<path style="fill:#868686; stroke:none;" d="M76 141L77 142L76 141z"/>
<path style="fill:#9f9f9f; stroke:none;" d="M85 141L86 142L85 141z"/>
<path style="fill:#535353; stroke:none;" d="M116 141L117 142L116 141M124 141L125 142L124 141z"/>
<path style="fill:#868686; stroke:none;" d="M168 141L169 142L168 141z"/>
<path style="fill:#9f9f9f; stroke:none;" d="M177 141L178 142L177 141M11 142L12 143L11 142z"/>
<path style="fill:#535353; stroke:none;" d="M17 142L18 143L17 142z"/>
<path style="fill:#9f9f9f; stroke:none;" d="M34 142L35 143L34 142M53 142L54 143L53 142z"/>
<path style="fill:#868686; stroke:none;" d="M75 142L76 143L75 142z"/>
<path style="fill:#535353; stroke:none;" d="M83 142L84 143L83 142M117 142L118 143L117 142M125 142L126 143L125 142z"/>
<path style="fill:#868686; stroke:none;" d="M169 142L170 143L169 142z"/>
<path style="fill:#9f9f9f; stroke:none;" d="M178 142L179 143L178 142z"/>
<path style="fill:#868686; stroke:none;" d="M11 143L12 144L11 143M17 143L18 144L17 143z"/>
<path style="fill:#9f9f9f; stroke:none;" d="M33 143L34 144L33 143M54 143L55 144L54 143z"/>
<path style="fill:#868686; stroke:none;" d="M74 143L75 144L74 143z"/>
<path style="fill:#535353; stroke:none;" d="M82 143L83 144L82 143M118 143L119 144L118 143M126 143L127 144L126 143z"/>
<path style="fill:#868686; stroke:none;" d="M170 143L171 144L170 143z"/>
<path style="fill:#9f9f9f; stroke:none;" d="M179 143L180 144L179 143z"/>
<path style="fill:#535353; stroke:none;" d="M11.3333 144.667L11.6667 145.333L11.3333 144.667z"/>
<path style="fill:#9f9f9f; stroke:none;" d="M17.3333 144.667L17.6667 145.333L17.3333 144.667z"/>
<path style="fill:#868686; stroke:none;" d="M32 144L33 145L32 144z"/>
<path style="fill:#535353; stroke:none;" d="M41.6667 144.333L42.3333 144.667L41.6667 144.333z"/>
<path style="fill:#868686; stroke:none;" d="M43.6667 144.333L44.3333 144.667L43.6667 144.333z"/>
<path style="fill:#535353; stroke:none;" d="M45 144L46 145L45 144M54 144L55 145L54 144z"/>
<path style="fill:#868686; stroke:none;" d="M73 144L74 145L73 144z"/>
<path style="fill:#535353; stroke:none;" d="M81 144L82 145L81 144M119 144L120 145L119 144M127 144L128 145L127 144z"/>
<path style="fill:#868686; stroke:none;" d="M171 144L172 145L171 144z"/>
<path style="fill:#9f9f9f; stroke:none;" d="M180 144L181 145L180 144z"/>
<path style="fill:#868686; stroke:none;" d="M31 145L32 146L31 145z"/>
<path style="fill:#535353; stroke:none;" d="M39 145L33 152L39 145z"/>
<path style="fill:#868686; stroke:none;" d="M40 145L41 146L40 145z"/>
<path style="fill:#9f9f9f; stroke:none;" d="M41 145L42 146L41 145M46 145L47 146L46 145z"/>
<path style="fill:#868686; stroke:none;" d="M47 145L48 146L47 145M55 145L56 146L55 145M72 145L73 146L72 145z"/>
<path style="fill:#535353; stroke:none;" d="M80 145L81 146L80 145M120 145L121 146L120 145M128 145L129 146L128 145z"/>
<path style="fill:#868686; stroke:none;" d="M131 145L132 146L131 145M170 145L171 146L170 145M172 145L173 146L172 145z"/>
<path style="fill:#9f9f9f; stroke:none;" d="M181 145L182 146L181 145M10 146L10 149L11 149L10 146z"/>
<path style="fill:#535353; stroke:none;" d="M16.3333 146.667L16.6667 147.333L16.3333 146.667z"/>
<path style="fill:#868686; stroke:none;" d="M30 146L31 147L30 146z"/>
<path style="fill:#9f9f9f; stroke:none;" d="M39 146L40 147L39 146M48 146L50 148L48 146z"/>
<path style="fill:#535353; stroke:none;" d="M49 146L50 147L49 146z"/>
<path style="fill:#9f9f9f; stroke:none;" d="M56.3333 146.667L56.6667 147.333L56.3333 146.667M71 146L72 147L71 146z"/>
<path style="fill:#535353; stroke:none;" d="M79 146L80 147L79 146M121 146L122 147L121 146M129 146L130 147L129 146z"/>
<path style="fill:#868686; stroke:none;" d="M173 146L174 147L173 146z"/>
<path style="fill:#9f9f9f; stroke:none;" d="M182 146L183 147L182 146z"/>
<path style="fill:#868686; stroke:none;" d="M29 147L30 148L29 147z"/>
<path style="fill:#535353; stroke:none;" d="M35 147L36 148L35 147z"/>
<path style="fill:#9f9f9f; stroke:none;" d="M38 147L39 148L38 147z"/>
<path style="fill:#535353; stroke:none;" d="M71.3333 147.667L71.6667 148.333L71.3333 147.667M78 147L79 148L78 147M122 147L123 148L122 147M130 147L131 148L130 147z"/>
<path style="fill:#868686; stroke:none;" d="M174 147L175 148L174 147z"/>
<path style="fill:#9f9f9f; stroke:none;" d="M183 147L184 148L183 147z"/>
<path style="fill:#868686; stroke:none;" d="M16 148L16 151L17 151L16 148M28 148L29 149L28 148z"/>
<path style="fill:#9f9f9f; stroke:none;" d="M37 148L38 149L37 148z"/>
<path style="fill:#868686; stroke:none;" d="M50 148L51 149L50 148z"/>
<path style="fill:#535353; stroke:none;" d="M56.3333 148.667L56.6667 149.333L56.3333 148.667M77 148L78 149L77 148M123 148L124 149L123 148M125 148L126 149L125 148M131 148L132 149L131 148z"/>
<path style="fill:#868686; stroke:none;" d="M175 148L176 149L175 148z"/>
<path style="fill:#9f9f9f; stroke:none;" d="M184 148L185 149L184 148z"/>
<path style="fill:#868686; stroke:none;" d="M10 149L10 154L11 154L10 149M27 149L28 150L27 149z"/>
<path style="fill:#9f9f9f; stroke:none;" d="M36 149L37 150L36 149M50.3333 149.667L50.6667 150.333L50.3333 149.667z"/>
<path style="fill:#535353; stroke:none;" d="M54 149L55 150L54 149z"/>
<path style="fill:#868686; stroke:none;" d="M71 149L71 155L72 155L71 149z"/>
<path style="fill:#9f9f9f; stroke:none;" d="M77 149L77 157L78 157L77 149z"/>
<path style="fill:#535353; stroke:none;" d="M124 149L125 150L124 149M132 149L133 150L132 149z"/>
<path style="fill:#868686; stroke:none;" d="M176 149L177 150L176 149z"/>
<path style="fill:#535353; stroke:none;" d="M184 149L185 150L184 149z"/>
<path style="fill:#868686; stroke:none;" d="M26 150L27 151L26 150z"/>
<path style="fill:#535353; stroke:none;" d="M30 150L31 151L30 150z"/>
<path style="fill:#9f9f9f; stroke:none;" d="M35 150L36 151L35 150z"/>
<path style="fill:#535353; stroke:none;" d="M51 150L51 153L52 153L51 150M125 150L126 151L125 150M133 150L134 151L133 150z"/>
<path style="fill:#868686; stroke:none;" d="M177 150L178 151L177 150M185 150L186 151L185 150z"/>
<path style="fill:#9f9f9f; stroke:none;" d="M16 151L17 152L16 151z"/>
<path style="fill:#868686; stroke:none;" d="M25 151L26 152L25 151z"/>
<path style="fill:#9f9f9f; stroke:none;" d="M34 151L35 152L34 151M57.3333 151.667L57.6667 152.333L57.3333 151.667z"/>
<path style="fill:#535353; stroke:none;" d="M126 151L127 152L126 151M134 151L135 152L134 151z"/>
<path style="fill:#868686; stroke:none;" d="M178 151L179 152L178 151z"/>
<path style="fill:#9f9f9f; stroke:none;" d="M186 151L187 152L186 151z"/>
<path style="fill:#868686; stroke:none;" d="M16 152L17 153L16 152M24 152L25 153L24 152z"/>
<path style="fill:#9f9f9f; stroke:none;" d="M33 152L34 153L33 152z"/>
<path style="fill:#535353; stroke:none;" d="M127 152L128 153L127 152M135 152L136 153L135 152z"/>
<path style="fill:#868686; stroke:none;" d="M179 152L180 153L179 152z"/>
<path style="fill:#535353; stroke:none;" d="M186 152L187 153L186 152z"/>
<path style="fill:#9f9f9f; stroke:none;" d="M16 153L17 154L16 153z"/>
<path style="fill:#868686; stroke:none;" d="M23 153L24 154L23 153z"/>
<path style="fill:#535353; stroke:none;" d="M31 153L24 161L31 153z"/>
<path style="fill:#9f9f9f; stroke:none;" d="M32 153L33 154L32 153M50 153L51 154L50 153z"/>
<path style="fill:#535353; stroke:none;" d="M56.3333 153.667L56.6667 154.333L56.3333 153.667M128 153L129 154L128 153M136 153L137 154L136 153M180 153L181 154L180 153z"/>
<path style="fill:#9f9f9f; stroke:none;" d="M187 153L188 154L187 153M10 154L10 157L11 157L10 154z"/>
<path style="fill:#535353; stroke:none;" d="M14 154L15 155L14 154z"/>
<path style="fill:#868686; stroke:none;" d="M16.3333 154.667L16.6667 155.333L16.3333 154.667M22 154L23 155L22 154z"/>
<path style="fill:#9f9f9f; stroke:none;" d="M31 154L32 155L31 154z"/>
<path style="fill:#868686; stroke:none;" d="M50 154L51 155L50 154z"/>
<path style="fill:#535353; stroke:none;" d="M129 154L130 155L129 154M131 154L132 155L131 154M137 154L138 155L137 154z"/>
<path style="fill:#868686; stroke:none;" d="M180 154L181 155L180 154M187 154L188 155L187 154M21 155L22 156L21 155z"/>
<path style="fill:#9f9f9f; stroke:none;" d="M30 155L31 156L30 155z"/>
<path style="fill:#535353; stroke:none;" d="M54 155L52 158L54 155z"/>
<path style="fill:#868686; stroke:none;" d="M56 155L57 156L56 155z"/>
<path style="fill:#535353; stroke:none;" d="M71.3333 155.667L71.6667 156.333L71.3333 155.667M130 155L131 156L130 155M138 155L139 156L138 155M181 155L182 156L181 155M187 155L188 156L187 155M16 156L17 157L16 156z"/>
<path style="fill:#868686; stroke:none;" d="M20 156L21 157L20 156z"/>
<path style="fill:#9f9f9f; stroke:none;" d="M29 156L30 157L29 156z"/>
<path style="fill:#868686; stroke:none;" d="M49 156L50 157L49 156z"/>
<path style="fill:#9f9f9f; stroke:none;" d="M56 156L57 157L56 156z"/>
<path style="fill:#535353; stroke:none;" d="M131 156L132 157L131 156M139 156L140 157L139 156z"/>
<path style="fill:#868686; stroke:none;" d="M181.333 156.667L181.667 157.333L181.333 156.667M19 157L20 158L19 157z"/>
<path style="fill:#9f9f9f; stroke:none;" d="M28 157L29 158L28 157z"/>
<path style="fill:#868686; stroke:none;" d="M48 157L49 158L48 157z"/>
<path style="fill:#535353; stroke:none;" d="M55 157L56 158L55 157z"/>
<path style="fill:#9f9f9f; stroke:none;" d="M70.3333 157.667L70.6667 158.333L70.3333 157.667z"/>
<path style="fill:#535353; stroke:none;" d="M76.3333 157.667L76.6667 158.333L76.3333 157.667M132 157L133 158L132 157M140 157L141 158L140 157M182 157L182 164L183 164L182 157z"/>
<path style="fill:#9f9f9f; stroke:none;" d="M188 157L188 164L189 164L188 157z"/>
<path style="fill:#535353; stroke:none;" d="M11 158L12 159L11 158z"/>
<path style="fill:#9f9f9f; stroke:none;" d="M17 158L18 159L17 158z"/>
<path style="fill:#868686; stroke:none;" d="M18 158L19 159L18 158z"/>
<path style="fill:#9f9f9f; stroke:none;" d="M27 158L28 159L27 158z"/>
<path style="fill:#868686; stroke:none;" d="M47 158L48 159L47 158z"/>
<path style="fill:#9f9f9f; stroke:none;" d="M55 158L56 159L55 158z"/>
<path style="fill:#535353; stroke:none;" d="M133 158L134 159L133 158M141 158L142 159L141 158z"/>
<path style="fill:#868686; stroke:none;" d="M11 159L12 160L11 159z"/>
<path style="fill:#535353; stroke:none;" d="M17 159L18 160L17 159M22 159L23 160L22 159z"/>
<path style="fill:#9f9f9f; stroke:none;" d="M26 159L27 160L26 159z"/>
<path style="fill:#868686; stroke:none;" d="M46 159L47 160L46 159z"/>
<path style="fill:#535353; stroke:none;" d="M52 159L53 160L52 159z"/>
<path style="fill:#868686; stroke:none;" d="M54 159L55 160L54 159M70 159L71 160L70 159M76 159L77 160L76 159z"/>
<path style="fill:#535353; stroke:none;" d="M134 159L135 160L134 159M142 159L143 160L142 159z"/>
<path style="fill:#9f9f9f; stroke:none;" d="M11.3333 160.667L11.6667 161.333L11.3333 160.667M25 160L26 161L25 160z"/>
<path style="fill:#868686; stroke:none;" d="M45 160L46 161L45 160z"/>
<path style="fill:#535353; stroke:none;" d="M53 160L54 161L53 160M70 160L71 161L70 160z"/>
<path style="fill:#9f9f9f; stroke:none;" d="M76 160L77 161L76 160z"/>
<path style="fill:#535353; stroke:none;" d="M135 160L136 161L135 160M143 160L144 161L143 160z"/>
<path style="fill:#9f9f9f; stroke:none;" d="M24 161L25 162L24 161z"/>
<path style="fill:#868686; stroke:none;" d="M44 161L45 162L44 161z"/>
<path style="fill:#535353; stroke:none;" d="M52 161L53 162L52 161z"/>
<path style="fill:#9f9f9f; stroke:none;" d="M69 161L70 162L69 161z"/>
<path style="fill:#535353; stroke:none;" d="M136 161L137 162L136 161M140 161L141 162L140 161M144 161L145 162L144 161z"/>
<path style="fill:#868686; stroke:none;" d="M147 161L148 162L147 161z"/>
<path style="fill:#535353; stroke:none;" d="M12 162L13 163L12 162M22 162L18 167L22 162z"/>
<path style="fill:#9f9f9f; stroke:none;" d="M23 162L24 163L23 162z"/>
<path style="fill:#868686; stroke:none;" d="M43 162L44 163L43 162z"/>
<path style="fill:#535353; stroke:none;" d="M51 162L52 163L51 162M69 162L70 163L69 162z"/>
<path style="fill:#868686; stroke:none;" d="M75 162L76 163L75 162z"/>
<path style="fill:#535353; stroke:none;" d="M145 162L146 163L145 162z"/>
<path style="fill:#9f9f9f; stroke:none;" d="M12 163L13 164L12 163z"/>
<path style="fill:#535353; stroke:none;" d="M19 163L18 165L19 163z"/>
<path style="fill:#9f9f9f; stroke:none;" d="M22 163L23 164L22 163z"/>
<path style="fill:#868686; stroke:none;" d="M42 163L43 164L42 163z"/>
<path style="fill:#535353; stroke:none;" d="M50 163L51 164L50 163z"/>
<path style="fill:#9f9f9f; stroke:none;" d="M68 163L69 164L68 163M75 163L76 164L75 163M137 163L140 166L137 163z"/>
<path style="fill:#535353; stroke:none;" d="M138 163L139 164L138 163M146 163L147 164L146 163M14 164L15 165L14 164z"/>
<path style="fill:#9f9f9f; stroke:none;" d="M21 164L22 165L21 164z"/>
<path style="fill:#868686; stroke:none;" d="M41 164L42 165L41 164z"/>
<path style="fill:#535353; stroke:none;" d="M47 164L48 165L47 164M49 164L50 165L49 164z"/>
<path style="fill:#868686; stroke:none;" d="M68 164L69 165L68 164z"/>
<path style="fill:#535353; stroke:none;" d="M74 164L75 165L74 164M139 164L140 165L139 164M147 164L148 165L147 164z"/>
<path style="fill:#868686; stroke:none;" d="M181 164L182 165L181 164M13 165L14 166L13 165z"/>
<path style="fill:#9f9f9f; stroke:none;" d="M20 165L21 166L20 165z"/>
<path style="fill:#868686; stroke:none;" d="M40 165L41 166L40 165z"/>
<path style="fill:#535353; stroke:none;" d="M48 165L49 166L48 165z"/>
<path style="fill:#9f9f9f; stroke:none;" d="M67 165L68 166L67 165z"/>
<path style="fill:#868686; stroke:none;" d="M74 165L75 166L74 165z"/>
<path style="fill:#535353; stroke:none;" d="M140 165L141 166L140 165M148 165L149 166L148 165M181 165L180 168L181 165M187 165L188 166L187 165z"/>
<path style="fill:#9f9f9f; stroke:none;" d="M13 166L14 167L13 166M19 166L20 167L19 166z"/>
<path style="fill:#868686; stroke:none;" d="M39 166L40 167L39 166z"/>
<path style="fill:#535353; stroke:none;" d="M41 166L42 167L41 166M47 166L48 167L47 166M67 166L68 167L67 166M69 166L70 167L69 166M73 166L74 167L73 166z"/>
<path style="fill:#9f9f9f; stroke:none;" d="M74 166L75 167L74 166z"/>
<path style="fill:#535353; stroke:none;" d="M141 166L142 167L141 166M149 166L150 167L149 166z"/>
<path style="fill:#868686; stroke:none;" d="M180 166L181 167L180 166M187 166L188 167L187 166z"/>
<path style="fill:#9f9f9f; stroke:none;" d="M14 167L15 168L14 167z"/>
<path style="fill:#535353; stroke:none;" d="M15.6667 167.333L16.3333 167.667L15.6667 167.333z"/>
<path style="fill:#868686; stroke:none;" d="M17 167L18 168L17 167z"/>
<path style="fill:#9f9f9f; stroke:none;" d="M18 167L19 168L18 167z"/>
<path style="fill:#868686; stroke:none;" d="M38 167L39 168L38 167z"/>
<path style="fill:#535353; stroke:none;" d="M46 167L47 168L46 167z"/>
<path style="fill:#868686; stroke:none;" d="M66 167L67 168L66 167M73 167L74 168L73 167z"/>
<path style="fill:#535353; stroke:none;" d="M142 167L146 171L142 167M150 167L151 168L150 167z"/>
<path style="fill:#9f9f9f; stroke:none;" d="M187 167L188 168L187 167z"/>
<path style="fill:#868686; stroke:none;" d="M37 168L38 169L37 168z"/>
<path style="fill:#535353; stroke:none;" d="M45 168L46 169L45 168z"/>
<path style="fill:#9f9f9f; stroke:none;" d="M65 168L66 169L65 168z"/>
<path style="fill:#535353; stroke:none;" d="M72 168L73 169L72 168z"/>
<path style="fill:#9f9f9f; stroke:none;" d="M142 168L143 169L142 168z"/>
<path style="fill:#535353; stroke:none;" d="M151 168L152 169L151 168z"/>
<path style="fill:#868686; stroke:none;" d="M179 168L180 169L179 168z"/>
<path style="fill:#535353; stroke:none;" d="M186 168L187 169L186 168z"/>
<path style="fill:#868686; stroke:none;" d="M36 169L37 170L36 169z"/>
<path style="fill:#535353; stroke:none;" d="M44 169L45 170L44 169z"/>
<path style="fill:#9f9f9f; stroke:none;" d="M64 169L65 170L64 169M72 169L73 170L72 169M143 169L144 170L143 169z"/>
<path style="fill:#535353; stroke:none;" d="M150 169L151 170L150 169M152 169L153 170L152 169z"/>
<path style="fill:#868686; stroke:none;" d="M178 169L179 170L178 169z"/>
<path style="fill:#535353; stroke:none;" d="M184 169L185 170L184 169z"/>
<path style="fill:#9f9f9f; stroke:none;" d="M186 169L187 170L186 169z"/>
<path style="fill:#868686; stroke:none;" d="M35 170L36 171L35 170z"/>
<path style="fill:#535353; stroke:none;" d="M43 170L44 171L43 170M64 170L65 171L64 170M67 170L68 171L67 170M71 170L70 172L71 170z"/>
<path style="fill:#9f9f9f; stroke:none;" d="M144 170L145 171L144 170z"/>
<path style="fill:#535353; stroke:none;" d="M153 170L154 171L153 170z"/>
<path style="fill:#868686; stroke:none;" d="M177 170L178 171L177 170M185 170L186 171L185 170M34 171L35 172L34 171M42 171L43 172L42 171z"/>
<path style="fill:#9f9f9f; stroke:none;" d="M62 171L61 173L62 171z"/>
<path style="fill:#535353; stroke:none;" d="M63 171L64 172L63 171z"/>
<path style="fill:#9f9f9f; stroke:none;" d="M71 171L72 172L71 171z"/>
<path style="fill:#535353; stroke:none;" d="M146 171L149 174L146 171M154 171L155 172L154 171z"/>
<path style="fill:#868686; stroke:none;" d="M176 171L177 172L176 171z"/>
<path style="fill:#535353; stroke:none;" d="M184 171L185 172L184 171z"/>
<path style="fill:#868686; stroke:none;" d="M33 172L34 173L33 172z"/>
<path style="fill:#535353; stroke:none;" d="M41 172L42 173L41 172M62 172L63 173L62 172z"/>
<path style="fill:#9f9f9f; stroke:none;" d="M70 172L71 173L70 172M146 172L147 173L146 172z"/>
<path style="fill:#535353; stroke:none;" d="M155 172L156 173L155 172z"/>
<path style="fill:#868686; stroke:none;" d="M175 172L176 173L175 172z"/>
<path style="fill:#9f9f9f; stroke:none;" d="M184 172L185 173L184 172z"/>
<path style="fill:#868686; stroke:none;" d="M32 173L33 174L32 173z"/>
<path style="fill:#535353; stroke:none;" d="M40 173L41 174L40 173z"/>
<path style="fill:#9f9f9f; stroke:none;" d="M60 173L61 174L60 173z"/>
<path style="fill:#535353; stroke:none;" d="M63 173L64 174L63 173z"/>
<path style="fill:#868686; stroke:none;" d="M69 173L70 174L69 173z"/>
<path style="fill:#9f9f9f; stroke:none;" d="M147 173L148 174L147 173z"/>
<path style="fill:#535353; stroke:none;" d="M156 173L157 174L156 173z"/>
<path style="fill:#868686; stroke:none;" d="M174 173L175 174L174 173z"/>
<path style="fill:#9f9f9f; stroke:none;" d="M183 173L184 174L183 173z"/>
<path style="fill:#868686; stroke:none;" d="M31 174L32 175L31 174M39 174L40 175L39 174M59 174L60 175L59 174M68 174L69 175L68 174z"/>
<path style="fill:#535353; stroke:none;" d="M149 174L151 176L149 174M157 174L159 176L157 174z"/>
<path style="fill:#868686; stroke:none;" d="M158 174L159 175L158 174M173 174L174 175L173 174M182 174L183 175L182 174M30 175L31 176L30 175z"/>
<path style="fill:#535353; stroke:none;" d="M38 175L39 176L38 175z"/>
<path style="fill:#9f9f9f; stroke:none;" d="M57 175L58 176L57 175z"/>
<path style="fill:#535353; stroke:none;" d="M58 175L59 176L58 175M62 175L63 176L62 175z"/>
<path style="fill:#868686; stroke:none;" d="M67 175L68 176L67 175z"/>
<path style="fill:#9f9f9f; stroke:none;" d="M149 175L150 176L149 175z"/>
<path style="fill:#868686; stroke:none;" d="M159 175L160 176L159 175M171 175L172 176L171 175z"/>
<path style="fill:#535353; stroke:none;" d="M172 175L173 176L172 175z"/>
<path style="fill:#9f9f9f; stroke:none;" d="M181 175L182 176L181 175z"/>
<path style="fill:#868686; stroke:none;" d="M29 176L30 177L29 176z"/>
<path style="fill:#535353; stroke:none;" d="M37 176L38 177L37 176z"/>
<path style="fill:#9f9f9f; stroke:none;" d="M55 176L56 177L55 176z"/>
<path style="fill:#535353; stroke:none;" d="M56 176L57 177L56 176z"/>
<path style="fill:#868686; stroke:none;" d="M66 176L67 177L66 176z"/>
<path style="fill:#535353; stroke:none;" d="M151 176L152 177L151 176M160.667 176.333L161.333 176.667L160.667 176.333z"/>
<path style="fill:#868686; stroke:none;" d="M162.667 176.333L163.333 176.667L162.667 176.333M168.667 176.333L169.333 176.667L168.667 176.333z"/>
<path style="fill:#535353; stroke:none;" d="M170 176L171 177L170 176M177 176L178 177L177 176z"/>
<path style="fill:#9f9f9f; stroke:none;" d="M180 176L181 177L180 176z"/>
<path style="fill:#868686; stroke:none;" d="M28 177L29 178L28 177M36 177L38 179L36 177z"/>
<path style="fill:#9f9f9f; stroke:none;" d="M52 177L53 178L52 177z"/>
<path style="fill:#868686; stroke:none;" d="M53 177L54 178L53 177z"/>
<path style="fill:#535353; stroke:none;" d="M54 177L55 178L54 177z"/>
<path style="fill:#9f9f9f; stroke:none;" d="M65 177L66 178L65 177z"/>
<path style="fill:#535353; stroke:none;" d="M152 177L154 179L152 177M164 177L164 178L168 178L164 177z"/>
<path style="fill:#9f9f9f; stroke:none;" d="M179 177L180 178L179 177M27.3333 178.667L27.6667 179.333L27.3333 178.667z"/>
<path style="fill:#535353; stroke:none;" d="M29 178L30 179L29 178M33 178L34 179L33 178M36 178L37 179L36 178z"/>
<path style="fill:#9f9f9f; stroke:none;" d="M38 178L38 179L41 179L38 178M47 178L47 179L50 179L47 178z"/>
<path style="fill:#868686; stroke:none;" d="M50 178L51 179L50 178z"/>
<path style="fill:#535353; stroke:none;" d="M51 178L52 179L51 178M63 178L64 179L63 178z"/>
<path style="fill:#9f9f9f; stroke:none;" d="M64 178L65 179L64 178M152 178L153 179L152 178z"/>
<path style="fill:#535353; stroke:none;" d="M172 178L173 179L172 178z"/>
<path style="fill:#9f9f9f; stroke:none;" d="M178 178L179 179L178 178z"/>
<path style="fill:#535353; stroke:none;" d="M40 179L40 180L48 180L40 179z"/>
<path style="fill:#868686; stroke:none;" d="M62 179L63 180L62 179M154 179L155 180L154 179z"/>
<path style="fill:#535353; stroke:none;" d="M176 179L177 180L176 179z"/>
<path style="fill:#9f9f9f; stroke:none;" d="M177 179L178 180L177 179z"/>
<path style="fill:#535353; stroke:none;" d="M28 180L30 182L28 180M30 180L31 181L30 180M60 180L61 181L60 180z"/>
<path style="fill:#9f9f9f; stroke:none;" d="M61 180L62 181L61 180M155 180L156 181L155 180z"/>
<path style="fill:#535353; stroke:none;" d="M156 180L157 181L156 180z"/>
<path style="fill:#868686; stroke:none;" d="M175 180L176 181L175 180z"/>
<path style="fill:#9f9f9f; stroke:none;" d="M28 181L29 182L28 181z"/>
<path style="fill:#535353; stroke:none;" d="M58 181L59 182L58 181z"/>
<path style="fill:#9f9f9f; stroke:none;" d="M59 181L60 182L59 181M157 181L158 182L157 181z"/>
<path style="fill:#535353; stroke:none;" d="M158 181L159 182L158 181M172 181L173 182L172 181z"/>
<path style="fill:#868686; stroke:none;" d="M173 181L174 182L173 181z"/>
<path style="fill:#9f9f9f; stroke:none;" d="M174 181L175 182L174 181M30 182L31 183L30 182z"/>
<path style="fill:#535353; stroke:none;" d="M31 182L32 183L31 182M37 182L38 183L37 182M56 182L57 183L56 182z"/>
<path style="fill:#9f9f9f; stroke:none;" d="M57 182L58 183L57 182M159 182L160 183L159 182z"/>
<path style="fill:#868686; stroke:none;" d="M160 182L161 183L160 182z"/>
<path style="fill:#535353; stroke:none;" d="M161.667 182.333L162.333 182.667L161.667 182.333M168.667 182.333L169.333 182.667L168.667 182.333z"/>
<path style="fill:#868686; stroke:none;" d="M170 182L171 183L170 182z"/>
<path style="fill:#9f9f9f; stroke:none;" d="M171 182L172 183L171 182M32 183L33 184L32 183z"/>
<path style="fill:#868686; stroke:none;" d="M33 183L34 184L33 183z"/>
<path style="fill:#535353; stroke:none;" d="M34.6667 183.333L35.3333 183.667L34.6667 183.333M53 183L54 184L53 183z"/>
<path style="fill:#868686; stroke:none;" d="M54 183L55 184L54 183z"/>
<path style="fill:#9f9f9f; stroke:none;" d="M55 183L56 184L55 183M163 183L163 184L169 184L163 183M36 184L37 185L36 184z"/>
<path style="fill:#868686; stroke:none;" d="M37 184L38 185L37 184z"/>
<path style="fill:#535353; stroke:none;" d="M38 184L38 185L41 185L38 184M47 184L47 185L50 185L47 184z"/>
<path style="fill:#868686; stroke:none;" d="M50 184L51 185L50 184z"/>
<path style="fill:#9f9f9f; stroke:none;" d="M51.6667 184.333L52.3333 184.667L51.6667 184.333M42 185L42 186L46 186L42 185z"/>
</svg>
