<?xml version="1.0" standalone="yes"?>
<svg xmlns="http://www.w3.org/2000/svg" width="200" height="200">
<path style="fill:#f7f6f6; stroke:none;" d="M0 0L0 200L200 200L200 0L0 0z"/>
<path style="fill:#a4a2a0; stroke:none;" d="M98.6667 15.3333L99.3333 15.6667L98.6667 15.3333z"/>
<path style="fill:#64615e; stroke:none;" d="M100 15L101 16L100 15z"/>
<path style="fill:#a4a2a0; stroke:none;" d="M101.667 15.3333L102.333 15.6667L101.667 15.3333M95 16L96 17L95 16z"/>
<path style="fill:#64615e; stroke:none;" d="M96 16L97 17L96 16z"/>
<path style="fill:#35312e; stroke:none;" d="M97 16L98 17L97 16z"/>
<path style="fill:#1c1714; stroke:none;" d="M66 54L65 54L60 44C52.2638 49.0276 53.0741 75.0546 53 84C61.2274 79.4141 77.3496 70.3633 80 61L73 61L90.9205 34.0401L101 27.6582L112.641 38L132 72L141 68C136.486 53.7401 124.078 37.6593 114.789 26.0039C111.147 21.4332 106.424 16.0245 100 16.2793C86.0072 16.8344 71.3159 42.763 66 54z"/>
<path style="fill:#35312e; stroke:none;" d="M103 16L104 17L103 16z"/>
<path style="fill:#64615e; stroke:none;" d="M104 16L105 17L104 16z"/>
<path style="fill:#a4a2a0; stroke:none;" d="M105 16L106 17L105 16z"/>
<path style="fill:#64615e; stroke:none;" d="M94 17L95 18L94 17M106 17L107 18L106 17z"/>
<path style="fill:#a4a2a0; stroke:none;" d="M92 18L93 19L92 18z"/>
<path style="fill:#35312e; stroke:none;" d="M107 18L109 20L107 18z"/>
<path style="fill:#a4a2a0; stroke:none;" d="M108 18L109 19L108 18z"/>
<path style="fill:#64615e; stroke:none;" d="M91 19L92 20L91 19z"/>
<path style="fill:#35312e; stroke:none;" d="M99 19L99 20L102 20L99 19z"/>
<path style="fill:#a4a2a0; stroke:none;" d="M109 19L110 20L109 19z"/>
<path style="fill:#64615e; stroke:none;" d="M90 20L91 21L90 20z"/>
<path style="fill:#35312e; stroke:none;" d="M96 20L97 21L96 20z"/>
<path style="fill:#a4a2a0; stroke:none;" d="M97 20L98 21L97 20z"/>
<path style="fill:#f7f6f6; stroke:none;" d="M64 61L61 54L60 54L58 75L72 66L72 65L66 65C68.4414 58.5495 72.8257 52.7034 76.6698 47C79.6468 42.5829 82.7222 38.1887 86.0147 34C88.1281 31.3113 90.3025 28.646 93.0147 26.5324C108.697 14.3108 121.742 45.1637 127.694 56C129.883 59.984 131.485 64.469 136 66C128.887 53.1756 120.923 39.2968 111.535 28.0039C108.06 23.8227 102.91 18.8081 97 21.0247C80.7267 27.1286 76.8977 51.0396 64 61z"/>
<path style="fill:#a4a2a0; stroke:none;" d="M102 20L103 21L102 20z"/>
<path style="fill:#64615e; stroke:none;" d="M103 20L104 21L103 20z"/>
<path style="fill:#a4a2a0; stroke:none;" d="M110 20L111 21L110 20z"/>
<path style="fill:#64615e; stroke:none;" d="M89 21L90 22L89 21z"/>
<path style="fill:#35312e; stroke:none;" d="M94 21L95 22L94 21z"/>
<path style="fill:#a4a2a0; stroke:none;" d="M95 21L96 22L95 21M104 21L105 22L104 21z"/>
<path style="fill:#35312e; stroke:none;" d="M105 21L106 22L105 21z"/>
<path style="fill:#a4a2a0; stroke:none;" d="M111 21L112 22L111 21z"/>
<path style="fill:#35312e; stroke:none;" d="M88 22L89 23L88 22z"/>
<path style="fill:#64615e; stroke:none;" d="M93 22L94 23L93 22z"/>
<path style="fill:#a4a2a0; stroke:none;" d="M100.667 22.3333L101.333 22.6667L100.667 22.3333z"/>
<path style="fill:#64615e; stroke:none;" d="M106 22L107 23L106 22z"/>
<path style="fill:#a4a2a0; stroke:none;" d="M112 22L113 23L112 22z"/>
<path style="fill:#64615e; stroke:none;" d="M87 23L88 24L87 23M92 23L93 24L92 23z"/>
<path style="fill:#a4a2a0; stroke:none;" d="M97 23L98 24L97 23z"/>
<path style="fill:#64615e; stroke:none;" d="M98 23L99 24L98 23z"/>
<path style="fill:#35312e; stroke:none;" d="M99 23L100 24L99 23M102 23L103 24L102 23z"/>
<path style="fill:#64615e; stroke:none;" d="M103 23L104 24L103 23z"/>
<path style="fill:#a4a2a0; stroke:none;" d="M104 23L105 24L104 23M107 23L108 24L107 23z"/>
<path style="fill:#35312e; stroke:none;" d="M112 23L113 24L112 23z"/>
<path style="fill:#64615e; stroke:none;" d="M86 24L87 25L86 24M91 24L92 25L91 24z"/>
<path style="fill:#a4a2a0; stroke:none;" d="M95 24L96 25L95 24z"/>
<path style="fill:#35312e; stroke:none;" d="M96 24L97 25L96 24z"/>
<path style="fill:#64615e; stroke:none;" d="M105 24L106 25L105 24z"/>
<path style="fill:#a4a2a0; stroke:none;" d="M108 24L109 25L108 24z"/>
<path style="fill:#35312e; stroke:none;" d="M113 24L114 25L113 24z"/>
<path style="fill:#64615e; stroke:none;" d="M85 25L86 26L85 25M90 25L91 26L90 25M94 25L95 26L94 25z"/>
<path style="fill:#35312e; stroke:none;" d="M97 25L98 26L97 25M106 25L107 26L106 25z"/>
<path style="fill:#a4a2a0; stroke:none;" d="M107 25L108 26L107 25z"/>
<path style="fill:#64615e; stroke:none;" d="M109 25L110 26L109 25M114 25L115 26L114 25z"/>
<path style="fill:#a4a2a0; stroke:none;" d="M84 26L85 27L84 26z"/>
<path style="fill:#64615e; stroke:none;" d="M89 26L90 27L89 26z"/>
<path style="fill:#a4a2a0; stroke:none;" d="M92 26L91 28L92 26z"/>
<path style="fill:#35312e; stroke:none;" d="M93 26L94 27L93 26z"/>
<path style="fill:#a4a2a0; stroke:none;" d="M108 26L109 27L108 26z"/>
<path style="fill:#64615e; stroke:none;" d="M110 26L111 27L110 26z"/>
<path style="fill:#a4a2a0; stroke:none;" d="M115 26L116 27L115 26M83 27L84 28L83 27z"/>
<path style="fill:#64615e; stroke:none;" d="M88 27L89 28L88 27z"/>
<path style="fill:#35312e; stroke:none;" d="M92 27L93 28L92 27z"/>
<path style="fill:#64615e; stroke:none;" d="M98 27L99 28L98 27z"/>
<path style="fill:#a4a2a0; stroke:none;" d="M99 27L99 28L102 28L99 27z"/>
<path style="fill:#64615e; stroke:none;" d="M102 27L103 28L102 27z"/>
<path style="fill:#a4a2a0; stroke:none;" d="M109 27L110 28L109 27z"/>
<path style="fill:#64615e; stroke:none;" d="M111 27L112 28L111 27z"/>
<path style="fill:#a4a2a0; stroke:none;" d="M116 27L117 28L116 27z"/>
<path style="fill:#35312e; stroke:none;" d="M83 28L84 29L83 28M87 28L88 29L87 28z"/>
<path style="fill:#a4a2a0; stroke:none;" d="M90 28L88 31L90 28z"/>
<path style="fill:#64615e; stroke:none;" d="M96 28L97 29L96 28z"/>
<path style="fill:#a4a2a0; stroke:none;" d="M97 28L98 29L97 28M103 28L104 29L103 28z"/>
<path style="fill:#64615e; stroke:none;" d="M104 28L105 29L104 28z"/>
<path style="fill:#35312e; stroke:none;" d="M107 28L108 29L107 28z"/>
<path style="fill:#a4a2a0; stroke:none;" d="M110 28L111 29L110 28z"/>
<path style="fill:#35312e; stroke:none;" d="M112 28L113 29L112 28M116 28L117 29L116 28M82 29L83 30L82 29M86 29L87 30L86 29M90 29L91 30L90 29z"/>
<path style="fill:#a4a2a0; stroke:none;" d="M95 29L96 30L95 29M105 29L106 30L105 29M112 29L113 30L112 29z"/>
<path style="fill:#64615e; stroke:none;" d="M117 29L118 30L117 29M81 30L82 31L81 30z"/>
<path style="fill:#a4a2a0; stroke:none;" d="M86 30L87 31L86 30z"/>
<path style="fill:#35312e; stroke:none;" d="M89 30L90 31L89 30M93 30L94 31L93 30z"/>
<path style="fill:#a4a2a0; stroke:none;" d="M94 30L95 31L94 30M106 30L107 31L106 30z"/>
<path style="fill:#35312e; stroke:none;" d="M111 30L112 31L111 30z"/>
<path style="fill:#a4a2a0; stroke:none;" d="M113 30L114 31L113 30M118 30L119 31L118 30M80 31L81 32L80 31M85 31L86 32L85 31z"/>
<path style="fill:#35312e; stroke:none;" d="M88 31L89 32L88 31z"/>
<path style="fill:#a4a2a0; stroke:none;" d="M93 31L94 32L93 31M107 31L108 32L107 31z"/>
<path style="fill:#64615e; stroke:none;" d="M112 31L113 32L112 31M114 31L115 32L114 31z"/>
<path style="fill:#a4a2a0; stroke:none;" d="M119 31L120 32L119 31M79 32L80 33L79 32z"/>
<path style="fill:#64615e; stroke:none;" d="M84 32L85 33L84 32M87 32L88 33L87 32z"/>
<path style="fill:#a4a2a0; stroke:none;" d="M92 32L93 33L92 32M108 32L109 33L108 32M113 32L114 33L113 32z"/>
<path style="fill:#35312e; stroke:none;" d="M115 32L116 33L115 32M119 32L120 33L119 32M79 33L80 34L79 33M83 33L84 34L83 33z"/>
<path style="fill:#64615e; stroke:none;" d="M86 33L87 34L86 33z"/>
<path style="fill:#a4a2a0; stroke:none;" d="M91 33L92 34L91 33z"/>
<path style="fill:#64615e; stroke:none;" d="M109 33L110 34L109 33z"/>
<path style="fill:#a4a2a0; stroke:none;" d="M115 33L116 34L115 33z"/>
<path style="fill:#64615e; stroke:none;" d="M120 33L121 34L120 33M78 34L79 35L78 34z"/>
<path style="fill:#a4a2a0; stroke:none;" d="M83 34L84 35L83 34M85 34L86 35L85 34M90 34L91 35L90 34z"/>
<path style="fill:#35312e; stroke:none;" d="M110 34L111 35L110 34z"/>
<path style="fill:#64615e; stroke:none;" d="M114 34L115 35L114 34M116 34L117 35L116 34z"/>
<path style="fill:#a4a2a0; stroke:none;" d="M121 34L122 35L121 34M77 35L78 36L77 35z"/>
<path style="fill:#64615e; stroke:none;" d="M82 35L83 36L82 35z"/>
<path style="fill:#a4a2a0; stroke:none;" d="M84 35L85 36L84 35z"/>
<path style="fill:#64615e; stroke:none;" d="M89 35L90 36L89 35z"/>
<path style="fill:#a4a2a0; stroke:none;" d="M110 35L111 36L110 35M115 35L116 36L115 35z"/>
<path style="fill:#35312e; stroke:none;" d="M117 35L118 36L117 35M121 35L122 36L121 35M77 36L78 37L77 36M79 36L80 37L79 36M81 36L82 37L81 36M84 36L85 37L84 36M88 36L89 37L88 36z"/>
<path style="fill:#64615e; stroke:none;" d="M111 36L112 37L111 36z"/>
<path style="fill:#a4a2a0; stroke:none;" d="M117 36L118 37L117 36z"/>
<path style="fill:#64615e; stroke:none;" d="M122 36L123 37L122 36M76 37L77 38L76 37z"/>
<path style="fill:#a4a2a0; stroke:none;" d="M81 37L82 38L81 37z"/>
<path style="fill:#64615e; stroke:none;" d="M83 37L84 38L83 37z"/>
<path style="fill:#a4a2a0; stroke:none;" d="M88 37L89 38L88 37z"/>
<path style="fill:#35312e; stroke:none;" d="M112 37L113 38L112 37z"/>
<path style="fill:#64615e; stroke:none;" d="M116 37L117 38L116 37M118 37L119 38L118 37z"/>
<path style="fill:#a4a2a0; stroke:none;" d="M123 37L124 38L123 37M75 38L76 39L75 38M80 38L81 39L80 38M82 38L83 39L82 38M87 38L88 39L87 38M112 38L113 39L112 38z"/>
<path style="fill:#35312e; stroke:none;" d="M115 38L116 39L115 38z"/>
<path style="fill:#a4a2a0; stroke:none;" d="M117 38L118 39L117 38z"/>
<path style="fill:#35312e; stroke:none;" d="M119 38L120 39L119 38M123 38L124 39L123 38z"/>
<path style="fill:#a4a2a0; stroke:none;" d="M74 39L75 40L74 39z"/>
<path style="fill:#64615e; stroke:none;" d="M79 39L80 40L79 39z"/>
<path style="fill:#35312e; stroke:none;" d="M84 39L85 40L84 39z"/>
<path style="fill:#64615e; stroke:none;" d="M86 39L87 40L86 39M113 39L114 40L113 39z"/>
<path style="fill:#35312e; stroke:none;" d="M117 39L118 40L117 39z"/>
<path style="fill:#a4a2a0; stroke:none;" d="M119 39L120 40L119 39M124 39L125 40L124 39z"/>
<path style="fill:#35312e; stroke:none;" d="M74 40L75 41L74 40z"/>
<path style="fill:#64615e; stroke:none;" d="M81 40L82 41L81 40z"/>
<path style="fill:#35312e; stroke:none;" d="M85 40L86 41L85 40M114 40L115 41L114 40z"/>
<path style="fill:#64615e; stroke:none;" d="M118 40L119 41L118 40M120 40L121 41L120 40z"/>
<path style="fill:#a4a2a0; stroke:none;" d="M73 41L74 42L73 41M78 41L79 42L78 41z"/>
<path style="fill:#64615e; stroke:none;" d="M80 41L81 42L80 41z"/>
<path style="fill:#a4a2a0; stroke:none;" d="M85 41L86 42L85 41M114 41L115 42L114 41M119 41L120 42L119 41z"/>
<path style="fill:#35312e; stroke:none;" d="M125 41L126 42L125 41z"/>
<path style="fill:#a4a2a0; stroke:none;" d="M72 42L73 43L72 42z"/>
<path style="fill:#64615e; stroke:none;" d="M77 42L78 43L77 42z"/>
<path style="fill:#a4a2a0; stroke:none;" d="M79 42L80 43L79 42z"/>
<path style="fill:#64615e; stroke:none;" d="M84 42L85 43L84 42M115 42L116 43L115 42z"/>
<path style="fill:#35312e; stroke:none;" d="M119 42L120 43L119 42z"/>
<path style="fill:#a4a2a0; stroke:none;" d="M121 42L122 43L121 42M126 42L127 43L126 42M59 43L60 44L59 43z"/>
<path style="fill:#35312e; stroke:none;" d="M72 43L73 44L72 43M76 43L77 44L76 43M79 43L80 44L79 43M83 43L84 44L83 43z"/>
<path style="fill:#a4a2a0; stroke:none;" d="M115 43L116 44L115 43M120 43L121 44L120 43z"/>
<path style="fill:#64615e; stroke:none;" d="M122 43L123 44L122 43z"/>
<path style="fill:#35312e; stroke:none;" d="M126 43L127 44L126 43z"/>
<path style="fill:#a4a2a0; stroke:none;" d="M56 44L57 45L56 44z"/>
<path style="fill:#64615e; stroke:none;" d="M57 44L58 45L57 44z"/>
<path style="fill:#35312e; stroke:none;" d="M58 44L59 45L58 44z"/>
<path style="fill:#a4a2a0; stroke:none;" d="M60 44L61 45L60 44z"/>
<path style="fill:#64615e; stroke:none;" d="M71 44L72 45L71 44z"/>
<path style="fill:#a4a2a0; stroke:none;" d="M76 44L77 45L76 44z"/>
<path style="fill:#64615e; stroke:none;" d="M78 44L79 45L78 44z"/>
<path style="fill:#a4a2a0; stroke:none;" d="M83 44L84 45L83 44z"/>
<path style="fill:#64615e; stroke:none;" d="M116 44L117 45L116 44z"/>
<path style="fill:#35312e; stroke:none;" d="M120 44L121 45L120 44z"/>
<path style="fill:#a4a2a0; stroke:none;" d="M122 44L123 45L122 44z"/>
<path style="fill:#64615e; stroke:none;" d="M127 44L128 45L127 44z"/>
<path style="fill:#35312e; stroke:none;" d="M56.3333 45.6667L56.6667 46.3333L56.3333 45.6667M60 45L61 46L60 45z"/>
<path style="fill:#a4a2a0; stroke:none;" d="M70 45L71 46L70 45z"/>
<path style="fill:#64615e; stroke:none;" d="M75 45L76 46L75 45z"/>
<path style="fill:#a4a2a0; stroke:none;" d="M77 45L78 46L77 45z"/>
<path style="fill:#64615e; stroke:none;" d="M82 45L83 46L82 45z"/>
<path style="fill:#35312e; stroke:none;" d="M117 45L118 46L117 45z"/>
<path style="fill:#64615e; stroke:none;" d="M121 45L122 46L121 45M123 45L124 46L123 45z"/>
<path style="fill:#a4a2a0; stroke:none;" d="M128 45L129 46L128 45z"/>
<path style="fill:#64615e; stroke:none;" d="M61 46L62 47L61 46z"/>
<path style="fill:#35312e; stroke:none;" d="M70 46L71 47L70 46M74 46L75 47L74 46M77 46L78 47L77 46M81 46L82 47L81 46z"/>
<path style="fill:#a4a2a0; stroke:none;" d="M117 46L118 47L117 46M122 46L123 47L122 46z"/>
<path style="fill:#35312e; stroke:none;" d="M124 46L125 47L124 46M128 46L129 47L128 46z"/>
<path style="fill:#a4a2a0; stroke:none;" d="M55 47L55 51L56 51L55 47z"/>
<path style="fill:#64615e; stroke:none;" d="M69 47L70 48L69 47z"/>
<path style="fill:#a4a2a0; stroke:none;" d="M74 47L75 48L74 47z"/>
<path style="fill:#64615e; stroke:none;" d="M76 47L77 48L76 47z"/>
<path style="fill:#a4a2a0; stroke:none;" d="M81 47L82 48L81 47z"/>
<path style="fill:#35312e; stroke:none;" d="M118 47L119 48L118 47z"/>
<path style="fill:#64615e; stroke:none;" d="M122 47L123 48L122 47z"/>
<path style="fill:#a4a2a0; stroke:none;" d="M124 47L125 48L124 47z"/>
<path style="fill:#64615e; stroke:none;" d="M129 47L130 48L129 47M62 48L63 49L62 48z"/>
<path style="fill:#a4a2a0; stroke:none;" d="M68 48L69 49L68 48z"/>
<path style="fill:#64615e; stroke:none;" d="M73 48L74 49L73 48z"/>
<path style="fill:#a4a2a0; stroke:none;" d="M75 48L76 49L75 48z"/>
<path style="fill:#64615e; stroke:none;" d="M80 48L81 49L80 48z"/>
<path style="fill:#a4a2a0; stroke:none;" d="M118 48L119 49L118 48M123 48L124 49L123 48z"/>
<path style="fill:#64615e; stroke:none;" d="M125 48L126 49L125 48z"/>
<path style="fill:#a4a2a0; stroke:none;" d="M130 48L131 49L130 48M63 49L64 50L63 49z"/>
<path style="fill:#35312e; stroke:none;" d="M68 49L69 50L68 49M72 49L73 50L72 49M75 49L76 50L75 49M79 49L80 50L79 49z"/>
<path style="fill:#64615e; stroke:none;" d="M119 49L120 50L119 49z"/>
<path style="fill:#35312e; stroke:none;" d="M123 49L124 50L123 49M130 49L131 50L130 49z"/>
<path style="fill:#64615e; stroke:none;" d="M63 50L64 51L63 50M67 50L68 51L67 50z"/>
<path style="fill:#a4a2a0; stroke:none;" d="M72 50L73 51L72 50z"/>
<path style="fill:#64615e; stroke:none;" d="M74 50L75 51L74 50z"/>
<path style="fill:#a4a2a0; stroke:none;" d="M79 50L80 51L79 50M119 50L120 51L119 50M124 50L125 51L124 50M126 50L127 51L126 50M131 50L132 51L131 50z"/>
<path style="fill:#64615e; stroke:none;" d="M55 51L55 54L56 54L55 51z"/>
<path style="fill:#35312e; stroke:none;" d="M59 51L60 52L59 51z"/>
<path style="fill:#a4a2a0; stroke:none;" d="M64 51L65 52L64 51M66 51L67 52L66 51z"/>
<path style="fill:#64615e; stroke:none;" d="M71 51L72 52L71 51z"/>
<path style="fill:#a4a2a0; stroke:none;" d="M73 51L74 52L73 51z"/>
<path style="fill:#64615e; stroke:none;" d="M78 51L79 52L78 51M120 51L121 52L120 51z"/>
<path style="fill:#35312e; stroke:none;" d="M124 51L125 52L124 51z"/>
<path style="fill:#64615e; stroke:none;" d="M127 51L128 52L127 51z"/>
<path style="fill:#35312e; stroke:none;" d="M131 51L132 52L131 51z"/>
<path style="fill:#64615e; stroke:none;" d="M59.6667 52.3333L60.3333 52.6667L59.6667 52.3333z"/>
<path style="fill:#35312e; stroke:none;" d="M64 52L65 53L64 52M66 52L67 53L66 52M68 52L69 53L68 52z"/>
<path style="fill:#64615e; stroke:none;" d="M73 52L74 53L73 52z"/>
<path style="fill:#35312e; stroke:none;" d="M77 52L78 53L77 52M121 52L122 53L121 52z"/>
<path style="fill:#64615e; stroke:none;" d="M125 52L126 53L125 52z"/>
<path style="fill:#a4a2a0; stroke:none;" d="M127 52L128 53L127 52z"/>
<path style="fill:#64615e; stroke:none;" d="M132 52L133 53L132 52z"/>
<path style="fill:#a4a2a0; stroke:none;" d="M59 53L59 56L60 56L61 53L59 53z"/>
<path style="fill:#35312e; stroke:none;" d="M65 53L66 54L65 53z"/>
<path style="fill:#a4a2a0; stroke:none;" d="M70 53L71 54L70 53M72 53L73 54L72 53M77 53L78 54L77 53M121 53L122 54L121 53M126 53L127 54L126 53z"/>
<path style="fill:#64615e; stroke:none;" d="M128 53L129 54L128 53z"/>
<path style="fill:#a4a2a0; stroke:none;" d="M133 53L134 54L133 53z"/>
<path style="fill:#35312e; stroke:none;" d="M55 54L55 57L56 57L55 54z"/>
<path style="fill:#64615e; stroke:none;" d="M61 54L62 55L61 54M69 54L70 55L69 54z"/>
<path style="fill:#a4a2a0; stroke:none;" d="M71 54L72 55L71 54z"/>
<path style="fill:#64615e; stroke:none;" d="M76 54L77 55L76 54z"/>
<path style="fill:#35312e; stroke:none;" d="M122 54L123 55L122 54z"/>
<path style="fill:#64615e; stroke:none;" d="M126 54L127 55L126 54z"/>
<path style="fill:#35312e; stroke:none;" d="M129 54L130 55L129 54M131 54L132 55L131 54M133 54L134 55L133 54z"/>
<path style="fill:#a4a2a0; stroke:none;" d="M61 55L62 56L61 55M69 55L70 56L69 55z"/>
<path style="fill:#64615e; stroke:none;" d="M71 55L72 56L71 55z"/>
<path style="fill:#a4a2a0; stroke:none;" d="M122 55L123 56L122 55M127 55L128 56L127 55M129 55L130 56L129 55z"/>
<path style="fill:#64615e; stroke:none;" d="M134 55L135 56L134 55M62 56L63 57L62 56z"/>
<path style="fill:#a4a2a0; stroke:none;" d="M68 56L69 57L68 56M70 56L71 57L70 56M75 56L76 57L75 56z"/>
<path style="fill:#35312e; stroke:none;" d="M123 56L124 57L123 56M127 56L128 57L127 56z"/>
<path style="fill:#64615e; stroke:none;" d="M130 56L131 57L130 56z"/>
<path style="fill:#a4a2a0; stroke:none;" d="M135 56L136 57L135 56z"/>
<path style="fill:#35312e; stroke:none;" d="M58.3333 57.6667L58.6667 58.3333L58.3333 57.6667M63 57L64 58L63 57M67 57L68 58L67 57M70 57L71 58L70 57z"/>
<path style="fill:#64615e; stroke:none;" d="M74 57L75 58L74 57z"/>
<path style="fill:#a4a2a0; stroke:none;" d="M123 57L124 58L123 57M128 57L129 58L128 57z"/>
<path style="fill:#35312e; stroke:none;" d="M131 57L132 58L131 57M135 57L136 58L135 57z"/>
<path style="fill:#a4a2a0; stroke:none;" d="M54 58L54 61L55 61L54 58M63 58L64 59L63 58M67 58L68 59L67 58z"/>
<path style="fill:#64615e; stroke:none;" d="M69 58L70 59L69 58z"/>
<path style="fill:#a4a2a0; stroke:none;" d="M74 58L75 59L74 58z"/>
<path style="fill:#64615e; stroke:none;" d="M124 58L125 59L124 58z"/>
<path style="fill:#35312e; stroke:none;" d="M128 58L129 59L128 58z"/>
<path style="fill:#a4a2a0; stroke:none;" d="M131 58L132 59L131 58M136 58L137 59L136 58z"/>
<path style="fill:#64615e; stroke:none;" d="M58 59L58 62L59 62L58 59z"/>
<path style="fill:#35312e; stroke:none;" d="M64 59L66 61L64 59z"/>
<path style="fill:#64615e; stroke:none;" d="M66 59L67 60L66 59z"/>
<path style="fill:#a4a2a0; stroke:none;" d="M68 59L69 60L68 59z"/>
<path style="fill:#64615e; stroke:none;" d="M73 59L80 61L80 60L73 59z"/>
<path style="fill:#a4a2a0; stroke:none;" d="M124 59L125 60L124 59z"/>
<path style="fill:#64615e; stroke:none;" d="M129 59L130 60L129 59M132 59L133 60L132 59z"/>
<path style="fill:#a4a2a0; stroke:none;" d="M64 60L65 61L64 60z"/>
<path style="fill:#35312e; stroke:none;" d="M68 60L69 61L68 60z"/>
<path style="fill:#64615e; stroke:none;" d="M125 60L126 61L125 60z"/>
<path style="fill:#a4a2a0; stroke:none;" d="M132 60L133 61L132 60z"/>
<path style="fill:#64615e; stroke:none;" d="M137 60L138 61L137 60M54 61L54 65L55 65L54 61M67 61L68 62L67 61z"/>
<path style="fill:#35312e; stroke:none;" d="M126 61L127 62L126 61z"/>
<path style="fill:#64615e; stroke:none;" d="M130 61L131 62L130 61M133 61L134 62L133 61z"/>
<path style="fill:#a4a2a0; stroke:none;" d="M138 61L139 62L138 61M58 62L58 67L59 67L58 62M66 62L67 63L66 62z"/>
<path style="fill:#35312e; stroke:none;" d="M75 62L76 63L75 62z"/>
<path style="fill:#a4a2a0; stroke:none;" d="M80 62L81 63L80 62M126 62L127 63L126 62M131 62L132 63L131 62z"/>
<path style="fill:#35312e; stroke:none;" d="M134 62L135 63L134 62M138 62L139 63L138 62M66 63L67 64L66 63z"/>
<path style="fill:#64615e; stroke:none;" d="M80 63L81 64L80 63z"/>
<path style="fill:#35312e; stroke:none;" d="M127 63L128 64L127 63z"/>
<path style="fill:#64615e; stroke:none;" d="M131 63L132 64L131 63z"/>
<path style="fill:#a4a2a0; stroke:none;" d="M134 63L135 64L134 63z"/>
<path style="fill:#64615e; stroke:none;" d="M139 63L140 64L139 63z"/>
<path style="fill:#a4a2a0; stroke:none;" d="M66 64L66 65L73 65L66 64z"/>
<path style="fill:#35312e; stroke:none;" d="M73 64L74 65L73 64M79 64L80 65L79 64z"/>
<path style="fill:#a4a2a0; stroke:none;" d="M80 64L81 65L80 64M127 64L128 65L127 64M132 64L133 65L132 64z"/>
<path style="fill:#64615e; stroke:none;" d="M135 64L136 65L135 64z"/>
<path style="fill:#a4a2a0; stroke:none;" d="M140 64L141 65L140 64z"/>
<path style="fill:#35312e; stroke:none;" d="M54.3333 65.6667L54.6667 66.3333L54.3333 65.6667z"/>
<path style="fill:#64615e; stroke:none;" d="M72 65L73 66L72 65M78 65L79 66L78 65z"/>
<path style="fill:#35312e; stroke:none;" d="M128 65L129 66L128 65M132 65L133 66L132 65M136 65L137 66L136 65M140 65L141 66L140 65z"/>
<path style="fill:#a4a2a0; stroke:none;" d="M70 66L71 67L70 66z"/>
<path style="fill:#35312e; stroke:none;" d="M71 66L72 67L71 66z"/>
<path style="fill:#64615e; stroke:none;" d="M77 66L78 67L77 66z"/>
<path style="fill:#a4a2a0; stroke:none;" d="M128 66L129 67L128 66M133.667 66.3333L134.333 66.6667L133.667 66.3333z"/>
<path style="fill:#64615e; stroke:none;" d="M135 66L136 67L135 66M141.333 66.6667L141.667 67.3333L141.333 66.6667z"/>
<path style="fill:#35312e; stroke:none;" d="M57 67L57 70L58 70L57 67z"/>
<path style="fill:#64615e; stroke:none;" d="M69 67L70 68L69 67z"/>
<path style="fill:#a4a2a0; stroke:none;" d="M76 67L77 68L76 67z"/>
<path style="fill:#64615e; stroke:none;" d="M129 67L130 68L129 67z"/>
<path style="fill:#a4a2a0; stroke:none;" d="M53 68L53 72L54 72L53 68z"/>
<path style="fill:#64615e; stroke:none;" d="M68 68L69 69L68 68z"/>
<path style="fill:#35312e; stroke:none;" d="M74 68L75 69L74 68z"/>
<path style="fill:#a4a2a0; stroke:none;" d="M129 68L130 69L129 68z"/>
<path style="fill:#35312e; stroke:none;" d="M139 68L140 69L139 68z"/>
<path style="fill:#a4a2a0; stroke:none;" d="M140 68L141 69L140 68M66 69L67 70L66 69z"/>
<path style="fill:#35312e; stroke:none;" d="M67 69L68 70L67 69z"/>
<path style="fill:#64615e; stroke:none;" d="M73 69L74 70L73 69M130 69L131 70L130 69M137 69L138 70L137 69z"/>
<path style="fill:#a4a2a0; stroke:none;" d="M138 69L139 70L138 69z"/>
<path style="fill:#64615e; stroke:none;" d="M57 70L57 73L58 73L57 70M65 70L66 71L65 70z"/>
<path style="fill:#35312e; stroke:none;" d="M71 70L72 71L71 70z"/>
<path style="fill:#a4a2a0; stroke:none;" d="M72 70L73 71L72 70z"/>
<path style="fill:#35312e; stroke:none;" d="M135 70L136 71L135 70z"/>
<path style="fill:#a4a2a0; stroke:none;" d="M136 70L137 71L136 70z"/>
<path style="fill:#35312e; stroke:none;" d="M64 71L65 72L64 71M70 71L71 72L70 71z"/>
<path style="fill:#a4a2a0; stroke:none;" d="M131 71L132 72L131 71z"/>
<path style="fill:#64615e; stroke:none;" d="M133 71L134 72L133 71z"/>
<path style="fill:#a4a2a0; stroke:none;" d="M134 71L135 72L134 71z"/>
<path style="fill:#64615e; stroke:none;" d="M53 72L53 75L54 75L53 72z"/>
<path style="fill:#a4a2a0; stroke:none;" d="M62 72L63 73L62 72z"/>
<path style="fill:#35312e; stroke:none;" d="M63 72L64 73L63 72z"/>
<path style="fill:#64615e; stroke:none;" d="M69 72L70 73L69 72z"/>
<path style="fill:#a4a2a0; stroke:none;" d="M132 72L133 73L132 72M57 73L59 76L57 73z"/>
<path style="fill:#64615e; stroke:none;" d="M61 73L62 74L61 73z"/>
<path style="fill:#a4a2a0; stroke:none;" d="M68 73L69 74L68 73z"/>
<path style="fill:#35312e; stroke:none;" d="M60 74L61 75L60 74z"/>
<path style="fill:#64615e; stroke:none;" d="M66 74L67 75L66 74z"/>
<path style="fill:#35312e; stroke:none;" d="M53.3333 75.6667L53.6667 76.3333L53.3333 75.6667M59 75L60 76L59 75z"/>
<path style="fill:#64615e; stroke:none;" d="M65 75L66 76L65 75M57 76L58 77L57 76z"/>
<path style="fill:#35312e; stroke:none;" d="M60 76L61 77L60 76M63 76L64 77L63 76z"/>
<path style="fill:#a4a2a0; stroke:none;" d="M64 76L65 77L64 76z"/>
<path style="fill:#64615e; stroke:none;" d="M62 77L63 78L62 77z"/>
<path style="fill:#a4a2a0; stroke:none;" d="M52 78L52 82L53 82L52 78z"/>
<path style="fill:#64615e; stroke:none;" d="M61 78L62 79L61 78z"/>
<path style="fill:#a4a2a0; stroke:none;" d="M60 79L61 80L60 79z"/>
<path style="fill:#35312e; stroke:none;" d="M58 80L59 81L58 80z"/>
<path style="fill:#a4a2a0; stroke:none;" d="M59 80L60 81L59 80z"/>
<path style="fill:#64615e; stroke:none;" d="M57 81L58 82L57 81M52 82L54 85L52 82z"/>
<path style="fill:#35312e; stroke:none;" d="M55 82L56 83L55 82z"/>
<path style="fill:#a4a2a0; stroke:none;" d="M56 82L57 83L56 82z"/>
<path style="fill:#64615e; stroke:none;" d="M54 83L55 84L54 83z"/>
<path style="fill:#a4a2a0; stroke:none;" d="M52 85L53 86L52 85M147.333 86.6667L147.667 87.3333L147.333 86.6667z"/>
<path style="fill:#64615e; stroke:none;" d="M148 86L149 87L148 86z"/>
<path style="fill:#1c1714; stroke:none;" d="M148 87L152 121L156 122L159 116C163.913 124.418 181.554 149.953 171.852 158.581C162.9 166.543 143.806 162.017 133 162C129.675 161.995 123.382 160.828 120.603 163.028C118.254 164.888 119.002 169.374 119 172C134.038 172 149.02 171.049 164 170.025C170.433 169.585 179.253 168.73 183.258 162.895C186.188 158.625 184.869 152.606 183.572 148C180.171 135.932 174.304 123.8 168 113L180 113C178.43 103.292 156.476 91.2165 148 87z"/>
<path style="fill:#35312e; stroke:none;" d="M149 87L150 88L149 87M148.333 88.6667L148.667 89.3333L148.333 88.6667z"/>
<path style="fill:#a4a2a0; stroke:none;" d="M151 88L152 89L151 88z"/>
<path style="fill:#64615e; stroke:none;" d="M152 89L153 90L152 89M148 90L148 93L149 93L148 90z"/>
<path style="fill:#35312e; stroke:none;" d="M153 90L154 91L153 90z"/>
<path style="fill:#a4a2a0; stroke:none;" d="M154 90L155 91L154 90z"/>
<path style="fill:#64615e; stroke:none;" d="M155 91L156 92L155 91z"/>
<path style="fill:#35312e; stroke:none;" d="M156 92L157 93L156 92z"/>
<path style="fill:#a4a2a0; stroke:none;" d="M157 92L158 93L157 92M148 93L148 96L149 96L148 93M158 93L159 94L158 93z"/>
<path style="fill:#35312e; stroke:none;" d="M153 94L152 96L153 94z"/>
<path style="fill:#64615e; stroke:none;" d="M159 94L160 95L159 94z"/>
<path style="fill:#a4a2a0; stroke:none;" d="M153 95L154 96L153 95z"/>
<path style="fill:#64615e; stroke:none;" d="M154 95L155 96L154 95z"/>
<path style="fill:#35312e; stroke:none;" d="M160 95L161 96L160 95z"/>
<path style="fill:#a4a2a0; stroke:none;" d="M161 95L162 96L161 95z"/>
<path style="fill:#35312e; stroke:none;" d="M149.333 96.6667L149.667 97.3333L149.333 96.6667z"/>
<path style="fill:#f7f6f6; stroke:none;" d="M153 96L155 113L159 108C166.073 119.557 172.659 132.132 176.996 145C179.789 153.287 179.334 160.818 170 164L170 165C179.93 163.976 182.227 156.862 179.841 148C176.122 134.187 167.461 122.116 162 109L172 109L172 108L153 96z"/>
<path style="fill:#a4a2a0; stroke:none;" d="M155 96L156 97L155 96z"/>
<path style="fill:#64615e; stroke:none;" d="M162 96L163 97L162 96z"/>
<path style="fill:#a4a2a0; stroke:none;" d="M153 97L153 100L154 100L153 97M156 97L157 98L156 97z"/>
<path style="fill:#35312e; stroke:none;" d="M157 97L158 98L157 97M163 97L164 98L163 97z"/>
<path style="fill:#a4a2a0; stroke:none;" d="M164 97L165 98L164 97M39.6667 98.3333L40.3333 98.6667L39.6667 98.3333z"/>
<path style="fill:#64615e; stroke:none;" d="M149 98L149 101L150 101L149 98M158 98L159 99L158 98z"/>
<path style="fill:#a4a2a0; stroke:none;" d="M165 98L166 99L165 98z"/>
<path style="fill:#35312e; stroke:none;" d="M39 99L40 100L39 99z"/>
<path style="fill:#1c1714; stroke:none;" d="M40 99C32.2304 112.175 24.738 125.936 18.7199 140C16.2509 145.77 12.9174 153.81 16.179 159.957C22.7053 172.257 54.0863 170.999 66 171L61 182C70.6807 184.011 90.8789 172.457 99 167C92.5868 163.965 62.778 147.244 68 162C58.3904 162 26.7753 164.479 24.8735 150.996C24.1995 146.218 27.6941 141.057 29.7562 137C35.3071 126.079 44.5398 115.763 48 104L40 99z"/>
<path style="fill:#64615e; stroke:none;" d="M41 99L42 100L41 99z"/>
<path style="fill:#a4a2a0; stroke:none;" d="M159 99L160 100L159 99z"/>
<path style="fill:#35312e; stroke:none;" d="M160 99L161 100L160 99M162 99L163 100L162 99z"/>
<path style="fill:#64615e; stroke:none;" d="M166 99L167 100L166 99z"/>
<path style="fill:#a4a2a0; stroke:none;" d="M38 100L39 101L38 100z"/>
<path style="fill:#35312e; stroke:none;" d="M42 100L43 101L42 100z"/>
<path style="fill:#a4a2a0; stroke:none;" d="M43 100L44 101L43 100z"/>
<path style="fill:#64615e; stroke:none;" d="M153 100L153 103L154 103L153 100M161 100L162 101L161 100z"/>
<path style="fill:#35312e; stroke:none;" d="M167 100L168 101L167 100z"/>
<path style="fill:#a4a2a0; stroke:none;" d="M168 100L169 101L168 100z"/>
<path style="fill:#35312e; stroke:none;" d="M38 101L39 102L38 101z"/>
<path style="fill:#64615e; stroke:none;" d="M44 101L45 102L44 101z"/>
<path style="fill:#a4a2a0; stroke:none;" d="M149 101L149 104L150 104L149 101M162 101L163 102L162 101z"/>
<path style="fill:#64615e; stroke:none;" d="M169 101L170 102L169 101z"/>
<path style="fill:#a4a2a0; stroke:none;" d="M37 102L38 103L37 102z"/>
<path style="fill:#35312e; stroke:none;" d="M45 102L46 103L45 102z"/>
<path style="fill:#a4a2a0; stroke:none;" d="M46 102L47 103L46 102M163 102L164 103L163 102z"/>
<path style="fill:#35312e; stroke:none;" d="M164 102L165 103L164 102M170 102L171 103L170 102z"/>
<path style="fill:#a4a2a0; stroke:none;" d="M171 102L172 103L171 102z"/>
<path style="fill:#35312e; stroke:none;" d="M37 103L38 104L37 103z"/>
<path style="fill:#64615e; stroke:none;" d="M47 103L48 104L47 103z"/>
<path style="fill:#35312e; stroke:none;" d="M153.333 103.667L153.667 104.333L153.333 103.667z"/>
<path style="fill:#64615e; stroke:none;" d="M165 103L166 104L165 103z"/>
<path style="fill:#a4a2a0; stroke:none;" d="M172 103L173 104L172 103z"/>
<path style="fill:#64615e; stroke:none;" d="M36 104L37 105L36 104z"/>
<path style="fill:#a4a2a0; stroke:none;" d="M41 104L42 105L41 104z"/>
<path style="fill:#35312e; stroke:none;" d="M42 104L43 105L42 104M48 104L49 105L48 104z"/>
<path style="fill:#a4a2a0; stroke:none;" d="M166 104L167 105L166 104z"/>
<path style="fill:#35312e; stroke:none;" d="M167 104L168 105L167 104z"/>
<path style="fill:#64615e; stroke:none;" d="M173 104L174 105L173 104z"/>
<path style="fill:#35312e; stroke:none;" d="M36 105L37 106L36 105M38 105L39 106L38 105z"/>
<path style="fill:#64615e; stroke:none;" d="M40 105L41 106L40 105z"/>
<path style="fill:#f7f6f6; stroke:none;" d="M41 105L24 138L25 138L43 105L41 105z"/>
<path style="fill:#64615e; stroke:none;" d="M43 105L44 106L43 105z"/>
<path style="fill:#a4a2a0; stroke:none;" d="M48 105L49 106L48 105z"/>
<path style="fill:#35312e; stroke:none;" d="M150.333 105.667L150.667 106.333L150.333 105.667z"/>
<path style="fill:#a4a2a0; stroke:none;" d="M154 105L154 108L155 108L154 105z"/>
<path style="fill:#64615e; stroke:none;" d="M168 105L169 106L168 105z"/>
<path style="fill:#35312e; stroke:none;" d="M174 105L175 106L174 105z"/>
<path style="fill:#a4a2a0; stroke:none;" d="M175 105L176 106L175 105z"/>
<path style="fill:#64615e; stroke:none;" d="M35 106L36 107L35 106z"/>
<path style="fill:#35312e; stroke:none;" d="M39 106L40 107L39 106M43 106L44 107L43 106M47 106L48 107L47 106z"/>
<path style="fill:#a4a2a0; stroke:none;" d="M169 106L170 107L169 106z"/>
<path style="fill:#64615e; stroke:none;" d="M176 106L177 107L176 106M39 107L40 108L39 107z"/>
<path style="fill:#a4a2a0; stroke:none;" d="M42 107L43 108L42 107M47 107L48 108L47 107z"/>
<path style="fill:#64615e; stroke:none;" d="M150.333 107.667L150.667 108.333L150.333 107.667z"/>
<path style="fill:#a4a2a0; stroke:none;" d="M170 107L171 108L170 107z"/>
<path style="fill:#35312e; stroke:none;" d="M171 107L172 108L171 107M177 107L178 108L177 107z"/>
<path style="fill:#a4a2a0; stroke:none;" d="M178 107L179 108L178 107z"/>
<path style="fill:#64615e; stroke:none;" d="M34 108L35 109L34 108z"/>
<path style="fill:#35312e; stroke:none;" d="M38 108L39 109L38 108M42 108L43 109L42 108z"/>
<path style="fill:#64615e; stroke:none;" d="M46 108L47 109L46 108M154 108L154 111L155 111L154 108z"/>
<path style="fill:#a4a2a0; stroke:none;" d="M159 108L160 109L159 108z"/>
<path style="fill:#64615e; stroke:none;" d="M172 108L164 109L164 110L172 108z"/>
<path style="fill:#a4a2a0; stroke:none;" d="M179 108L180 109L179 108M33 109L34 110L33 109M38 109L39 110L38 109z"/>
<path style="fill:#64615e; stroke:none;" d="M41 109L42 110L41 109z"/>
<path style="fill:#35312e; stroke:none;" d="M43 109L44 110L43 109z"/>
<path style="fill:#a4a2a0; stroke:none;" d="M150 109L150 112L151 112L150 109M158 109L159 110L158 109z"/>
<path style="fill:#64615e; stroke:none;" d="M162 109L163 110L162 109z"/>
<path style="fill:#35312e; stroke:none;" d="M163 109L164 110L163 109M173 109L174 110L173 109z"/>
<path style="fill:#64615e; stroke:none;" d="M180 109L181 110L180 109M33 110L34 111L33 110z"/>
<path style="fill:#35312e; stroke:none;" d="M37 110L38 111L37 110z"/>
<path style="fill:#a4a2a0; stroke:none;" d="M40 110L41 111L40 110z"/>
<path style="fill:#64615e; stroke:none;" d="M45 110L46 111L45 110z"/>
<path style="fill:#35312e; stroke:none;" d="M158 110L159 111L158 110z"/>
<path style="fill:#64615e; stroke:none;" d="M160 110L161 111L160 110z"/>
<path style="fill:#a4a2a0; stroke:none;" d="M162 110L163 111L162 110z"/>
<path style="fill:#35312e; stroke:none;" d="M180 110L181 111L180 110z"/>
<path style="fill:#a4a2a0; stroke:none;" d="M32 111L33 112L32 111M37 111L38 112L37 111z"/>
<path style="fill:#35312e; stroke:none;" d="M40 111L41 112L40 111M44 111L45 112L44 111M154 111L154 114L155 114L154 111z"/>
<path style="fill:#64615e; stroke:none;" d="M157 111L158 112L157 111z"/>
<path style="fill:#35312e; stroke:none;" d="M163 111L164 112L163 111z"/>
<path style="fill:#64615e; stroke:none;" d="M180 111L181 112L180 111M32 112L33 113L32 112z"/>
<path style="fill:#35312e; stroke:none;" d="M36 112L37 113L36 112z"/>
<path style="fill:#a4a2a0; stroke:none;" d="M39 112L40 113L39 112M44 112L45 113L44 112M156 112L155 114L156 112z"/>
<path style="fill:#64615e; stroke:none;" d="M161 112L162 113L161 112z"/>
<path style="fill:#a4a2a0; stroke:none;" d="M163 112L164 113L163 112M180 112L181 113L180 112M31 113L32 114L31 113M36 113L37 114L36 113z"/>
<path style="fill:#35312e; stroke:none;" d="M39 113L40 114L39 113z"/>
<path style="fill:#64615e; stroke:none;" d="M43 113L44 114L43 113z"/>
<path style="fill:#35312e; stroke:none;" d="M151.333 113.667L151.667 114.333L151.333 113.667z"/>
<path style="fill:#64615e; stroke:none;" d="M156 113L157 114L156 113z"/>
<path style="fill:#a4a2a0; stroke:none;" d="M162 113L163 114L162 113z"/>
<path style="fill:#35312e; stroke:none;" d="M164 113L165 114L164 113M168 113L169 114L168 113z"/>
<path style="fill:#a4a2a0; stroke:none;" d="M169 115L180 114C176.612 112.578 171.554 112.077 169 115z"/>
<path style="fill:#35312e; stroke:none;" d="M31 114L32 115L31 114M35 114L36 115L35 114z"/>
<path style="fill:#64615e; stroke:none;" d="M38 114L39 115L38 114M155 114L156 115L155 114M162 114L163 115L162 114z"/>
<path style="fill:#a4a2a0; stroke:none;" d="M164 114L165 115L164 114M30 115L31 116L30 115M35 115L36 116L35 115M37 115L38 116L37 115M42 115L43 116L42 115z"/>
<path style="fill:#64615e; stroke:none;" d="M151 115L151 118L152 118L151 115z"/>
<path style="fill:#a4a2a0; stroke:none;" d="M163 115L164 116L163 115z"/>
<path style="fill:#35312e; stroke:none;" d="M165 115L166 116L165 115M169 115L170 116L169 115M30 116L31 117L30 116z"/>
<path style="fill:#64615e; stroke:none;" d="M34 116L35 117L34 116z"/>
<path style="fill:#35312e; stroke:none;" d="M37 116L38 117L37 116M41 116L42 117L41 116M159 116L160 117L159 116z"/>
<path style="fill:#64615e; stroke:none;" d="M163 116L164 117L163 116z"/>
<path style="fill:#a4a2a0; stroke:none;" d="M165 116L166 117L165 116M170 116L171 117L170 116M29 117L30 118L29 117M34 117L35 118L34 117M36 117L37 118L36 117M41 117L42 118L41 117z"/>
<path style="fill:#64615e; stroke:none;" d="M158 117L159 118L158 117z"/>
<path style="fill:#a4a2a0; stroke:none;" d="M159 117L160 118L159 117M164 117L165 118L164 117z"/>
<path style="fill:#35312e; stroke:none;" d="M166 117L167 118L166 117M170 117L171 118L170 117M29 118L30 119L29 118z"/>
<path style="fill:#64615e; stroke:none;" d="M33 118L34 119L33 118z"/>
<path style="fill:#35312e; stroke:none;" d="M36 118L37 119L36 118z"/>
<path style="fill:#64615e; stroke:none;" d="M40 118L41 119L40 118z"/>
<path style="fill:#a4a2a0; stroke:none;" d="M151 118L151 121L152 121L151 118z"/>
<path style="fill:#35312e; stroke:none;" d="M160 118L161 119L160 118z"/>
<path style="fill:#64615e; stroke:none;" d="M164 118L165 119L164 118z"/>
<path style="fill:#a4a2a0; stroke:none;" d="M166 118L167 119L166 118M171 118L172 119L171 118M28 119L29 120L28 119M33 119L34 120L33 119z"/>
<path style="fill:#64615e; stroke:none;" d="M35 119L36 120L35 119z"/>
<path style="fill:#a4a2a0; stroke:none;" d="M157 119L158 120L157 119M160 119L161 120L160 119M165 119L166 120L165 119z"/>
<path style="fill:#64615e; stroke:none;" d="M167 119L168 120L167 119z"/>
<path style="fill:#35312e; stroke:none;" d="M171 119L172 120L171 119M28 120L29 121L28 120z"/>
<path style="fill:#64615e; stroke:none;" d="M32 120L33 121L32 120z"/>
<path style="fill:#a4a2a0; stroke:none;" d="M34 120L35 121L34 120M39 120L40 121L39 120z"/>
<path style="fill:#35312e; stroke:none;" d="M156 120L157 121L156 120M161 120L162 121L161 120z"/>
<path style="fill:#64615e; stroke:none;" d="M165 120L166 121L165 120z"/>
<path style="fill:#a4a2a0; stroke:none;" d="M167 120L168 121L167 120M172 120L173 121L172 120M27 121L28 122L27 121M32 121L33 122L32 121z"/>
<path style="fill:#35312e; stroke:none;" d="M34 121L35 122L34 121M38 121L39 122L38 121z"/>
<path style="fill:#64615e; stroke:none;" d="M152 121L153 122L152 121z"/>
<path style="fill:#35312e; stroke:none;" d="M153.667 121.333L154.333 121.667L153.667 121.333z"/>
<path style="fill:#a4a2a0; stroke:none;" d="M156 121L157 122L156 121M161 121L162 122L161 121M166 121L167 122L166 121z"/>
<path style="fill:#64615e; stroke:none;" d="M168 121L169 122L168 121M172 121L173 122L172 121z"/>
<path style="fill:#35312e; stroke:none;" d="M27 122L28 123L27 122z"/>
<path style="fill:#64615e; stroke:none;" d="M31 122L32 123L31 122z"/>
<path style="fill:#a4a2a0; stroke:none;" d="M33 122L34 123L33 122M38 122L39 123L38 122M155 122L156 123L155 122z"/>
<path style="fill:#64615e; stroke:none;" d="M162 122L163 123L162 122z"/>
<path style="fill:#35312e; stroke:none;" d="M166 122L167 123L166 122z"/>
<path style="fill:#a4a2a0; stroke:none;" d="M168 122L169 123L168 122M173 122L174 123L173 122z"/>
<path style="fill:#64615e; stroke:none;" d="M26 123L27 124L26 123z"/>
<path style="fill:#35312e; stroke:none;" d="M30 123L31 124L30 123M33 123L34 124L33 123z"/>
<path style="fill:#64615e; stroke:none;" d="M37 123L38 124L37 123z"/>
<path style="fill:#a4a2a0; stroke:none;" d="M162 123L163 124L162 123M167 123L168 124L167 123z"/>
<path style="fill:#64615e; stroke:none;" d="M169 123L170 124L169 123M173 123L174 124L173 123M30 124L31 125L30 124M32 124L33 125L32 124z"/>
<path style="fill:#35312e; stroke:none;" d="M36 124L37 125L36 124z"/>
<path style="fill:#64615e; stroke:none;" d="M163 124L164 125L163 124M167 124L168 125L167 124z"/>
<path style="fill:#a4a2a0; stroke:none;" d="M169 124L170 125L169 124M174 124L175 125L174 124z"/>
<path style="fill:#64615e; stroke:none;" d="M25 125L26 126L25 125z"/>
<path style="fill:#35312e; stroke:none;" d="M29 125L30 126L29 125z"/>
<path style="fill:#a4a2a0; stroke:none;" d="M31 125L32 126L31 125z"/>
<path style="fill:#64615e; stroke:none;" d="M36 125L37 126L36 125z"/>
<path style="fill:#a4a2a0; stroke:none;" d="M163 125L164 126L163 125M168 125L169 126L168 125z"/>
<path style="fill:#64615e; stroke:none;" d="M170 125L171 126L170 125M174 125L175 126L174 125z"/>
<path style="fill:#a4a2a0; stroke:none;" d="M24 126L25 127L24 126M29 126L30 127L29 126z"/>
<path style="fill:#64615e; stroke:none;" d="M31 126L32 127L31 126z"/>
<path style="fill:#35312e; stroke:none;" d="M35 126L36 127L35 126z"/>
<path style="fill:#64615e; stroke:none;" d="M164 126L165 127L164 126z"/>
<path style="fill:#35312e; stroke:none;" d="M166 126L167 127L166 126z"/>
<path style="fill:#64615e; stroke:none;" d="M168 126L169 127L168 126z"/>
<path style="fill:#a4a2a0; stroke:none;" d="M170 126L171 127L170 126M175 126L176 127L175 126z"/>
<path style="fill:#64615e; stroke:none;" d="M24 127L25 128L24 127z"/>
<path style="fill:#35312e; stroke:none;" d="M28 127L29 128L28 127z"/>
<path style="fill:#a4a2a0; stroke:none;" d="M30 127L31 128L30 127M35 127L36 128L35 127M164 127L165 128L164 127M169 127L170 128L169 127z"/>
<path style="fill:#64615e; stroke:none;" d="M171 127L172 128L171 127M175 127L176 128L175 127z"/>
<path style="fill:#a4a2a0; stroke:none;" d="M23 128L24 129L23 128M28 128L29 129L28 128z"/>
<path style="fill:#35312e; stroke:none;" d="M30 128L31 129L30 128z"/>
<path style="fill:#64615e; stroke:none;" d="M34 128L35 129L34 128M165 128L166 129L165 128M169 128L170 129L169 128z"/>
<path style="fill:#a4a2a0; stroke:none;" d="M171 128L172 129L171 128M176 128L177 129L176 128z"/>
<path style="fill:#64615e; stroke:none;" d="M23 129L24 130L23 129z"/>
<path style="fill:#35312e; stroke:none;" d="M27 129L28 130L27 129z"/>
<path style="fill:#a4a2a0; stroke:none;" d="M29 129L30 130L29 129M34 129L35 130L34 129M165 129L166 130L165 129M170 129L171 130L170 129z"/>
<path style="fill:#64615e; stroke:none;" d="M172 129L173 130L172 129M176 129L177 130L176 129z"/>
<path style="fill:#a4a2a0; stroke:none;" d="M22 130L23 131L22 130M27 130L28 131L27 130z"/>
<path style="fill:#35312e; stroke:none;" d="M29 130L30 131L29 130z"/>
<path style="fill:#64615e; stroke:none;" d="M33 130L34 131L33 130M166 130L167 131L166 130z"/>
<path style="fill:#35312e; stroke:none;" d="M168 130L169 131L168 130z"/>
<path style="fill:#64615e; stroke:none;" d="M170 130L171 131L170 130z"/>
<path style="fill:#a4a2a0; stroke:none;" d="M172 130L173 131L172 130M177 130L178 131L177 130z"/>
<path style="fill:#64615e; stroke:none;" d="M22 131L23 132L22 131z"/>
<path style="fill:#35312e; stroke:none;" d="M26 131L27 132L26 131z"/>
<path style="fill:#64615e; stroke:none;" d="M28 131L29 132L28 131z"/>
<path style="fill:#35312e; stroke:none;" d="M32 131L33 132L32 131z"/>
<path style="fill:#a4a2a0; stroke:none;" d="M166 131L167 132L166 131M171 131L172 132L171 131z"/>
<path style="fill:#35312e; stroke:none;" d="M173 131L174 132L173 131z"/>
<path style="fill:#64615e; stroke:none;" d="M177 131L178 132L177 131z"/>
<path style="fill:#a4a2a0; stroke:none;" d="M21 132L22 133L21 132M26 132L27 133L26 132z"/>
<path style="fill:#35312e; stroke:none;" d="M28 132L29 133L28 132z"/>
<path style="fill:#a4a2a0; stroke:none;" d="M32 132L33 133L32 132z"/>
<path style="fill:#64615e; stroke:none;" d="M167 132L168 133L167 132M171 132L172 133L171 132z"/>
<path style="fill:#a4a2a0; stroke:none;" d="M173 132L174 133L173 132z"/>
<path style="fill:#35312e; stroke:none;" d="M177 132L178 133L177 132z"/>
<path style="fill:#64615e; stroke:none;" d="M21 133L22 134L21 133z"/>
<path style="fill:#35312e; stroke:none;" d="M25 133L26 134L25 133z"/>
<path style="fill:#64615e; stroke:none;" d="M27 133L28 134L27 133z"/>
<path style="fill:#35312e; stroke:none;" d="M31 133L32 134L31 133z"/>
<path style="fill:#a4a2a0; stroke:none;" d="M167 133L168 134L167 133M172 133L173 134L172 133z"/>
<path style="fill:#35312e; stroke:none;" d="M174 133L175 134L174 133z"/>
<path style="fill:#64615e; stroke:none;" d="M178 133L179 134L178 133z"/>
<path style="fill:#a4a2a0; stroke:none;" d="M20 134L21 135L20 134M25 134L26 135L25 134M31 134L32 135L31 134z"/>
<path style="fill:#64615e; stroke:none;" d="M168 134L169 135L168 134M172 134L173 135L172 134z"/>
<path style="fill:#a4a2a0; stroke:none;" d="M174 134L175 135L174 134z"/>
<path style="fill:#35312e; stroke:none;" d="M178 134L179 135L178 134z"/>
<path style="fill:#64615e; stroke:none;" d="M20 135L21 136L20 135z"/>
<path style="fill:#35312e; stroke:none;" d="M24 135L25 136L24 135z"/>
<path style="fill:#64615e; stroke:none;" d="M26 135L27 136L26 135M30 135L31 136L30 135z"/>
<path style="fill:#a4a2a0; stroke:none;" d="M168 135L169 136L168 135z"/>
<path style="fill:#35312e; stroke:none;" d="M175 135L176 136L175 135z"/>
<path style="fill:#a4a2a0; stroke:none;" d="M179 135L180 136L179 135M24 136L25 137L24 136M30 136L31 137L30 136z"/>
<path style="fill:#64615e; stroke:none;" d="M169 136L170 137L169 136M173 136L174 137L173 136z"/>
<path style="fill:#a4a2a0; stroke:none;" d="M175 136L176 137L175 136z"/>
<path style="fill:#35312e; stroke:none;" d="M179 136L180 137L179 136z"/>
<path style="fill:#64615e; stroke:none;" d="M19 137L20 138L19 137z"/>
<path style="fill:#35312e; stroke:none;" d="M23 137L24 138L23 137z"/>
<path style="fill:#64615e; stroke:none;" d="M25 137L26 138L25 137M29 137L30 138L29 137z"/>
<path style="fill:#a4a2a0; stroke:none;" d="M169 137L170 138L169 137z"/>
<path style="fill:#35312e; stroke:none;" d="M173 137L174 138L173 137M176 137L177 138L176 137z"/>
<path style="fill:#a4a2a0; stroke:none;" d="M180 137L181 138L180 137z"/>
<path style="fill:#35312e; stroke:none;" d="M19 138L20 139L19 138z"/>
<path style="fill:#a4a2a0; stroke:none;" d="M23.6667 138.333L24.3333 138.667L23.6667 138.333M29 138L30 139L29 138z"/>
<path style="fill:#64615e; stroke:none;" d="M170 138L171 139L170 138z"/>
<path style="fill:#a4a2a0; stroke:none;" d="M174 138L175 139L174 138z"/>
<path style="fill:#64615e; stroke:none;" d="M176 138L177 139L176 138M180 138L181 139L180 138z"/>
<path style="fill:#a4a2a0; stroke:none;" d="M18 139L19 140L18 139z"/>
<path style="fill:#35312e; stroke:none;" d="M22 139L23 140L22 139z"/>
<path style="fill:#f7f6f6; stroke:none;" d="M23 139C20.9286 144.37 16.866 152.196 20.0278 157.895C22.6113 162.552 29.2098 163.784 34 164.562C46.8803 166.652 59.9799 167 73 167L68 177L89 168L89 167L72 160L75 166C62.1049 166 48.6716 165.994 36 163.335C30.4716 162.175 24.1221 160.589 21.4961 154.985C18.8751 149.391 23.9486 144.41 23 139z"/>
<path style="fill:#64615e; stroke:none;" d="M24 139L25 140L24 139M28 139L29 140L28 139z"/>
<path style="fill:#a4a2a0; stroke:none;" d="M170 139L171 140L170 139z"/>
<path style="fill:#35312e; stroke:none;" d="M174 139L175 140L174 139M180 139L181 140L180 139M18 140L19 141L18 140z"/>
<path style="fill:#a4a2a0; stroke:none;" d="M22 140L23 141L22 140M28 140L29 141L28 140z"/>
<path style="fill:#35312e; stroke:none;" d="M171 140L172 141L171 140z"/>
<path style="fill:#a4a2a0; stroke:none;" d="M175 140L176 141L175 140z"/>
<path style="fill:#64615e; stroke:none;" d="M177 140L178 141L177 140M181 140L182 141L181 140z"/>
<path style="fill:#a4a2a0; stroke:none;" d="M17 141L18 142L17 141z"/>
<path style="fill:#35312e; stroke:none;" d="M21 141L22 142L21 141z"/>
<path style="fill:#64615e; stroke:none;" d="M23 141L24 142L23 141M27 141L28 142L27 141z"/>
<path style="fill:#a4a2a0; stroke:none;" d="M171 141L172 142L171 141z"/>
<path style="fill:#64615e; stroke:none;" d="M175 141L176 142L175 141z"/>
<path style="fill:#a4a2a0; stroke:none;" d="M177 141L178 142L177 141z"/>
<path style="fill:#35312e; stroke:none;" d="M181 141L182 142L181 141z"/>
<path style="fill:#64615e; stroke:none;" d="M17 142L18 143L17 142M21 142L22 143L21 142z"/>
<path style="fill:#35312e; stroke:none;" d="M23 142L24 143L23 142z"/>
<path style="fill:#a4a2a0; stroke:none;" d="M27 142L28 143L27 142z"/>
<path style="fill:#35312e; stroke:none;" d="M172 142L173 143L172 142M175 142L176 143L175 142M178 142L179 143L178 142z"/>
<path style="fill:#a4a2a0; stroke:none;" d="M182 142L183 143L182 142M22 143L23 144L22 143z"/>
<path style="fill:#64615e; stroke:none;" d="M26 143L27 144L26 143M172 143L173 144L172 143z"/>
<path style="fill:#a4a2a0; stroke:none;" d="M176 143L177 144L176 143M178 143L179 144L178 143z"/>
<path style="fill:#64615e; stroke:none;" d="M182 143L183 144L182 143z"/>
<path style="fill:#a4a2a0; stroke:none;" d="M16 144L17 145L16 144z"/>
<path style="fill:#64615e; stroke:none;" d="M20 144L21 145L20 144M22 144L23 145L22 144z"/>
<path style="fill:#a4a2a0; stroke:none;" d="M26 144L27 145L26 144M172 144L173 145L172 144z"/>
<path style="fill:#64615e; stroke:none;" d="M176 144L177 145L176 144z"/>
<path style="fill:#35312e; stroke:none;" d="M182 144L183 145L182 144M16 145L17 146L16 145z"/>
<path style="fill:#a4a2a0; stroke:none;" d="M20 145L21 146L20 145z"/>
<path style="fill:#35312e; stroke:none;" d="M25 145L26 146L25 145M173 145L174 146L173 145z"/>
<path style="fill:#64615e; stroke:none;" d="M179 145L180 146L179 145z"/>
<path style="fill:#a4a2a0; stroke:none;" d="M183 145L184 146L183 145M15.3333 146.667L15.6667 147.333L15.3333 146.667z"/>
<path style="fill:#35312e; stroke:none;" d="M19 146L20 147L19 146z"/>
<path style="fill:#a4a2a0; stroke:none;" d="M21 146L22 147L21 146z"/>
<path style="fill:#64615e; stroke:none;" d="M25 146L26 147L25 146M173 146L174 147L173 146z"/>
<path style="fill:#a4a2a0; stroke:none;" d="M177 146L178 147L177 146M179 146L180 147L179 146z"/>
<path style="fill:#64615e; stroke:none;" d="M183 146L184 147L183 146M19 147L20 148L19 147M21 147L22 148L21 147z"/>
<path style="fill:#a4a2a0; stroke:none;" d="M25.3333 147.667L25.6667 148.333L25.3333 147.667M173 147L174 148L173 147z"/>
<path style="fill:#64615e; stroke:none;" d="M177 147L178 148L177 147z"/>
<path style="fill:#35312e; stroke:none;" d="M180 147L181 148L180 147M183 147L184 148L183 147M15 148L16 149L15 148z"/>
<path style="fill:#a4a2a0; stroke:none;" d="M19 148L20 149L19 148z"/>
<path style="fill:#35312e; stroke:none;" d="M21 148L22 149L21 148M174 148L175 149L174 148M177 148L178 149L177 148z"/>
<path style="fill:#64615e; stroke:none;" d="M180 148L181 149L180 148z"/>
<path style="fill:#a4a2a0; stroke:none;" d="M184 148L185 149L184 148z"/>
<path style="fill:#35312e; stroke:none;" d="M24 149L24 152L25 152L24 149z"/>
<path style="fill:#64615e; stroke:none;" d="M174.333 149.667L174.667 150.333L174.333 149.667z"/>
<path style="fill:#a4a2a0; stroke:none;" d="M178.333 149.667L178.667 150.333L178.333 149.667M180.333 149.667L180.667 150.333L180.333 149.667z"/>
<path style="fill:#64615e; stroke:none;" d="M184.333 149.667L184.667 150.333L184.333 149.667z"/>
<path style="fill:#a4a2a0; stroke:none;" d="M14.3333 150.667L14.6667 151.333L14.3333 150.667z"/>
<path style="fill:#35312e; stroke:none;" d="M18 150L19 151L18 150z"/>
<path style="fill:#a4a2a0; stroke:none;" d="M20 150L20 154L21 154L20 150z"/>
<path style="fill:#64615e; stroke:none;" d="M18.3333 151.667L18.6667 152.333L18.3333 151.667z"/>
<path style="fill:#a4a2a0; stroke:none;" d="M174 151L174 155L175 155L174 151z"/>
<path style="fill:#64615e; stroke:none;" d="M178.333 151.667L178.667 152.333L178.333 151.667z"/>
<path style="fill:#35312e; stroke:none;" d="M181 151L182 152L181 151M184 151L185 152L184 151z"/>
<path style="fill:#64615e; stroke:none;" d="M14 152L14 158L15 158L14 152z"/>
<path style="fill:#a4a2a0; stroke:none;" d="M25.3333 152.667L25.6667 153.333L25.3333 152.667z"/>
<path style="fill:#64615e; stroke:none;" d="M181.333 152.667L181.667 153.333L181.333 152.667z"/>
<path style="fill:#a4a2a0; stroke:none;" d="M185.333 152.667L185.667 153.333L185.333 152.667M18.3333 153.667L18.6667 154.333L18.3333 153.667M66 153L67 154L66 153z"/>
<path style="fill:#35312e; stroke:none;" d="M67 153L68 154L67 153z"/>
<path style="fill:#64615e; stroke:none;" d="M68 153L69 154L68 153z"/>
<path style="fill:#35312e; stroke:none;" d="M178 153L179 154L178 153M21 154L22 155L21 154M25 154L26 155L25 154M66 154L67 155L66 154z"/>
<path style="fill:#64615e; stroke:none;" d="M70 154L71 155L70 154z"/>
<path style="fill:#a4a2a0; stroke:none;" d="M71 154L72 155L71 154z"/>
<path style="fill:#64615e; stroke:none;" d="M178 154L178 157L179 157L178 154z"/>
<path style="fill:#a4a2a0; stroke:none;" d="M181 154L181 157L182 157L181 154z"/>
<path style="fill:#64615e; stroke:none;" d="M185 154L185 159L186 159L185 154M18.3333 155.667L18.6667 156.333L18.3333 155.667M21 155L22 156L21 155M26 155L27 156L26 155z"/>
<path style="fill:#35312e; stroke:none;" d="M65.3333 155.667L65.6667 156.333L65.3333 155.667z"/>
<path style="fill:#64615e; stroke:none;" d="M72 155L73 156L72 155z"/>
<path style="fill:#a4a2a0; stroke:none;" d="M73 155L74 156L73 155z"/>
<path style="fill:#64615e; stroke:none;" d="M174 155L175 156L174 155z"/>
<path style="fill:#35312e; stroke:none;" d="M183 155L184 156L183 155M27 156L28 157L27 156z"/>
<path style="fill:#a4a2a0; stroke:none;" d="M28 156L29 157L28 156z"/>
<path style="fill:#35312e; stroke:none;" d="M74 156L75 157L74 156z"/>
<path style="fill:#a4a2a0; stroke:none;" d="M75 156L76 157L75 156z"/>
<path style="fill:#35312e; stroke:none;" d="M174 156L175 157L174 156z"/>
<path style="fill:#a4a2a0; stroke:none;" d="M22 157L23 158L22 157z"/>
<path style="fill:#64615e; stroke:none;" d="M29 157L30 158L29 157z"/>
<path style="fill:#a4a2a0; stroke:none;" d="M30 157L31 158L30 157M65 157L66 158L65 157z"/>
<path style="fill:#35312e; stroke:none;" d="M76 157L77 158L76 157z"/>
<path style="fill:#64615e; stroke:none;" d="M77 157L78 158L77 157z"/>
<path style="fill:#a4a2a0; stroke:none;" d="M78 157L79 158L78 157z"/>
<path style="fill:#64615e; stroke:none;" d="M173 157L174 158L173 157z"/>
<path style="fill:#a4a2a0; stroke:none;" d="M178 157L179 158L178 157z"/>
<path style="fill:#64615e; stroke:none;" d="M181.333 157.667L181.667 158.333L181.333 157.667z"/>
<path style="fill:#a4a2a0; stroke:none;" d="M14 158L15 159L14 158z"/>
<path style="fill:#64615e; stroke:none;" d="M19 158L20 159L19 158z"/>
<path style="fill:#a4a2a0; stroke:none;" d="M23 158L24 159L23 158z"/>
<path style="fill:#35312e; stroke:none;" d="M31 158L32 159L31 158z"/>
<path style="fill:#a4a2a0; stroke:none;" d="M32.6667 158.333L33.3333 158.667L32.6667 158.333z"/>
<path style="fill:#64615e; stroke:none;" d="M66 158L67 159L66 158M79 158L80 159L79 158z"/>
<path style="fill:#a4a2a0; stroke:none;" d="M80 158L81 159L80 158z"/>
<path style="fill:#64615e; stroke:none;" d="M172 158L173 159L172 158z"/>
<path style="fill:#35312e; stroke:none;" d="M177 158L178 159L177 158M15 159L16 160L15 159z"/>
<path style="fill:#a4a2a0; stroke:none;" d="M20 159L21 160L20 159M24 159L25 160L24 159z"/>
<path style="fill:#64615e; stroke:none;" d="M25 159L26 160L25 159z"/>
<path style="fill:#35312e; stroke:none;" d="M34 159L35 160L34 159z"/>
<path style="fill:#64615e; stroke:none;" d="M35.6667 159.333L36.3333 159.667L35.6667 159.333z"/>
<path style="fill:#a4a2a0; stroke:none;" d="M37 159L37 160L40 160L37 159M66 159L67 160L66 159z"/>
<path style="fill:#64615e; stroke:none;" d="M71.6667 159.333L72.3333 159.667L71.6667 159.333z"/>
<path style="fill:#35312e; stroke:none;" d="M81 159L82 160L81 159z"/>
<path style="fill:#64615e; stroke:none;" d="M82 159L83 160L82 159z"/>
<path style="fill:#a4a2a0; stroke:none;" d="M83 159L84 160L83 159M170 159L171 160L170 159z"/>
<path style="fill:#35312e; stroke:none;" d="M171 159L172 160L171 159z"/>
<path style="fill:#64615e; stroke:none;" d="M177 159L178 160L177 159z"/>
<path style="fill:#a4a2a0; stroke:none;" d="M180 159L181 160L180 159M185.333 159.667L185.667 160.333L185.333 159.667M15 160L16 161L15 160M21 160L22 161L21 160M26 160L27 161L26 160z"/>
<path style="fill:#64615e; stroke:none;" d="M27 160L28 161L27 160z"/>
<path style="fill:#35312e; stroke:none;" d="M40.6667 160.333L41.3333 160.667L40.6667 160.333z"/>
<path style="fill:#64615e; stroke:none;" d="M42 160L42 161L45 161L42 160z"/>
<path style="fill:#a4a2a0; stroke:none;" d="M45 160L45 161L51 161L45 160z"/>
<path style="fill:#64615e; stroke:none;" d="M67.3333 160.667L67.6667 161.333L67.3333 160.667z"/>
<path style="fill:#35312e; stroke:none;" d="M71 160L72 161L71 160z"/>
<path style="fill:#64615e; stroke:none;" d="M74 160L75 161L74 160z"/>
<path style="fill:#35312e; stroke:none;" d="M75 160L76 161L75 160z"/>
<path style="fill:#64615e; stroke:none;" d="M84 160L85 161L84 160z"/>
<path style="fill:#a4a2a0; stroke:none;" d="M85 160L86 161L85 160M167 160L168 161L167 160z"/>
<path style="fill:#64615e; stroke:none;" d="M168 160L169 161L168 160z"/>
<path style="fill:#35312e; stroke:none;" d="M169 160L170 161L169 160z"/>
<path style="fill:#64615e; stroke:none;" d="M176 160L177 161L176 160M180 160L181 161L180 160M16 161L17 162L16 161M22 161L23 162L22 161z"/>
<path style="fill:#a4a2a0; stroke:none;" d="M23 161L24 162L23 161M28 161L29 162L28 161z"/>
<path style="fill:#64615e; stroke:none;" d="M29 161L30 162L29 161z"/>
<path style="fill:#35312e; stroke:none;" d="M30 161L31 162L30 161M52 161L52 162L57 162L52 161z"/>
<path style="fill:#64615e; stroke:none;" d="M57 161L57 162L64 162L57 161z"/>
<path style="fill:#a4a2a0; stroke:none;" d="M64 161L64 162L67 162L64 161z"/>
<path style="fill:#64615e; stroke:none;" d="M72 161L73 162L72 161z"/>
<path style="fill:#a4a2a0; stroke:none;" d="M76 161L77 162L76 161z"/>
<path style="fill:#35312e; stroke:none;" d="M77 161L78 162L77 161M86 161L87 162L86 161z"/>
<path style="fill:#a4a2a0; stroke:none;" d="M87 161L88 162L87 161M119 161L119 162L135 162L119 161M158 161L158 162L163 162L158 161z"/>
<path style="fill:#64615e; stroke:none;" d="M163.667 161.333L164.333 161.667L163.667 161.333z"/>
<path style="fill:#35312e; stroke:none;" d="M165.667 161.333L166.333 161.667L165.667 161.333M172 161L173 162L172 161z"/>
<path style="fill:#64615e; stroke:none;" d="M175 161L176 162L175 161z"/>
<path style="fill:#a4a2a0; stroke:none;" d="M179 161L180 162L179 161z"/>
<path style="fill:#35312e; stroke:none;" d="M184 161L185 162L184 161z"/>
<path style="fill:#64615e; stroke:none;" d="M17 162L18 163L17 162M24 162L25 163L24 162z"/>
<path style="fill:#a4a2a0; stroke:none;" d="M25 162L26 163L25 162M32 162L33 163L32 162z"/>
<path style="fill:#64615e; stroke:none;" d="M33 162L34 163L33 162z"/>
<path style="fill:#35312e; stroke:none;" d="M34.6667 162.333L35.3333 162.667L34.6667 162.333z"/>
<path style="fill:#a4a2a0; stroke:none;" d="M73 162L74 163L73 162M78 162L79 163L78 162z"/>
<path style="fill:#64615e; stroke:none;" d="M79 162L80 163L79 162z"/>
<path style="fill:#35312e; stroke:none;" d="M88 162L89 163L88 162z"/>
<path style="fill:#64615e; stroke:none;" d="M89 162L90 163L89 162z"/>
<path style="fill:#35312e; stroke:none;" d="M119 162L120 163L119 162M141 162L141 163L155 163L141 162M173 162L174 163L173 162z"/>
<path style="fill:#a4a2a0; stroke:none;" d="M174 162L175 163L174 162z"/>
<path style="fill:#64615e; stroke:none;" d="M178 162L179 163L178 162z"/>
<path style="fill:#a4a2a0; stroke:none;" d="M184 162L185 163L184 162z"/>
<path style="fill:#64615e; stroke:none;" d="M18 163L19 164L18 163z"/>
<path style="fill:#35312e; stroke:none;" d="M26 163L27 164L26 163z"/>
<path style="fill:#64615e; stroke:none;" d="M27 163L28 164L27 163z"/>
<path style="fill:#a4a2a0; stroke:none;" d="M28 163L29 164L28 163M36.6667 163.333L37.3333 163.667L36.6667 163.333z"/>
<path style="fill:#64615e; stroke:none;" d="M38.6667 163.333L39.3333 163.667L38.6667 163.333z"/>
<path style="fill:#35312e; stroke:none;" d="M40 163L40 164L43 164L40 163z"/>
<path style="fill:#64615e; stroke:none;" d="M73 163L74 164L73 163M81 163L82 164L81 163z"/>
<path style="fill:#35312e; stroke:none;" d="M82 163L83 164L82 163z"/>
<path style="fill:#64615e; stroke:none;" d="M91 163L92 164L91 163z"/>
<path style="fill:#a4a2a0; stroke:none;" d="M92 163L93 164L92 163z"/>
<path style="fill:#35312e; stroke:none;" d="M162 163L163 164L162 163M171 163L172 164L171 163z"/>
<path style="fill:#a4a2a0; stroke:none;" d="M172 163L173 164L172 163M176 163L177 164L176 163z"/>
<path style="fill:#35312e; stroke:none;" d="M177 163L178 164L177 163z"/>
<path style="fill:#64615e; stroke:none;" d="M183 163L184 164L183 163z"/>
<path style="fill:#a4a2a0; stroke:none;" d="M19 164L20 165L19 164z"/>
<path style="fill:#35312e; stroke:none;" d="M20 164L21 165L20 164M29 164L30 165L29 164z"/>
<path style="fill:#64615e; stroke:none;" d="M30.6667 164.333L31.3333 164.667L30.6667 164.333z"/>
<path style="fill:#a4a2a0; stroke:none;" d="M32.6667 164.333L33.3333 164.667L32.6667 164.333M43 164L43 165L47 165L43 164z"/>
<path style="fill:#64615e; stroke:none;" d="M47 164L47 165L51 165L47 164z"/>
<path style="fill:#35312e; stroke:none;" d="M51 164L51 165L54 165L51 164z"/>
<path style="fill:#a4a2a0; stroke:none;" d="M74 164L75 165L74 164M83 164L84 165L83 164z"/>
<path style="fill:#64615e; stroke:none;" d="M84 164L85 165L84 164z"/>
<path style="fill:#35312e; stroke:none;" d="M93 164L94 165L93 164z"/>
<path style="fill:#a4a2a0; stroke:none;" d="M94 164L95 165L94 164M118 164L118 171L119 171L118 164z"/>
<path style="fill:#35312e; stroke:none;" d="M166 164L167 165L166 164z"/>
<path style="fill:#64615e; stroke:none;" d="M167.667 164.333L168.333 164.667L167.667 164.333z"/>
<path style="fill:#a4a2a0; stroke:none;" d="M169 164L169 166L171 166L169 164M174 164L175 165L174 164z"/>
<path style="fill:#35312e; stroke:none;" d="M175 164L176 165L175 164M182 164L183 165L182 164z"/>
<path style="fill:#a4a2a0; stroke:none;" d="M21 165L22 166L21 165z"/>
<path style="fill:#64615e; stroke:none;" d="M22 165L23 166L22 165z"/>
<path style="fill:#35312e; stroke:none;" d="M34.6667 165.333L35.3333 165.667L34.6667 165.333z"/>
<path style="fill:#64615e; stroke:none;" d="M36 165L36 166L39 166L36 165z"/>
<path style="fill:#a4a2a0; stroke:none;" d="M39 165L39 166L42 166L39 165M56 165L56 166L62 166L56 165z"/>
<path style="fill:#64615e; stroke:none;" d="M62 165L62 166L68 166L62 165z"/>
<path style="fill:#35312e; stroke:none;" d="M68 165L68 166L73 166L68 165z"/>
<path style="fill:#64615e; stroke:none;" d="M74 165L75 166L74 165z"/>
<path style="fill:#a4a2a0; stroke:none;" d="M85 165L86 166L85 165z"/>
<path style="fill:#64615e; stroke:none;" d="M86 165L87 166L86 165z"/>
<path style="fill:#35312e; stroke:none;" d="M87 165L88 166L87 165M95 165L96 166L95 165z"/>
<path style="fill:#64615e; stroke:none;" d="M96 165L97 166L96 165z"/>
<path style="fill:#a4a2a0; stroke:none;" d="M97 165L98 166L97 165z"/>
<path style="fill:#35312e; stroke:none;" d="M122.333 165.667L122.667 166.333L122.333 165.667z"/>
<path style="fill:#64615e; stroke:none;" d="M123 165L123 166L127 166L123 165z"/>
<path style="fill:#35312e; stroke:none;" d="M127 165L127 166L157 166L127 165z"/>
<path style="fill:#64615e; stroke:none;" d="M157 165L157 166L162 166L157 165z"/>
<path style="fill:#a4a2a0; stroke:none;" d="M162 165L162 167L165 167L165 165L162 165z"/>
<path style="fill:#f7f6f6; stroke:none;" d="M165 165L165 166L169 166L165 165z"/>
<path style="fill:#64615e; stroke:none;" d="M171 165L172 166L171 165z"/>
<path style="fill:#35312e; stroke:none;" d="M172 165L173 166L172 165z"/>
<path style="fill:#64615e; stroke:none;" d="M181 165L182 166L181 165z"/>
<path style="fill:#a4a2a0; stroke:none;" d="M23 166L24 167L23 166z"/>
<path style="fill:#64615e; stroke:none;" d="M24 166L25 167L24 166z"/>
<path style="fill:#35312e; stroke:none;" d="M25 166L26 167L25 166M42 166L42 167L46 167L42 166z"/>
<path style="fill:#64615e; stroke:none;" d="M46 166L46 167L49 167L46 166z"/>
<path style="fill:#a4a2a0; stroke:none;" d="M49 166L49 167L54 167L49 166M87.6667 166.333L88.3333 166.667L87.6667 166.333z"/>
<path style="fill:#35312e; stroke:none;" d="M89 166L90 167L89 166z"/>
<path style="fill:#64615e; stroke:none;" d="M98 166L100 168L98 166z"/>
<path style="fill:#a4a2a0; stroke:none;" d="M99 166L100 167L99 166z"/>
<path style="fill:#f7f6f6; stroke:none;" d="M123 166L123 168L162 167C151.726 162.689 134.172 166 123 166z"/>
<path style="fill:#64615e; stroke:none;" d="M165.667 166.333L166.333 166.667L165.667 166.333z"/>
<path style="fill:#35312e; stroke:none;" d="M167.667 166.333L168.333 166.667L167.667 166.333M179 166L180 167L179 166z"/>
<path style="fill:#a4a2a0; stroke:none;" d="M180 166L181 167L180 166M26.6667 167.333L27.3333 167.667L26.6667 167.333z"/>
<path style="fill:#64615e; stroke:none;" d="M28 167L29 168L28 167z"/>
<path style="fill:#35312e; stroke:none;" d="M29 167L30 168L29 167M57 167L57 168L61 168L57 167z"/>
<path style="fill:#64615e; stroke:none;" d="M61 167L61 168L66 168L61 167z"/>
<path style="fill:#a4a2a0; stroke:none;" d="M66 167L66 168L73 168L66 167z"/>
<path style="fill:#64615e; stroke:none;" d="M89 167L90 168L89 167M122 167L122 168L130 169L130 168L122 167z"/>
<path style="fill:#a4a2a0; stroke:none;" d="M140 167L140 168L150 168L140 167z"/>
<path style="fill:#64615e; stroke:none;" d="M150 167L150 168L156 168L150 167z"/>
<path style="fill:#35312e; stroke:none;" d="M156 167L156 168L160 168L156 167M177 167L178 168L177 167z"/>
<path style="fill:#a4a2a0; stroke:none;" d="M178 167L179 168L178 167M31.6667 168.333L32.3333 168.667L31.6667 168.333z"/>
<path style="fill:#64615e; stroke:none;" d="M33 168L34 169L33 168z"/>
<path style="fill:#35312e; stroke:none;" d="M34.6667 168.333L35.3333 168.667L34.6667 168.333z"/>
<path style="fill:#64615e; stroke:none;" d="M72 168L73 169L72 168M87 168L88 169L87 168z"/>
<path style="fill:#35312e; stroke:none;" d="M88 168L89 169L88 168M96 168L97 169L96 168z"/>
<path style="fill:#a4a2a0; stroke:none;" d="M97 168L98 169L97 168z"/>
<path style="fill:#35312e; stroke:none;" d="M122 168L123 169L122 168M130 168L130 169L137 169L130 168z"/>
<path style="fill:#64615e; stroke:none;" d="M174.667 168.333L175.333 168.667L174.667 168.333z"/>
<path style="fill:#a4a2a0; stroke:none;" d="M176 168L177 169L176 168M36 169L36 170L39 170L36 169z"/>
<path style="fill:#64615e; stroke:none;" d="M39 169L39 170L42 170L39 169z"/>
<path style="fill:#35312e; stroke:none;" d="M42.6667 169.333L43.3333 169.667L42.6667 169.333M71 169L72 170L71 169z"/>
<path style="fill:#64615e; stroke:none;" d="M85 169L86 170L85 169M94 169L95 170L94 169z"/>
<path style="fill:#a4a2a0; stroke:none;" d="M95 169L96 170L95 169z"/>
<path style="fill:#35312e; stroke:none;" d="M169 169L170 170L169 169z"/>
<path style="fill:#64615e; stroke:none;" d="M170.667 169.333L171.333 169.667L170.667 169.333z"/>
<path style="fill:#a4a2a0; stroke:none;" d="M172 169L173 170L172 169M45 170L45 171L49 171L45 170z"/>
<path style="fill:#64615e; stroke:none;" d="M49 170L49 171L53 171L49 170z"/>
<path style="fill:#35312e; stroke:none;" d="M53 170L53 171L56 171L53 170z"/>
<path style="fill:#a4a2a0; stroke:none;" d="M71 170L72 171L71 170M82 170L83 171L82 170z"/>
<path style="fill:#64615e; stroke:none;" d="M83 170L84 171L83 170M92 170L93 171L92 170z"/>
<path style="fill:#a4a2a0; stroke:none;" d="M93 170L94 171L93 170z"/>
<path style="fill:#35312e; stroke:none;" d="M124 170L125 171L124 170M159 170L159 171L162 171L159 170z"/>
<path style="fill:#64615e; stroke:none;" d="M162 170L162 171L165 171L162 170z"/>
<path style="fill:#a4a2a0; stroke:none;" d="M165 170L165 171L168 171L165 170M58 171L58 172L64 172L58 171z"/>
<path style="fill:#64615e; stroke:none;" d="M64.6667 171.333L65.3333 171.667L64.6667 171.333z"/>
<path style="fill:#35312e; stroke:none;" d="M70 171L71 172L70 171z"/>
<path style="fill:#a4a2a0; stroke:none;" d="M80 171L81 172L80 171z"/>
<path style="fill:#35312e; stroke:none;" d="M81 171L82 172L81 171M89 171L90 172L89 171z"/>
<path style="fill:#64615e; stroke:none;" d="M90 171L91 172L90 171z"/>
<path style="fill:#a4a2a0; stroke:none;" d="M91 171L92 172L91 171z"/>
<path style="fill:#64615e; stroke:none;" d="M118 171L119 172L118 171z"/>
<path style="fill:#35312e; stroke:none;" d="M137 171L137 172L144 172L137 171z"/>
<path style="fill:#64615e; stroke:none;" d="M144 171L144 172L152 172L144 171z"/>
<path style="fill:#a4a2a0; stroke:none;" d="M152 171L152 172L157 172L152 171M65 172L66 173L65 172M70 172L71 173L70 172M78 172L79 173L78 172z"/>
<path style="fill:#35312e; stroke:none;" d="M79 172L80 173L79 172M87 172L88 173L87 172z"/>
<path style="fill:#64615e; stroke:none;" d="M88 172L89 173L88 172z"/>
<path style="fill:#a4a2a0; stroke:none;" d="M118 172L119 173L118 172z"/>
<path style="fill:#35312e; stroke:none;" d="M119 172L120 173L119 172z"/>
<path style="fill:#64615e; stroke:none;" d="M120 172L120 173L126 173L120 172z"/>
<path style="fill:#a4a2a0; stroke:none;" d="M126 172L126 173L136 173L126 172M64 173L65 174L64 173z"/>
<path style="fill:#64615e; stroke:none;" d="M69 173L70 174L69 173z"/>
<path style="fill:#a4a2a0; stroke:none;" d="M76 173L77 174L76 173z"/>
<path style="fill:#35312e; stroke:none;" d="M77 173L78 174L77 173M85 173L86 174L85 173z"/>
<path style="fill:#a4a2a0; stroke:none;" d="M86 173L87 174L86 173z"/>
<path style="fill:#64615e; stroke:none;" d="M64 174L65 175L64 174z"/>
<path style="fill:#35312e; stroke:none;" d="M68 174L69 175L68 174z"/>
<path style="fill:#a4a2a0; stroke:none;" d="M73 174L74 175L73 174z"/>
<path style="fill:#64615e; stroke:none;" d="M74 174L75 175L74 174z"/>
<path style="fill:#35312e; stroke:none;" d="M75 174L76 175L75 174M79 174L80 175L79 174z"/>
<path style="fill:#64615e; stroke:none;" d="M83 174L84 175L83 174z"/>
<path style="fill:#a4a2a0; stroke:none;" d="M84 174L85 175L84 174M63 175L64 176L63 175M68 175L69 176L68 175M71 175L72 176L71 175z"/>
<path style="fill:#64615e; stroke:none;" d="M72 175L73 176L72 175M81 175L82 176L81 175z"/>
<path style="fill:#a4a2a0; stroke:none;" d="M82 175L83 176L82 175z"/>
<path style="fill:#35312e; stroke:none;" d="M63 176L64 177L63 176z"/>
<path style="fill:#64615e; stroke:none;" d="M67.3333 176.667L67.6667 177.333L67.3333 176.667z"/>
<path style="fill:#a4a2a0; stroke:none;" d="M69 176L70 177L69 176z"/>
<path style="fill:#64615e; stroke:none;" d="M70 176L71 177L70 176M79 176L80 177L79 176z"/>
<path style="fill:#a4a2a0; stroke:none;" d="M80 176L81 177L80 176z"/>
<path style="fill:#64615e; stroke:none;" d="M62 177L63 178L62 177z"/>
<path style="fill:#35312e; stroke:none;" d="M64 177L65 178L64 177M68 177L69 178L68 177M76 177L77 178L76 177z"/>
<path style="fill:#64615e; stroke:none;" d="M77 177L78 178L77 177z"/>
<path style="fill:#a4a2a0; stroke:none;" d="M78 177L79 178L78 177M61 178L62 179L61 178z"/>
<path style="fill:#35312e; stroke:none;" d="M62 178L63 179L62 178M74 178L75 179L74 178z"/>
<path style="fill:#a4a2a0; stroke:none;" d="M75 178L76 179L75 178z"/>
<path style="fill:#64615e; stroke:none;" d="M61 179L62 180L61 179z"/>
<path style="fill:#35312e; stroke:none;" d="M72 179L73 180L72 179z"/>
<path style="fill:#a4a2a0; stroke:none;" d="M73 179L74 180L73 179M60.3333 180.667L60.6667 181.333L60.3333 180.667z"/>
<path style="fill:#64615e; stroke:none;" d="M70 180L71 181L70 180z"/>
<path style="fill:#a4a2a0; stroke:none;" d="M71 180L72 181L71 180z"/>
<path style="fill:#64615e; stroke:none;" d="M68 181L69 182L68 181z"/>
<path style="fill:#a4a2a0; stroke:none;" d="M69 181L70 182L69 181z"/>
<path style="fill:#64615e; stroke:none;" d="M61 182L62 183L61 182z"/>
<path style="fill:#35312e; stroke:none;" d="M65 182L66 183L65 182z"/>
<path style="fill:#64615e; stroke:none;" d="M66 182L67 183L66 182M62 183L63 184L62 183z"/>
<path style="fill:#35312e; stroke:none;" d="M63 183L64 184L63 183z"/>
<path style="fill:#a4a2a0; stroke:none;" d="M64 183L65 184L64 183z"/>
</svg>
