<?xml version="1.0" encoding="iso-8859-1"?>
<!-- Uploaded to: SVG Repo, www.svgrepo.com, Generator: SVG Repo Mixer Tools -->
<svg version="1.1" id="Layer_1" xmlns="http://www.w3.org/2000/svg" xmlns:xlink="http://www.w3.org/1999/xlink" 
	 viewBox="0 0 496 496" xml:space="preserve">
<path style="fill:#FFF8EF;" d="M168,211.2l53.6,89.6c-5.6-3.2-12.8-8.8-27.2-8.8c-13.6,0-21.6,5.6-27.2,9.6c-5.6,4-9.6,6.4-18.4,6.4
	c-8.8,0-12.8-2.4-18.4-6.4c-3.2-2.4-7.2-5.6-12.8-7.2L168,211.2z"/>
<path style="fill:#7AC943;" d="M396,348l60,80H316.8l-43.2-72l12.8-23.2c3.2,0.8,5.6,2.4,8.8,4.8c5.6,4,12,9.6,24.8,9.6
	s19.2-5.6,24.8-9.6c4.8-4,8-6.4,15.2-6.4s10.4,2.4,15.2,6.4C380,342.4,385.6,346.4,396,348z"/>
<polygon style="fill:#EE5656;" points="355.2,210.4 336,216.8 336,200.8 "/>
<path style="fill:#FFF8EF;" d="M328.8,258.4l44.8,60c-4-1.6-8-2.4-14.4-2.4c-12.8,0-20,5.6-24.8,9.6s-8,6.4-15.2,6.4
	s-10.4-2.4-15.2-6.4c-3.2-2.4-6.4-4.8-10.4-7.2L328.8,258.4z"/>
<path style="fill:#E94545;" d="M256,132c4,0,8-4,8-8v-24h35.2l-10.4,20c-1.6,2.4-1.6,4.8,0,7.2l10.4,20H224v-16h32V132z"/>
<rect x="176" y="68" style="fill:#EE5656;" width="72" height="48"/>
<path style="fill:#7AC943;" d="M235.2,324l62.4,104H184H38.4l72-119.2c4.8,0.8,8,3.2,12,6.4c6.4,4,13.6,9.6,27.2,9.6
	c13.6,0,21.6-5.6,27.2-9.6c5.6-4,9.6-6.4,18.4-6.4s12.8,2.4,18.4,6.4C218.4,318.4,224,322.4,235.2,324z"/>
<path style="fill:#42210B;" d="M336,216.8l19.2-6.4l-19.2-9.6V216.8z M194.4,292c13.6,0,21.6,5.6,27.2,9.6L168,211.2l-49.6,83.2
	c5.6,1.6,9.6,4.8,12.8,7.2c5.6,4,9.6,6.4,18.4,6.4c8.8,0,12.8-2.4,18.4-6.4C173.6,297.6,180.8,292,194.4,292z M256,132h-32v16h75.2
	l-10.4-20c-1.6-2.4-1.6-4.8,0-7.2l10.4-20H264v24C264,128,260,132,256,132z M248,116V68h-72v48H248z M297.6,428l-62.4-104
	c-11.2-0.8-17.6-5.6-22.4-9.6c-5.6-4-9.6-6.4-18.4-6.4s-12.8,2.4-18.4,6.4c-5.6,4-13.6,9.6-27.2,9.6c-13.6,0-21.6-5.6-27.2-9.6
	c-4-3.2-7.2-4.8-12-6.4L38.4,428H184H297.6z M374.4,318.4l-44.8-60l-34.4,60c4,1.6,8,4.8,10.4,7.2c4.8,4,8,6.4,15.2,6.4
	s10.4-2.4,15.2-6.4c5.6-4,12-9.6,24.8-9.6C365.6,316,370.4,316.8,374.4,318.4z M456,428l-60-80c-10.4-0.8-16-5.6-20.8-9.6
	s-8-6.4-15.2-6.4s-10.4,2.4-15.2,6.4c-5.6,4-12,9.6-24.8,9.6s-20-5.6-24.8-9.6c-3.2-2.4-5.6-4-8.8-4.8L273.6,356l43.2,72H456z
	 M476,428h20v16h-24H312H184H24H0v-16h19.2L160,193.6V60c0-4.8,4-8,8-8h88c4,0,8,3.2,8,8v24h48c2.4,0,5.6,1.6,6.4,4
	c1.6,2.4,1.6,5.6,0,8l-13.6,28l14.4,28c1.6,2.4,0.8,5.6,0,8c-1.6,2.4-4.8,4-7.2,4h-96c-4,0-8-4-8-8v-24h-32v61.6L264,340l56-98.4
	V188c0-3.2,1.6-5.6,4-7.2c2.4-1.6,5.6-1.6,8,0l48,24c3.2,1.6,4.8,4.8,4,8s-2.4,6.4-5.6,7.2L336,233.6v7.2L476,428z"/>
<path style="fill:#67BC34;" d="M109.6,308.8L40,425.6v2.4h24l55.2-115.2C116.8,310.4,113.6,309.6,109.6,308.8z"/>
<path style="fill:#D9CDC1;" d="M168,212l-49.6,82.4c3.2,0.8,5.6,2.4,8,4L168,212L168,212z"/>
<path style="fill:#B0E283;" d="M235.2,324c-7.2-0.8-12-2.4-16-4.8L272,428h24l-4.8-11.2L235.2,324z"/>
<path style="fill:#D9CDC1;" d="M168,212l39.2,81.6c6.4,1.6,10.4,4.8,14.4,8L168,212L168,212z"/>
<path style="fill:#67BC34;" d="M308,346.4c-5.6-1.6-9.6-4.8-12.8-8c-3.2-2.4-5.6-4-8.8-4.8L273.6,356l23.2,38.4L308,346.4z"/>
<g>
	<path style="fill:#D9CDC1;" d="M294.4,319.2c4,1.6,8,4.8,10.4,7.2c2.4,1.6,4,3.2,6.4,4.8L328,260L294.4,319.2z"/>
	<path style="fill:#D9CDC1;" d="M329.6,259.2L328,260l0,0l32,56c5.6,0,10.4,0.8,14.4,2.4L329.6,259.2z"/>
</g>
<path style="fill:#B0E283;" d="M375.2,338.4c-1.6-0.8-2.4-2.4-4-3.2L424,428h32l-60-80C385.6,346.4,380,342.4,375.2,338.4z"/>
</svg>