<?xml version="1.0" standalone="yes"?>
<svg xmlns="http://www.w3.org/2000/svg" width="200" height="200">
<path style="fill:#fdfdfd; stroke:none;" d="M0 0L0 200L133 200L133 199L119 176C117.862 178.093 116.831 179.723 114.892 181.204C99.958 192.612 95.8349 168.56 110 169.438C113.036 169.626 116.081 171.203 119 172C118.654 169.321 118.304 166.559 117.387 164C110.705 145.35 96.9815 165.314 86.466 156.988C83.1959 154.398 89.2802 151.768 91 151L91 150C86.2004 149.027 83.6317 147.032 85 142C81.6444 139.016 82.3059 137.334 85 134L85 133C82.9318 129.559 84.1537 128.477 87 126C77.0426 118.44 67.7327 108.387 62.3202 97C57.6204 87.112 53.7948 76.0008 53.0903 65C50.1179 18.5882 113.133 -7.7439 136.008 38C144.084 54.151 140.382 77.0785 133.573 93C127.979 106.079 119.28 118.275 110 129L110 130C113.232 134.778 113.44 146.817 111 152L111 153C123.699 166.005 121.398 197.986 143 198C141.574 195.595 139.436 192.934 139.456 190C139.522 180.339 154.014 179.963 152.458 190C151.963 193.196 149.294 196.073 148 199L200 200L200 0L0 0z"/>
<path style="fill:#686549; stroke:none;" d="M103 3L103 11L104 11L103 3z"/>
<path style="fill:#9b9740; stroke:none;" d="M104 3L105 4L104 3M91 4L92 12L93 12L91 4z"/>
<path style="fill:#fad53e; stroke:none;" d="M92 4L93 5L92 4z"/>
<path style="fill:#1e1c1d; stroke:none;" d="M103.333 4.66667L103.667 5.33333L103.333 4.66667M91 5L91 11L92 11L91 5M78 7L83 14L78 7z"/>
<path style="fill:#fad53e; stroke:none;" d="M79 7L80 8L79 7z"/>
<path style="fill:#1e1c1d; stroke:none;" d="M104 7L104 11L105 11L104 7z"/>
<path style="fill:#686549; stroke:none;" d="M78 8L79 9L78 8z"/>
<path style="fill:#1e1c1d; stroke:none;" d="M116.333 8.66667L116.667 9.33333L116.333 8.66667z"/>
<path style="fill:#9b9740; stroke:none;" d="M117 8L118 9L117 8z"/>
<path style="fill:#686549; stroke:none;" d="M80 9L81 10L80 9z"/>
<path style="fill:#9b9740; stroke:none;" d="M115 9L116 10L115 9M79 10L80 11L79 10z"/>
<path style="fill:#fad53e; stroke:none;" d="M81 10L82 11L81 10z"/>
<path style="fill:#686549; stroke:none;" d="M115.667 10.3333L116.333 10.6667L115.667 10.3333M91 11L92 12L91 11z"/>
<path style="fill:#9b9740; stroke:none;" d="M103.667 11.3333L104.333 11.6667L103.667 11.3333z"/>
<path style="fill:#1e1c1d; stroke:none;" d="M115.333 11.6667L115.667 12.3333L115.333 11.6667z"/>
<path style="fill:#9b9740; stroke:none;" d="M116 11L117 12L116 11z"/>
<path style="fill:#fad53e; stroke:none;" d="M80 12L81 13L80 12z"/>
<path style="fill:#9b9740; stroke:none;" d="M82 12L83 13L82 12z"/>
<path style="fill:#fad53e; stroke:none;" d="M114 12L115 13L114 12z"/>
<path style="fill:#686549; stroke:none;" d="M128 12L129 13L128 12z"/>
<path style="fill:#9b9740; stroke:none;" d="M129 12L130 13L129 12z"/>
<path style="fill:#686549; stroke:none;" d="M81 13L82 14L81 13z"/>
<path style="fill:#fad53e; stroke:none;" d="M94 13L95 14L94 13z"/>
<path style="fill:#9b9740; stroke:none;" d="M95 13L95 14L99 14L95 13z"/>
<path style="fill:#686549; stroke:none;" d="M99 13L100 14L99 13z"/>
<path style="fill:#9b9740; stroke:none;" d="M100 13L100 14L104 14L100 13M115 13L116 14L115 13M127 13L129 15L127 13z"/>
<path style="fill:#1e1c1d; stroke:none;" d="M128 13L129 14L128 13z"/>
<path style="fill:#9b9740; stroke:none;" d="M70 14L71 15L70 14z"/>
<path style="fill:#fad53e; stroke:none;" d="M71 14L72 15L71 14z"/>
<path style="fill:#686549; stroke:none;" d="M82 14L83 15L82 14z"/>
<path style="fill:#9b9740; stroke:none;" d="M83 14L84 15L83 14M89.6667 14.3333L90.3333 14.6667L89.6667 14.3333z"/>
<path style="fill:#686549; stroke:none;" d="M91 14L94 16L94 15L91 14z"/>
<path style="fill:#1e1c1d; stroke:none;" d="M92 14L92 15L106 15L92 14z"/>
<path style="fill:#686549; stroke:none;" d="M106 14L106 16L108 14L106 14z"/>
<path style="fill:#9b9740; stroke:none;" d="M108 14L109 15L108 14z"/>
<path style="fill:#1e1c1d; stroke:none;" d="M127 14L128 15L127 14z"/>
<path style="fill:#9b9740; stroke:none;" d="M54 15L55 16L54 15z"/>
<path style="fill:#686549; stroke:none;" d="M70 15L71 16L70 15z"/>
<path style="fill:#1e1c1d; stroke:none;" d="M71 15L72 19L73 19L71 15z"/>
<path style="fill:#9b9740; stroke:none;" d="M86 15L87 16L86 15z"/>
<path style="fill:#686549; stroke:none;" d="M87 15L89 17L87 15z"/>
<path style="fill:#1e1c1d; stroke:none;" d="M88 15L88 16L92 16L88 15z"/>
<path style="fill:#9b9740; stroke:none;" d="M94 15L97 17L97 16L94 15z"/>
<path style="fill:#fdfdfd; stroke:none;" d="M95 15L95 16L104 16L95 15z"/>
<path style="fill:#9b9740; stroke:none;" d="M103 17L106 15L103 17z"/>
<path style="fill:#1e1c1d; stroke:none;" d="M107 15L107 16C122.656 19.7188 135.837 34.0133 138 50L139 50C137.661 33.6234 123.429 17.4624 107 15z"/>
<path style="fill:#686549; stroke:none;" d="M110 15L111 16L110 15z"/>
<path style="fill:#9b9740; stroke:none;" d="M111 15L112 16L111 15z"/>
<path style="fill:#686549; stroke:none;" d="M126.667 15.3333L127.333 15.6667L126.667 15.3333z"/>
<path style="fill:#1e1c1d; stroke:none;" d="M54 16L54 17L64 24L54 16z"/>
<path style="fill:#686549; stroke:none;" d="M55 16L56 17L55 16z"/>
<path style="fill:#fad53e; stroke:none;" d="M70 16L71 17L70 16z"/>
<path style="fill:#9b9740; stroke:none;" d="M72 16L73 17L72 16M83 16L84 17L83 16z"/>
<path style="fill:#686549; stroke:none;" d="M84 16L86 18L84 16z"/>
<path style="fill:#1e1c1d; stroke:none;" d="M85 16L85 17L88 17L85 16z"/>
<path style="fill:#9b9740; stroke:none;" d="M89 16L90 17L89 16z"/>
<path style="fill:#fdfdfd; stroke:none;" d="M70 27L95 17C87.5251 14.0894 74.6795 21.3526 70 27z"/>
<path style="fill:#686549; stroke:none;" d="M97 16L97 17L103 17L97 16z"/>
<path style="fill:#fad53e; stroke:none;" d="M105 16L106 17L105 16z"/>
<path style="fill:#fdfdfd; stroke:none;" d="M106 16L106 17C121.02 20.5676 131.177 32.8346 136 47L137 47C134.788 32.24 120.76 18.2123 106 16z"/>
<path style="fill:#9b9740; stroke:none;" d="M109 16L110 17L109 16z"/>
<path style="fill:#686549; stroke:none;" d="M113 16L114 17L113 16z"/>
<path style="fill:#9b9740; stroke:none;" d="M125 16L127 18L125 16z"/>
<path style="fill:#1e1c1d; stroke:none;" d="M126 16L127 17L126 16z"/>
<path style="fill:#686549; stroke:none;" d="M71 17L72 18L71 17M81 17L83 19L81 17z"/>
<path style="fill:#1e1c1d; stroke:none;" d="M82 17L82 18L85 18L82 17z"/>
<path style="fill:#fad53e; stroke:none;" d="M86 17L87 18L86 17M90 17L91 18L90 17z"/>
<path style="fill:#9b9740; stroke:none;" d="M91 17L92 18L91 17z"/>
<path style="fill:#686549; stroke:none;" d="M92 17L92 19L94 19L92 17z"/>
<path style="fill:#1e1c1d; stroke:none;" d="M93 17L93 18C114.543 18 132.634 30.2067 136 53C137.809 47.9018 134.148 41.3874 131.546 37C122.238 21.3013 110.244 17 93 17z"/>
<path style="fill:#9b9740; stroke:none;" d="M108 17L109 18L108 17z"/>
<path style="fill:#686549; stroke:none;" d="M112 17L113 18L112 17M115 17L116 18L115 17z"/>
<path style="fill:#fad53e; stroke:none;" d="M124 17L125 18L124 17z"/>
<path style="fill:#1e1c1d; stroke:none;" d="M125 17L126 18L125 17z"/>
<path style="fill:#686549; stroke:none;" d="M56 18L57 19L56 18z"/>
<path style="fill:#9b9740; stroke:none;" d="M58 18L59 19L58 18M71 18L72 19L71 18M73.3333 18.6667L73.6667 19.3333L73.3333 18.6667z"/>
<path style="fill:#fad53e; stroke:none;" d="M78 18L79 19L78 18z"/>
<path style="fill:#686549; stroke:none;" d="M79 18L80 19L79 18z"/>
<path style="fill:#1e1c1d; stroke:none;" d="M56 48L57 48L60 38L61 40L62 40C63.5056 34.233 66.9229 30.937 72 28C65.0085 36.2242 61.8436 45.3249 61 56L62 56C63.6411 43.0818 67.7562 32.4581 79 25C70.7952 33.9357 64.2638 45.6176 64 58L65 58C65.825 39.9457 76.6999 24 95 24L95 23L84 23L84 22L89 19L67 29L82 19C69.6124 16.9367 57.522 37.846 56 48z"/>
<path style="fill:#9b9740; stroke:none;" d="M83 18L84 19L83 18z"/>
<path style="fill:#fad53e; stroke:none;" d="M87 18L88 19L87 18z"/>
<path style="fill:#9b9740; stroke:none;" d="M88 18L89 19L88 18z"/>
<path style="fill:#686549; stroke:none;" d="M89 18L88 22L101 21L101 20L89 18z"/>
<path style="fill:#1e1c1d; stroke:none;" d="M90.6667 18.3333L91.3333 18.6667L90.6667 18.3333z"/>
<path style="fill:#9b9740; stroke:none;" d="M94 18L95 19L94 18z"/>
<path style="fill:#fad53e; stroke:none;" d="M91 19L91 20C117.317 20 133.787 42.3152 134 68L135 68L135 47L130 36L128 33C114.884 23.7696 107.825 16.8736 91 19z"/>
<path style="fill:#9b9740; stroke:none;" d="M105.667 18.3333L106.333 18.6667L105.667 18.3333z"/>
<path style="fill:#686549; stroke:none;" d="M107 18L108 19L107 18z"/>
<path style="fill:#9b9740; stroke:none;" d="M111 18L112 19L111 18M114 18L115 19L114 18z"/>
<path style="fill:#686549; stroke:none;" d="M117 18L118 19L117 18M124.667 18.3333L125.333 18.6667L124.667 18.3333z"/>
<path style="fill:#9b9740; stroke:none;" d="M57 19L58 20L57 19M59 19L60 20L59 19z"/>
<path style="fill:#686549; stroke:none;" d="M72 19L73 20L72 19z"/>
<path style="fill:#9b9740; stroke:none;" d="M76 19L77 20L76 19z"/>
<path style="fill:#686549; stroke:none;" d="M77 19L78 20L77 19z"/>
<path style="fill:#9b9740; stroke:none;" d="M80 19L81 20L80 19z"/>
<path style="fill:#fad53e; stroke:none;" d="M76 23L76 24L86 20L76 23z"/>
<path style="fill:#9b9740; stroke:none;" d="M86 19L87 20L86 19M90 19L91 20L90 19z"/>
<path style="fill:#fdfdfd; stroke:none;" d="M108 19L109 20L108 19z"/>
<path style="fill:#9b9740; stroke:none;" d="M109 19L110 20L109 19z"/>
<path style="fill:#686549; stroke:none;" d="M110 19L111 20L110 19M113 19L114 20L113 19z"/>
<path style="fill:#9b9740; stroke:none;" d="M116 19L117 20L116 19M119 19L120 20L119 19z"/>
<path style="fill:#1e1c1d; stroke:none;" d="M132 19L130 23L132 19z"/>
<path style="fill:#9b9740; stroke:none;" d="M133 19L134 20L133 19M58 20L59 21L58 20z"/>
<path style="fill:#686549; stroke:none;" d="M60 20L61 21L60 20z"/>
<path style="fill:#fad53e; stroke:none;" d="M74 20L75 21L74 20z"/>
<path style="fill:#686549; stroke:none;" d="M75 20L76 21L75 20z"/>
<path style="fill:#9b9740; stroke:none;" d="M78 20L79 21L78 20M84 20L85 21L84 20z"/>
<path style="fill:#1e1c1d; stroke:none;" d="M92 20L92 21L97 21L92 20z"/>
<path style="fill:#9b9740; stroke:none;" d="M101.667 20.3333L102.333 20.6667L101.667 20.3333z"/>
<path style="fill:#fdfdfd; stroke:none;" d="M110 20L110 21L127 33C122.686 26.8759 117.273 22.1001 110 20z"/>
<path style="fill:#9b9740; stroke:none;" d="M112 20L113 21L112 20z"/>
<path style="fill:#686549; stroke:none;" d="M115 20L116 21L115 20M118 20L119 21L118 20M120 20L121 21L120 20M131 20L132 21L131 20M73 21L74 22L73 21z"/>
<path style="fill:#9b9740; stroke:none;" d="M76 21L77 22L76 21z"/>
<path style="fill:#686549; stroke:none;" d="M83 21L84 22L83 21z"/>
<path style="fill:#1e1c1d; stroke:none;" d="M98 21L98 22C112.106 22.1183 121.653 32.6071 127 45L126 45C120.533 33.5099 108.73 25.1114 96 24L96 25C121.502 28.7663 135.431 55.4834 131 79L132 79L132 77L133 77L130 88L128 86L128 92L129 92L130 88L131 90L132 90L137 71L138 71L133 92L134 92C138.255 78.9196 139.886 65.7424 140 52L139 52L139 56L138 56L138 54L137 54L135 75C128.623 53.4247 128.903 21.0853 98 21z"/>
<path style="fill:#686549; stroke:none;" d="M106 21L107 22L106 21z"/>
<path style="fill:#9b9740; stroke:none;" d="M107 21L108 22L107 21M114 21L115 22L114 21M117 21L118 22L117 21M119 21L120 22L119 21M122 21L123 22L122 21z"/>
<path style="fill:#686549; stroke:none;" d="M130 21L131 22L130 21M61 22L62 23L61 22z"/>
<path style="fill:#fad53e; stroke:none;" d="M63 22L64 23L63 22M71 22L72 23L71 22z"/>
<path style="fill:#686549; stroke:none;" d="M74 22L75 23L74 22z"/>
<path style="fill:#9b9740; stroke:none;" d="M80 22L81 23L80 22z"/>
<path style="fill:#686549; stroke:none;" d="M81 22L82 23L81 22M84 22L85 23L84 22z"/>
<path style="fill:#9b9740; stroke:none;" d="M85 22L85 23L89 23L85 22z"/>
<path style="fill:#fad53e; stroke:none;" d="M89 22L89 23C105.188 23.0447 113.224 31.5065 125 41C117.425 25.059 105.317 22 89 22z"/>
<path style="fill:#9b9740; stroke:none;" d="M102.667 22.3333L103.333 22.6667L102.667 22.3333z"/>
<path style="fill:#686549; stroke:none;" d="M104.667 22.3333L105.333 22.6667L104.667 22.3333M109 22L110 23L109 22M116 22L117 23L116 22M121 22L122 23L121 22z"/>
<path style="fill:#9b9740; stroke:none;" d="M123 22L124 23L123 22M129 22L130 23L129 22z"/>
<path style="fill:#686549; stroke:none;" d="M62 23L63 24L62 23z"/>
<path style="fill:#9b9740; stroke:none;" d="M70 23L71 24L70 23z"/>
<path style="fill:#fad53e; stroke:none;" d="M73 23L74 24L73 23z"/>
<path style="fill:#686549; stroke:none;" d="M78 23L79 24L78 23M94 25L97 23L94 25z"/>
<path style="fill:#9b9740; stroke:none;" d="M97 23L98 24L97 23M107 23L108 24L107 23z"/>
<path style="fill:#686549; stroke:none;" d="M108 23L109 24L108 23M111 23L112 24L111 23z"/>
<path style="fill:#9b9740; stroke:none;" d="M120 23L121 24L120 23z"/>
<path style="fill:#686549; stroke:none;" d="M122 23L123 24L122 23M124 23L125 24L124 23z"/>
<path style="fill:#fad53e; stroke:none;" d="M63 24L64 25L63 24z"/>
<path style="fill:#686549; stroke:none;" d="M69 24L70 25L69 24M71 24L72 25L71 24z"/>
<path style="fill:#fad53e; stroke:none;" d="M74 24L75 25L74 24z"/>
<path style="fill:#9b9740; stroke:none;" d="M75 24L76 25L75 24z"/>
<path style="fill:#686549; stroke:none;" d="M76 24L77 25L76 24M82 24L83 25L82 24z"/>
<path style="fill:#9b9740; stroke:none;" d="M83 24L83 25L88 25L83 24z"/>
<path style="fill:#fad53e; stroke:none;" d="M110 70C111.367 72.1479 113.366 74.4539 113.897 77.0008C114.93 81.948 109.373 86.4266 105.743 81.7562C103.152 78.422 104.733 74.4817 106 71C100.87 71.1098 97.3226 71.9136 94 76C110.361 84.5649 89.4453 96.2949 91 77C84.912 75.6808 77.7257 78.4954 81.3218 85.9961C83.6871 90.9298 89.1998 93.0514 92.6705 97.0432C98.0056 103.179 98.9784 111.178 99 119L98 119C96.5583 112.961 96.6504 106.596 93.5826 101.001C90.7468 95.8284 65.8914 76.3461 86.9961 74.4992C88.9751 74.326 91.0408 74.7688 93 75C99.1647 67.5661 122.046 62.2587 122.848 77C123.325 85.7687 114.817 91.9682 111.046 99C107.77 105.11 107.849 112.28 107 119C121.715 108.548 134.703 80.1717 131.674 62C128.159 40.9068 105.946 18.7662 83.0008 25.2824C74.8222 27.605 69.9389 39.6563 67.5193 47C60.9013 67.0864 70.1859 87.2173 81.5201 104C85.4437 109.81 92.5145 118.859 99.9815 120.049C104.33 120.741 105.565 116.462 105.91 113C107.239 99.629 117.591 93.1596 120.468 81C122.334 73.1092 118.02 67.7016 110 70z"/>
<path style="fill:#9b9740; stroke:none;" d="M89 24L89 25L94 25L89 24z"/>
<path style="fill:#686549; stroke:none;" d="M100 24L101 25L100 24z"/>
<path style="fill:#9b9740; stroke:none;" d="M101 24L102 25L101 24M110 24L111 25L110 24M113 24L114 25L113 24z"/>
<path style="fill:#686549; stroke:none;" d="M119 24L120 25L119 24M121 24L122 25L121 24z"/>
<path style="fill:#9b9740; stroke:none;" d="M123 24L124 25L123 24z"/>
<path style="fill:#686549; stroke:none;" d="M125 24L126 25L125 24M68 25L69 26L68 25z"/>
<path style="fill:#9b9740; stroke:none;" d="M70 25L71 26L70 25z"/>
<path style="fill:#686549; stroke:none;" d="M73 25L74 26L73 25M77.6667 25.3333L78.3333 25.6667L77.6667 25.3333M80 25L81 26L80 25z"/>
<path style="fill:#9b9740; stroke:none;" d="M98 25L99 26L98 25z"/>
<path style="fill:#686549; stroke:none;" d="M99 25L100 26L99 25M103 25L104 26L103 25z"/>
<path style="fill:#9b9740; stroke:none;" d="M104 25L105 26L104 25z"/>
<path style="fill:#686549; stroke:none;" d="M112 25L113 26L112 25M114 25L115 26L114 25z"/>
<path style="fill:#9b9740; stroke:none;" d="M120 25L121 26L120 25z"/>
<path style="fill:#686549; stroke:none;" d="M122 25L123 26L122 25z"/>
<path style="fill:#9b9740; stroke:none;" d="M124 25L125 26L124 25z"/>
<path style="fill:#686549; stroke:none;" d="M67 26L68 27L67 26z"/>
<path style="fill:#9b9740; stroke:none;" d="M69 26L68 28L70 28L69 26z"/>
<path style="fill:#686549; stroke:none;" d="M71 26L72 27L71 26z"/>
<path style="fill:#9b9740; stroke:none;" d="M76.6667 26.3333L77.3333 26.6667L76.6667 26.3333z"/>
<path style="fill:#686549; stroke:none;" d="M79 26L80 27L79 26z"/>
<path style="fill:#9b9740; stroke:none;" d="M102 26L103 27L102 26z"/>
<path style="fill:#686549; stroke:none;" d="M106 26L107 27L106 26z"/>
<path style="fill:#9b9740; stroke:none;" d="M113 26L114 27L113 26M121 26L122 27L121 26z"/>
<path style="fill:#686549; stroke:none;" d="M123 26L124 27L123 26z"/>
<path style="fill:#fad53e; stroke:none;" d="M125 26L126 27L125 26M137 26L138 27L137 26z"/>
<path style="fill:#686549; stroke:none;" d="M138 26L140 28L138 26z"/>
<path style="fill:#1e1c1d; stroke:none;" d="M139.667 26.3333L140.333 26.6667L139.667 26.3333z"/>
<path style="fill:#9b9740; stroke:none;" d="M66 27L67 28L66 27z"/>
<path style="fill:#686549; stroke:none;" d="M72 27L73 28L72 27z"/>
<path style="fill:#fad53e; stroke:none;" d="M63 55L64 55C64.9564 44.0452 71.172 35.8474 77 27C66.9044 31.7478 63.0861 44.6031 63 55z"/>
<path style="fill:#686549; stroke:none;" d="M78 27L79 28L78 27z"/>
<path style="fill:#9b9740; stroke:none;" d="M104 27L105 28L104 27z"/>
<path style="fill:#686549; stroke:none;" d="M105 27L106 28L105 27M108 27L109 28L108 27z"/>
<path style="fill:#9b9740; stroke:none;" d="M122 27L123 28L122 27z"/>
<path style="fill:#686549; stroke:none;" d="M124 27L125 28L124 27z"/>
<path style="fill:#fad53e; stroke:none;" d="M126 27L127 28L126 27z"/>
<path style="fill:#686549; stroke:none;" d="M128 27L129 28L128 27M136 27L138 29L136 27z"/>
<path style="fill:#1e1c1d; stroke:none;" d="M137.667 27.3333L138.333 27.6667L137.667 27.3333z"/>
<path style="fill:#9b9740; stroke:none;" d="M54 28L55 29L54 28z"/>
<path style="fill:#686549; stroke:none;" d="M55 28L56 29L55 28z"/>
<path style="fill:#fad53e; stroke:none;" d="M56 28L57 29L56 28M65 28L66 29L65 28z"/>
<path style="fill:#686549; stroke:none;" d="M67.6667 28.3333L68.3333 28.6667L67.6667 28.3333z"/>
<path style="fill:#9b9740; stroke:none;" d="M70 28L71 29L70 28z"/>
<path style="fill:#fad53e; stroke:none;" d="M71 28L72 29L71 28z"/>
<path style="fill:#686549; stroke:none;" d="M77 28L78 29L77 28z"/>
<path style="fill:#9b9740; stroke:none;" d="M107 28L108 29L107 28M110 28L111 29L110 28M123 28L124 29L123 28z"/>
<path style="fill:#686549; stroke:none;" d="M125 28L126 29L125 28z"/>
<path style="fill:#9b9740; stroke:none;" d="M127 28L128 29L127 28z"/>
<path style="fill:#686549; stroke:none;" d="M129 28L130 29L129 28z"/>
<path style="fill:#9b9740; stroke:none;" d="M134 28L135 29L134 28z"/>
<path style="fill:#1e1c1d; stroke:none;" d="M134 30L137 29L134 30z"/>
<path style="fill:#fad53e; stroke:none;" d="M54 29L55 30L54 29z"/>
<path style="fill:#1e1c1d; stroke:none;" d="M55 29L55 30L59 31L59 30L55 29z"/>
<path style="fill:#9b9740; stroke:none;" d="M58 29L59 30L58 29z"/>
<path style="fill:#fad53e; stroke:none;" d="M69 29L65 32C59.2237 61.1702 53.4104 103.268 87 120C67.5163 92.0074 49.8748 61.3465 71 29L69 29z"/>
<path style="fill:#686549; stroke:none;" d="M72 29L73 30L72 29M109 29L110 30L109 29z"/>
<path style="fill:#9b9740; stroke:none;" d="M112 29L113 30L112 29M124 29L125 30L124 29M126 29L127 30L126 29M128 29L129 30L128 29M130 29L131 30L130 29z"/>
<path style="fill:#686549; stroke:none;" d="M135 29L136 30L135 29z"/>
<path style="fill:#fad53e; stroke:none;" d="M56 30L57 31L56 30z"/>
<path style="fill:#686549; stroke:none;" d="M57 30L58 31L57 30M59 30L60 31L59 30z"/>
<path style="fill:#9b9740; stroke:none;" d="M64 30L65 31L64 30z"/>
<path style="fill:#686549; stroke:none;" d="M67 30L68 31L67 30z"/>
<path style="fill:#fdfdfd; stroke:none;" d="M68 30L69 31L68 30z"/>
<path style="fill:#686549; stroke:none;" d="M71 30L72 31L71 30M74 30L75 31L74 30M113 30L114 31L113 30M125 30L126 31L125 30z"/>
<path style="fill:#9b9740; stroke:none;" d="M127 30L128 31L127 30z"/>
<path style="fill:#686549; stroke:none;" d="M129 30L130 31L129 30z"/>
<path style="fill:#9b9740; stroke:none;" d="M131 30L132 31L131 30M66 31L67 32L66 31z"/>
<path style="fill:#fdfdfd; stroke:none;" d="M67 31L68 32L67 31z"/>
<path style="fill:#9b9740; stroke:none;" d="M73 31L74 32L73 31M75 31L76 32L75 31M112 31L113 32L112 31z"/>
<path style="fill:#686549; stroke:none;" d="M120 31L121 32L120 31M126 31L127 32L126 31M130 31L131 32L130 31z"/>
<path style="fill:#fdfdfd; stroke:none;" d="M66 32L67 33L66 32z"/>
<path style="fill:#686549; stroke:none;" d="M68 32L69 33L68 32M74 32L75 33L74 32z"/>
<path style="fill:#9b9740; stroke:none;" d="M116 32L117 33L116 32M119 32L120 33L119 32M121 32L122 33L121 32z"/>
<path style="fill:#686549; stroke:none;" d="M128 32L129 33L128 32M132 32L133 33L132 32M62 33L63 34L62 33z"/>
<path style="fill:#9b9740; stroke:none;" d="M64 33L65 34L64 33z"/>
<path style="fill:#fdfdfd; stroke:none;" d="M65 33L66 34L65 33z"/>
<path style="fill:#9b9740; stroke:none;" d="M67 33L68 34L67 33M69 33L70 34L69 33z"/>
<path style="fill:#686549; stroke:none;" d="M115 33L116 34L115 33z"/>
<path style="fill:#9b9740; stroke:none;" d="M117 33L118 34L117 33z"/>
<path style="fill:#686549; stroke:none;" d="M120 33L121 34L120 33z"/>
<path style="fill:#9b9740; stroke:none;" d="M129 33L130 34L129 33M131 33L132 34L131 33M133 33L134 34L133 33z"/>
<path style="fill:#686549; stroke:none;" d="M61 34L62 35L61 34M63 34L64 35L63 34z"/>
<path style="fill:#fdfdfd; stroke:none;" d="M64 34L65 35L64 34z"/>
<path style="fill:#686549; stroke:none;" d="M68 34L69 35L68 34z"/>
<path style="fill:#9b9740; stroke:none;" d="M71 34L72 35L71 34M73 34L74 35L73 34z"/>
<path style="fill:#686549; stroke:none;" d="M116 34L117 35L116 34z"/>
<path style="fill:#9b9740; stroke:none;" d="M118 34L119 35L118 34z"/>
<path style="fill:#fdfdfd; stroke:none;" d="M127 34L129 36L127 34z"/>
<path style="fill:#686549; stroke:none;" d="M128 34L129 35L128 34z"/>
<path style="fill:#fad53e; stroke:none;" d="M130 34L131 35L130 34z"/>
<path style="fill:#686549; stroke:none;" d="M132 34L133 35L132 34z"/>
<path style="fill:#9b9740; stroke:none;" d="M60 35L61 36L60 35M63 35L64 36L63 35z"/>
<path style="fill:#686549; stroke:none;" d="M66 35L67 36L66 35M72 35L73 36L72 35M117 35L118 36L117 35z"/>
<path style="fill:#9b9740; stroke:none;" d="M119 35L120 36L119 35M123 35L124 36L123 35z"/>
<path style="fill:#686549; stroke:none;" d="M130 35L131 36L130 35M134 35L135 36L134 35z"/>
<path style="fill:#fad53e; stroke:none;" d="M141.667 35.3333L142.333 35.6667L141.667 35.3333z"/>
<path style="fill:#9b9740; stroke:none;" d="M143.667 35.3333L144.333 35.6667L143.667 35.3333z"/>
<path style="fill:#686549; stroke:none;" d="M145.333 35.6667L145.667 36.3333L145.333 35.6667z"/>
<path style="fill:#9b9740; stroke:none;" d="M67 36L68 37L67 36z"/>
<path style="fill:#686549; stroke:none;" d="M70 36L71 37L70 36z"/>
<path style="fill:#9b9740; stroke:none;" d="M118 36L119 37L118 36M120 36L121 37L120 36z"/>
<path style="fill:#686549; stroke:none;" d="M122 36L123 37L122 36z"/>
<path style="fill:#9b9740; stroke:none;" d="M131 36L132 37L131 36M133 36L134 37L133 36z"/>
<path style="fill:#fad53e; stroke:none;" d="M135 36L136 37L135 36z"/>
<path style="fill:#9b9740; stroke:none;" d="M138 36L138 37L143 38L143 37L138 36z"/>
<path style="fill:#1e1c1d; stroke:none;" d="M139 36L139 37L145 37L139 36z"/>
<path style="fill:#9b9740; stroke:none;" d="M44 38L44 39L48 38L44 38z"/>
<path style="fill:#686549; stroke:none;" d="M48 37L48 38L54 38L48 37z"/>
<path style="fill:#fad53e; stroke:none;" d="M54 37L55 38L54 37z"/>
<path style="fill:#686549; stroke:none;" d="M59 37L60 38L59 37M62 37L63 38L62 37M65 37L66 38L65 37z"/>
<path style="fill:#9b9740; stroke:none;" d="M69 37L70 38L69 37M71 37L72 38L71 37z"/>
<path style="fill:#686549; stroke:none;" d="M119 37L120 38L119 37z"/>
<path style="fill:#9b9740; stroke:none;" d="M121 37L122 38L121 37z"/>
<path style="fill:#fdfdfd; stroke:none;" d="M129 37L133 48L134 48L129 37z"/>
<path style="fill:#686549; stroke:none;" d="M130 37L131 38L130 37M135 37L136 38L135 37z"/>
<path style="fill:#fad53e; stroke:none;" d="M138 37L139 38L138 37z"/>
<path style="fill:#1e1c1d; stroke:none;" d="M45 38L45 39L51 39L45 38M53 38L54 39L53 38z"/>
<path style="fill:#9b9740; stroke:none;" d="M54 38L55 39L54 38z"/>
<path style="fill:#686549; stroke:none;" d="M60 38L62 41L60 38z"/>
<path style="fill:#9b9740; stroke:none;" d="M62 38L63 39L62 38M64 38L65 39L64 38M66 38L67 39L66 38z"/>
<path style="fill:#686549; stroke:none;" d="M69 38L70 39L69 38M120 38L121 39L120 38z"/>
<path style="fill:#9b9740; stroke:none;" d="M125 38L126 39L125 38M132 38L133 39L132 38M134 38L135 39L134 38z"/>
<path style="fill:#fad53e; stroke:none;" d="M136 38L137 39L136 38z"/>
<path style="fill:#686549; stroke:none;" d="M58 39L59 40L58 39M64 39L65 40L64 39z"/>
<path style="fill:#9b9740; stroke:none;" d="M68 39L69 40L68 39M70 39L71 40L70 39z"/>
<path style="fill:#686549; stroke:none;" d="M124 39L125 40L124 39M131 39L132 40L131 39M136 39L137 40L136 39z"/>
<path style="fill:#9b9740; stroke:none;" d="M59 40L60 41L59 40z"/>
<path style="fill:#686549; stroke:none;" d="M65 40L66 41L65 40M68 40L69 41L68 40M123 40L124 41L123 40z"/>
<path style="fill:#9b9740; stroke:none;" d="M126 40L127 41L126 40M133 40L134 41L133 40M135 40L136 41L135 40M57 41L58 42L57 41z"/>
<path style="fill:#fdfdfd; stroke:none;" d="M59 41L60 42L59 41z"/>
<path style="fill:#1e1c1d; stroke:none;" d="M60 41L59 50L60 50L60 41z"/>
<path style="fill:#9b9740; stroke:none;" d="M61 41L62 42L61 41M63 41L64 42L63 41M69 41L70 42L69 41M122 41L123 42L122 41M124.667 41.3333L125.333 41.6667L124.667 41.3333z"/>
<path style="fill:#686549; stroke:none;" d="M132 41L133 42L132 41z"/>
<path style="fill:#9b9740; stroke:none;" d="M137 41L138 42L137 41z"/>
<path style="fill:#686549; stroke:none;" d="M58 42L60 44L58 42z"/>
<path style="fill:#9b9740; stroke:none;" d="M59 42L60 43L59 42z"/>
<path style="fill:#686549; stroke:none;" d="M64 42L65 43L64 42M67 42L68 43L67 42M123 42L124 43L123 42z"/>
<path style="fill:#fad53e; stroke:none;" d="M125 42L126 43L125 42z"/>
<path style="fill:#9b9740; stroke:none;" d="M127 42L128 43L127 42M134 42L135 43L134 42z"/>
<path style="fill:#686549; stroke:none;" d="M136 42L137 43L136 42z"/>
<path style="fill:#fad53e; stroke:none;" d="M56 43L57 44L56 43z"/>
<path style="fill:#fdfdfd; stroke:none;" d="M58 43L58 46L59 46L58 43z"/>
<path style="fill:#9b9740; stroke:none;" d="M64 43L65 44L64 43z"/>
<path style="fill:#686549; stroke:none;" d="M68 43L69 44L68 43M125.667 43.3333L126.333 43.6667L125.667 43.3333M133 43L134 44L133 43z"/>
<path style="fill:#9b9740; stroke:none;" d="M136 43L137 44L136 43M146 43L147 44L146 43z"/>
<path style="fill:#686549; stroke:none;" d="M147.333 43.6667L147.667 44.3333L147.333 43.6667z"/>
<path style="fill:#9b9740; stroke:none;" d="M148.333 43.6667L148.667 44.3333L148.333 43.6667z"/>
<path style="fill:#686549; stroke:none;" d="M56 44L57 45L56 44M60 44L61 45L60 44z"/>
<path style="fill:#9b9740; stroke:none;" d="M62 44L63 45L62 44M66 44L67 45L66 44M68 44L69 45L68 44M124 44L125 45L124 44M126 44L127 45L126 44M128 44L129 45L128 44M133 44L134 45L133 44M138 44L139 45L138 44z"/>
<path style="fill:#fad53e; stroke:none;" d="M142 44L143 45L142 44z"/>
<path style="fill:#686549; stroke:none;" d="M143.667 44.3333L144.333 44.6667L143.667 44.3333z"/>
<path style="fill:#1e1c1d; stroke:none;" d="M145.667 44.3333L146.333 44.6667L145.667 44.3333z"/>
<path style="fill:#686549; stroke:none;" d="M57 45L58 46L57 45z"/>
<path style="fill:#9b9740; stroke:none;" d="M60.3333 45.6667L60.6667 46.3333L60.3333 45.6667z"/>
<path style="fill:#686549; stroke:none;" d="M62 45L63 46L62 45M125 45L126 46L125 45M127 45L128 46L127 45M135 45L136 46L135 45M138 45L139 46L138 45z"/>
<path style="fill:#9b9740; stroke:none;" d="M142 45L143 46L142 45z"/>
<path style="fill:#1e1c1d; stroke:none;" d="M143 45L144 46L143 45z"/>
<path style="fill:#9b9740; stroke:none;" d="M144 45L145 46L144 45z"/>
<path style="fill:#fad53e; stroke:none;" d="M145 45L146 46L145 45z"/>
<path style="fill:#9b9740; stroke:none;" d="M57 46L59 48L57 46z"/>
<path style="fill:#fad53e; stroke:none;" d="M58 46L59 47L58 46z"/>
<path style="fill:#686549; stroke:none;" d="M63 46L64 47L63 46z"/>
<path style="fill:#9b9740; stroke:none;" d="M67 46L68 47L67 46M129 46L130 47L129 46z"/>
<path style="fill:#686549; stroke:none;" d="M134 46L135 47L134 46M137 46L138 47L137 46z"/>
<path style="fill:#9b9740; stroke:none;" d="M55 47L56 48L55 47z"/>
<path style="fill:#fdfdfd; stroke:none;" d="M57 47L57 50L58 50L57 47z"/>
<path style="fill:#9b9740; stroke:none;" d="M63 47L64 48L63 47M65 47L66 48L65 47M126 47L127 48L126 47z"/>
<path style="fill:#686549; stroke:none;" d="M129 47L130 48L129 47z"/>
<path style="fill:#fad53e; stroke:none;" d="M136 47L137 48L136 47z"/>
<path style="fill:#9b9740; stroke:none;" d="M137 47L138 48L137 47z"/>
<path style="fill:#686549; stroke:none;" d="M55 48L57 50L57 48L55 48M58 48L59 54L60 54L58 48z"/>
<path style="fill:#9b9740; stroke:none;" d="M61.3333 48.6667L61.6667 49.3333L61.3333 48.6667z"/>
<path style="fill:#686549; stroke:none;" d="M65 48L66 49L65 48z"/>
<path style="fill:#fdfdfd; stroke:none;" d="M134 48L135 71L136 71C137.365 63.647 138.01 54.651 134 48z"/>
<path style="fill:#686549; stroke:none;" d="M136 48L137 49L136 48z"/>
<path style="fill:#fdfdfd; stroke:none;" d="M137 48L137 51L138 51L137 48z"/>
<path style="fill:#9b9740; stroke:none;" d="M139 48L140 49L139 48z"/>
<path style="fill:#686549; stroke:none;" d="M45 49L45 51L47 49L45 49z"/>
<path style="fill:#9b9740; stroke:none;" d="M47.6667 49.3333L48.3333 49.6667L47.6667 49.3333z"/>
<path style="fill:#fad53e; stroke:none;" d="M49 49L50 50L49 49z"/>
<path style="fill:#1e1c1d; stroke:none;" d="M55 49L55 53L56 53L55 49z"/>
<path style="fill:#686549; stroke:none;" d="M66 49L67 50L66 49z"/>
<path style="fill:#9b9740; stroke:none;" d="M127 49L128 50L127 49M130 49L131 50L130 49z"/>
<path style="fill:#686549; stroke:none;" d="M135 49L136 50L135 49M139 49L138 52L139 49z"/>
<path style="fill:#1e1c1d; stroke:none;" d="M46 50L46 51L51 51L46 50z"/>
<path style="fill:#9b9740; stroke:none;" d="M51 50L50 52L51 50M56 50L57 51L56 50z"/>
<path style="fill:#fad53e; stroke:none;" d="M57 50C53.3865 61.8919 56.3169 73.2678 59 85L60 85L57.1289 62L57 50z"/>
<path style="fill:#686549; stroke:none;" d="M61.3333 50.6667L61.6667 51.3333L61.3333 50.6667z"/>
<path style="fill:#9b9740; stroke:none;" d="M64 50L65 51L64 50M66 50L67 51L66 50z"/>
<path style="fill:#686549; stroke:none;" d="M130 50L131 51L130 50z"/>
<path style="fill:#9b9740; stroke:none;" d="M135 50L136 51L135 50z"/>
<path style="fill:#fad53e; stroke:none;" d="M51 51L52 52L51 51z"/>
<path style="fill:#9b9740; stroke:none;" d="M54.3333 51.6667L54.6667 52.3333L54.3333 51.6667z"/>
<path style="fill:#1e1c1d; stroke:none;" d="M58 51L58 72L59 72L58 51z"/>
<path style="fill:#686549; stroke:none;" d="M64 51L65 52L64 51z"/>
<path style="fill:#9b9740; stroke:none;" d="M128 51L129 52L128 51M137 51L139 54L137 51z"/>
<path style="fill:#686549; stroke:none;" d="M62 52L61 58L65 60L62 52M65.3333 52.6667L65.6667 53.3333L65.3333 52.6667z"/>
<path style="fill:#9b9740; stroke:none;" d="M131 52L132 53L131 52z"/>
<path style="fill:#686549; stroke:none;" d="M54 53L56 55L56 53L54 53M129 53L130 54L129 53M131 53L132 54L131 53M136.667 53.3333L137.333 53.6667L136.667 53.3333z"/>
<path style="fill:#1e1c1d; stroke:none;" d="M54 54C54 77.9101 62.6538 113.647 87 125L87 127C82.3522 129.633 81.0384 139.226 86 142C83.3183 147.786 87.7118 149.52 93 150L93 151C89.0835 151.942 85.8044 152.801 85 157L86 157C86 152.235 106.38 148.31 111 146C110.793 150.658 108.29 151.22 104 151L104 152L107 152L105 154L105 155C114.974 153.9 118.823 164.684 119 173L109 170L109 171C118.423 172.708 117.433 181.803 108.004 182.713C98.6412 183.617 102.706 173.545 108 171L108 170C94.2753 173.896 103.41 189.969 114.892 181.352C116.859 179.875 117.878 178.112 119 176L121 176L126 188L127 188C126.165 182.452 123.027 178.992 120.934 174C117.332 165.407 118.663 159.157 110 153C113.21 149.232 111.912 146.505 111 142L110 142L109 144L107 143C110.118 138.494 113.707 134.663 109 130L109 129C116.266 123.636 123.132 113.14 127 105L125 106L125 105L130 94L129 94L123 107L125 106L125 107L122 108C117.491 116.559 111.34 125.646 101 127L101 125C112.565 123.744 127.514 104.688 126 93L128 94L127 91L126 91C121.384 102.087 114.977 113.913 105 121C107.881 115.016 106.889 108.1 109.533 102C113.765 92.2364 122.479 86.3732 123 75L122 75C121.233 83.7306 115.913 89.0527 111.223 96C107.627 101.328 108.115 117.296 102.772 119.864C97.421 122.436 88.4263 112.508 85.4645 108.985C72.7955 93.9153 68.3587 76.0886 63 58L62 58C62.5646 71.1494 63.7876 84.324 70.4282 96C75.2773 104.526 86.2169 114.208 89 123L95 125L95 126C87.3459 125.773 83.1813 121.167 78 116L88 122L88 121C76.4811 113.164 68.5445 104.346 64 91L62 93L55.439 71L54 54z"/>
<path style="fill:#9b9740; stroke:none;" d="M59 54L59 59L60 59L59 54M65 54L66 55L65 54M129 54L130 55L129 54M136 54L137 55L136 54z"/>
<path style="fill:#686549; stroke:none;" d="M138.333 54.6667L138.667 55.3333L138.333 54.6667z"/>
<path style="fill:#9b9740; stroke:none;" d="M55 55L55 58L56 58L55 55M63.3333 55.6667L63.6667 56.3333L63.3333 55.6667M132.333 55.6667L132.667 56.3333L132.333 55.6667z"/>
<path style="fill:#fad53e; stroke:none;" d="M136 55L137 56L136 55z"/>
<path style="fill:#686549; stroke:none;" d="M142 55L143 56L142 55z"/>
<path style="fill:#1e1c1d; stroke:none;" d="M143 55L143 56L147 56L143 55z"/>
<path style="fill:#9b9740; stroke:none;" d="M147 55L148 56L147 55M130.333 56.6667L130.667 57.3333L130.333 56.6667z"/>
<path style="fill:#fad53e; stroke:none;" d="M142 56L143 57L142 56z"/>
<path style="fill:#9b9740; stroke:none;" d="M143 56L143 57L146 57L143 56z"/>
<path style="fill:#fad53e; stroke:none;" d="M146 56L147 57L146 56M53 57L54 58L53 57z"/>
<path style="fill:#9b9740; stroke:none;" d="M57 57L57 66L58 66L57 57z"/>
<path style="fill:#686549; stroke:none;" d="M132 57L133 58L132 57M137 57L137 60L138 60L137 57z"/>
<path style="fill:#9b9740; stroke:none;" d="M53 58L53 68L54 68L53 58M61 58L61 61L62 61L61 58z"/>
<path style="fill:#686549; stroke:none;" d="M131 59L132 60L131 59M139 59L139 62L140 62L139 59z"/>
<path style="fill:#9b9740; stroke:none;" d="M59 60L60 61L59 60M64 60L64 64L65 64L64 60M131 60L132 61L131 60M133.333 60.6667L133.667 61.3333L133.333 60.6667M137 60L137 63L138 63L137 60z"/>
<path style="fill:#fad53e; stroke:none;" d="M44 61L45 62L44 61z"/>
<path style="fill:#9b9740; stroke:none;" d="M45 61L45 62L51 63L45 61z"/>
<path style="fill:#686549; stroke:none;" d="M42 62L42 64L44 64L42 62z"/>
<path style="fill:#1e1c1d; stroke:none;" d="M43 62L43 63L50 63L43 62z"/>
<path style="fill:#686549; stroke:none;" d="M133.333 62.6667L133.667 63.3333L133.333 62.6667z"/>
<path style="fill:#9b9740; stroke:none;" d="M139.333 62.6667L139.667 63.3333L139.333 62.6667M44.6667 63.3333L45.3333 63.6667L44.6667 63.3333z"/>
<path style="fill:#fad53e; stroke:none;" d="M46 63L47 64L46 63z"/>
<path style="fill:#686549; stroke:none;" d="M62.3333 63.6667L62.6667 64.3333L62.3333 63.6667z"/>
<path style="fill:#fad53e; stroke:none;" d="M137 63L138 64L137 63z"/>
<path style="fill:#9b9740; stroke:none;" d="M142 63L143 64L142 63z"/>
<path style="fill:#1e1c1d; stroke:none;" d="M143 63L143 64L149 65L149 64L143 63z"/>
<path style="fill:#686549; stroke:none;" d="M145.667 63.3333L146.333 63.6667L145.667 63.3333z"/>
<path style="fill:#9b9740; stroke:none;" d="M147 63L148 64L147 63z"/>
<path style="fill:#686549; stroke:none;" d="M132 64L132 71L133 71L132 64z"/>
<path style="fill:#9b9740; stroke:none;" d="M137 64L138 65L137 64z"/>
<path style="fill:#fad53e; stroke:none;" d="M139 64L140 65L139 64M142 64L143 65L142 64z"/>
<path style="fill:#686549; stroke:none;" d="M143.667 64.3333L144.333 64.6667L143.667 64.3333z"/>
<path style="fill:#9b9740; stroke:none;" d="M62 65L62 72L63 72L62 65z"/>
<path style="fill:#686549; stroke:none;" d="M137.333 65.6667L137.667 66.3333L137.333 65.6667z"/>
<path style="fill:#9b9740; stroke:none;" d="M139 65L139 70L140 70L139 65z"/>
<path style="fill:#fad53e; stroke:none;" d="M147 65L148 66L147 65z"/>
<path style="fill:#9b9740; stroke:none;" d="M148 65L149 66L148 65M59 66L59 71L60 71L59 66M64 66L65 67L64 66M55 67L55 70L56 70L55 67z"/>
<path style="fill:#686549; stroke:none;" d="M64 67L65 68L64 67z"/>
<path style="fill:#9b9740; stroke:none;" d="M111 67L112 68L111 67z"/>
<path style="fill:#686549; stroke:none;" d="M112 67L112 68L117 68L112 67z"/>
<path style="fill:#9b9740; stroke:none;" d="M117 67L118 68L117 67z"/>
<path style="fill:#fad53e; stroke:none;" d="M53 68L54 69L53 68z"/>
<path style="fill:#9b9740; stroke:none;" d="M109 68L110 69L109 68z"/>
<path style="fill:#1e1c1d; stroke:none;" d="M93 76C85.7804 73.8668 76.0733 76.3906 79.7423 85.9992C81.8749 91.5844 87.9416 93.7828 91.6096 98.0934C96.3656 103.683 97.117 111.019 98 118L99 118C98.4269 110.739 97.5757 102.794 92.6597 97.0432C89.2106 93.0083 83.6052 90.9106 81.1829 85.9961C77.149 77.812 85.9675 75.5811 92 77C89.6645 84.9788 96.9895 93.9332 102 84L101 84C95.0043 91.1044 91.5611 83.2825 93 77L100 83L101 83L94 76L94 74L106 71C99.9407 87.6558 121.461 84.0223 109 70L113 69C106.49 67.3884 96.1078 69.6997 93 76M116 68L116 69L121 74L122 74L116 68z"/>
<path style="fill:#686549; stroke:none;" d="M118 68L119 69L118 68z"/>
<path style="fill:#9b9740; stroke:none;" d="M134 68L134 74L135 74L134 68M136 68L137 69L136 68M99 69L100 70L99 69z"/>
<path style="fill:#686549; stroke:none;" d="M100.667 69.3333L101.333 69.6667L100.667 69.3333M104.667 69.3333L105.333 69.6667L104.667 69.3333z"/>
<path style="fill:#9b9740; stroke:none;" d="M106 69L107 70L106 69z"/>
<path style="fill:#686549; stroke:none;" d="M108 69L109 70L108 69M110 69L111 70L110 69z"/>
<path style="fill:#9b9740; stroke:none;" d="M117 69L118 70L117 69z"/>
<path style="fill:#686549; stroke:none;" d="M136 69L137 70L136 69z"/>
<path style="fill:#9b9740; stroke:none;" d="M48 70L49 71L48 70z"/>
<path style="fill:#686549; stroke:none;" d="M49 70L49 72L51 70L49 70M55.3333 70.6667L55.6667 71.3333L55.3333 70.6667z"/>
<path style="fill:#9b9740; stroke:none;" d="M65 70L66 71L65 70M97 70L98 71L97 70z"/>
<path style="fill:#686549; stroke:none;" d="M102.667 70.3333L103.333 70.6667L102.667 70.3333z"/>
<path style="fill:#9b9740; stroke:none;" d="M109 70L110 71L109 70z"/>
<path style="fill:#fad53e; stroke:none;" d="M139 70L140 71L139 70z"/>
<path style="fill:#9b9740; stroke:none;" d="M46 71L47 72L46 71z"/>
<path style="fill:#1e1c1d; stroke:none;" d="M45 72L45 73L49 72L45 72z"/>
<path style="fill:#fad53e; stroke:none;" d="M50 71L51 72L50 71z"/>
<path style="fill:#686549; stroke:none;" d="M59 71L58 75L59 75L59 71M65 71L66 72L65 71M98 71L99 72L98 71z"/>
<path style="fill:#9b9740; stroke:none;" d="M99 71L100 72L99 71M110 71L111 72L110 71z"/>
<path style="fill:#686549; stroke:none;" d="M121 71L122 72L121 71z"/>
<path style="fill:#fad53e; stroke:none;" d="M135 71L136 72L135 71z"/>
<path style="fill:#686549; stroke:none;" d="M137 71L138 72L137 71M44.3333 72.6667L44.6667 73.3333L44.3333 72.6667M47 72L48 73L47 72M54 72L55 73L54 72M64 72L64 76L65 76L64 72z"/>
<path style="fill:#9b9740; stroke:none;" d="M94 72L95 73L94 72M105 72L106 73L105 72z"/>
<path style="fill:#fad53e; stroke:none;" d="M107 72C103.264 87.7425 119.365 78.1009 107 72z"/>
<path style="fill:#686549; stroke:none;" d="M109 72L110 73L109 72z"/>
<path style="fill:#9b9740; stroke:none;" d="M111 72L112 73L111 72z"/>
<path style="fill:#686549; stroke:none;" d="M120 72L121 73L120 72M135 72L136 73L135 72z"/>
<path style="fill:#9b9740; stroke:none;" d="M137 72L136 74L138 74L137 72z"/>
<path style="fill:#1e1c1d; stroke:none;" d="M142 72L142 73L147 74L147 73L142 72z"/>
<path style="fill:#686549; stroke:none;" d="M145 72L146 73L145 72z"/>
<path style="fill:#9b9740; stroke:none;" d="M146 72L147 73L146 72z"/>
<path style="fill:#fad53e; stroke:none;" d="M43 73L44 74L43 73z"/>
<path style="fill:#9b9740; stroke:none;" d="M45 73L46 74L45 73M54.3333 73.6667L54.6667 74.3333L54.3333 73.6667z"/>
<path style="fill:#686549; stroke:none;" d="M66 73L67 74L66 73z"/>
<path style="fill:#9b9740; stroke:none;" d="M93 73L94 74L93 73z"/>
<path style="fill:#686549; stroke:none;" d="M95 73L96 74L95 73z"/>
<path style="fill:#9b9740; stroke:none;" d="M106 73L107 74L106 73M110 73L111 74L110 73M112 73L113 74L112 73M122 73L123 74L122 73M142.667 73.3333L143.333 73.6667L142.667 73.3333z"/>
<path style="fill:#686549; stroke:none;" d="M144 73L145 74L144 73z"/>
<path style="fill:#9b9740; stroke:none;" d="M147 73L148 74L147 73M56.3333 74.6667L56.6667 75.3333L56.3333 74.6667z"/>
<path style="fill:#1e1c1d; stroke:none;" d="M59 74L61 87L62 87L59 74z"/>
<path style="fill:#9b9740; stroke:none;" d="M85 74L85 75L90 75L85 74z"/>
<path style="fill:#686549; stroke:none;" d="M94 74L95 75L94 74M104 74L105 75L104 74z"/>
<path style="fill:#9b9740; stroke:none;" d="M111 74L112 75L111 74M113 74L114 75L113 74z"/>
<path style="fill:#686549; stroke:none;" d="M121.667 74.3333L122.333 74.6667L121.667 74.3333z"/>
<path style="fill:#9b9740; stroke:none;" d="M131 74L132 75L131 74z"/>
<path style="fill:#686549; stroke:none;" d="M134 74L135 75L134 74z"/>
<path style="fill:#fad53e; stroke:none;" d="M136 74L137 75L136 74z"/>
<path style="fill:#686549; stroke:none;" d="M137 74L138 75L137 74z"/>
<path style="fill:#9b9740; stroke:none;" d="M58.3333 75.6667L58.6667 76.3333L58.3333 75.6667z"/>
<path style="fill:#fad53e; stroke:none;" d="M65 75C67.2006 92.0404 81.3024 122.537 101 123L101 122C79.5425 115.148 75.8309 91.3102 65 75z"/>
<path style="fill:#9b9740; stroke:none;" d="M67 75L68 76L67 75z"/>
<path style="fill:#686549; stroke:none;" d="M82 75L83 76L82 75M92 75L93 76L92 75M105 75L106 76L105 75M113 75L114 76L113 75z"/>
<path style="fill:#9b9740; stroke:none;" d="M121 75L121 78L122 78L121 75z"/>
<path style="fill:#686549; stroke:none;" d="M131.333 75.6667L131.667 76.3333L131.333 75.6667z"/>
<path style="fill:#fdfdfd; stroke:none;" d="M136 75L133 88L134 88L136 75z"/>
<path style="fill:#686549; stroke:none;" d="M138 75L139 76L138 75M56 76L57 77L56 76M63 76L64 77L63 76M67 76L68 77L67 76z"/>
<path style="fill:#9b9740; stroke:none;" d="M80 76L81 77L80 76z"/>
<path style="fill:#686549; stroke:none;" d="M83 76L84 77L83 76z"/>
<path style="fill:#9b9740; stroke:none;" d="M84 76L85 77L84 76M89.6667 76.3333L90.3333 76.6667L89.6667 76.3333z"/>
<path style="fill:#686549; stroke:none;" d="M95 76L96 77L95 76z"/>
<path style="fill:#9b9740; stroke:none;" d="M105 76L105 79L106 79L105 76M112 76L113 77L112 76M135 76L136 77L135 76M138.333 76.6667L138.667 77.3333L138.333 76.6667z"/>
<path style="fill:#686549; stroke:none;" d="M55 77L56 78L55 77z"/>
<path style="fill:#9b9740; stroke:none;" d="M60 77L61 78L60 77M63.3333 77.6667L63.6667 78.3333L63.3333 77.6667M66 77L67 78L66 77z"/>
<path style="fill:#686549; stroke:none;" d="M81 77L82 78L81 77z"/>
<path style="fill:#9b9740; stroke:none;" d="M91 77L92 78L91 77z"/>
<path style="fill:#fad53e; stroke:none;" d="M93 77C91.7041 92.6757 105.757 83.6968 93 77z"/>
<path style="fill:#9b9740; stroke:none;" d="M94 77L95 78L94 77z"/>
<path style="fill:#686549; stroke:none;" d="M97 77L98 78L97 77z"/>
<path style="fill:#9b9740; stroke:none;" d="M114 77L115 78L114 77z"/>
<path style="fill:#686549; stroke:none;" d="M132 77L133 78L132 77z"/>
<path style="fill:#fad53e; stroke:none;" d="M136 77L137 78L136 77z"/>
<path style="fill:#9b9740; stroke:none;" d="M50 78L50 81L53 78L50 78z"/>
<path style="fill:#1e1c1d; stroke:none;" d="M51 78L52 79L51 78z"/>
<path style="fill:#9b9740; stroke:none;" d="M55 78L56 79L55 78z"/>
<path style="fill:#686549; stroke:none;" d="M60.3333 78.6667L60.6667 79.3333L60.3333 78.6667z"/>
<path style="fill:#9b9740; stroke:none;" d="M65.3333 78.6667L65.6667 79.3333L65.3333 78.6667z"/>
<path style="fill:#686549; stroke:none;" d="M68 78L69 79L68 78M92 78L93 79L92 78z"/>
<path style="fill:#9b9740; stroke:none;" d="M96 78L97 79L96 78z"/>
<path style="fill:#686549; stroke:none;" d="M114 78L115 79L114 78M121.333 78.6667L121.667 79.3333L121.333 78.6667z"/>
<path style="fill:#9b9740; stroke:none;" d="M130 78L131 79L130 78M132 78L131 81L132 78M136 78L137 79L136 78z"/>
<path style="fill:#fad53e; stroke:none;" d="M141 78L142 79L141 78z"/>
<path style="fill:#686549; stroke:none;" d="M49 79L50 80L49 79z"/>
<path style="fill:#1e1c1d; stroke:none;" d="M50 79L51 80L50 79z"/>
<path style="fill:#9b9740; stroke:none;" d="M57 79L58 80L57 79z"/>
<path style="fill:#686549; stroke:none;" d="M67 79L68 80L67 79z"/>
<path style="fill:#9b9740; stroke:none;" d="M80 79L81 80L80 79M92.3333 79.6667L92.6667 80.3333L92.3333 79.6667M97 79L98 80L97 79z"/>
<path style="fill:#686549; stroke:none;" d="M99 79L100 80L99 79M105 79L106 80L105 79z"/>
<path style="fill:#9b9740; stroke:none;" d="M114 79L115 80L114 79z"/>
<path style="fill:#686549; stroke:none;" d="M130.667 79.3333L131.333 79.6667L130.667 79.3333z"/>
<path style="fill:#9b9740; stroke:none;" d="M134 79L135 80L134 79z"/>
<path style="fill:#686549; stroke:none;" d="M136 79L137 80L136 79z"/>
<path style="fill:#1e1c1d; stroke:none;" d="M141 79L141 80L146 82L146 81L141 79z"/>
<path style="fill:#9b9740; stroke:none;" d="M143 79L144 80L143 79z"/>
<path style="fill:#1e1c1d; stroke:none;" d="M48 80L48 82L50 80L48 80z"/>
<path style="fill:#686549; stroke:none;" d="M56 80L57 81L56 80M59 80L60 81L59 80M65 80L66 81L65 80z"/>
<path style="fill:#9b9740; stroke:none;" d="M69 80L70 81L69 80M78 80L79 81L78 80M90 80L90 83L91 83L90 80M98 80L99 81L98 80M100 80L101 81L100 80z"/>
<path style="fill:#686549; stroke:none;" d="M104 80L105 81L104 80z"/>
<path style="fill:#9b9740; stroke:none;" d="M112 80L113 81L112 80z"/>
<path style="fill:#686549; stroke:none;" d="M122 80L123 81L122 80z"/>
<path style="fill:#1e1c1d; stroke:none;" d="M130 80L129 85L130 85L130 80z"/>
<path style="fill:#686549; stroke:none;" d="M137 80L138 81L137 80M142 80L143 81L142 80z"/>
<path style="fill:#9b9740; stroke:none;" d="M145 80L146 81L145 80z"/>
<path style="fill:#686549; stroke:none;" d="M47 81L48 82L47 81z"/>
<path style="fill:#9b9740; stroke:none;" d="M56 81L57 82L56 81M59 81L60 82L59 81z"/>
<path style="fill:#686549; stroke:none;" d="M64 81L65 82L64 81M68 81L69 82L68 81M78.3333 81.6667L78.6667 82.3333L78.3333 81.6667M99 81L100 82L99 81M106 81L107 82L106 81z"/>
<path style="fill:#9b9740; stroke:none;" d="M120 81L121 82L120 81M122 81L123 82L122 81M129 81L130 82L129 81z"/>
<path style="fill:#fad53e; stroke:none;" d="M131 81L132 82L131 81z"/>
<path style="fill:#686549; stroke:none;" d="M133.333 81.6667L133.667 82.3333L133.333 81.6667z"/>
<path style="fill:#9b9740; stroke:none;" d="M137 81L138 82L137 81z"/>
<path style="fill:#686549; stroke:none;" d="M144 81L145 82L144 81M146.333 81.6667L146.667 82.3333L146.333 81.6667z"/>
<path style="fill:#9b9740; stroke:none;" d="M147 81L148 82L147 81z"/>
<path style="fill:#fad53e; stroke:none;" d="M56 82L57 83L56 82z"/>
<path style="fill:#9b9740; stroke:none;" d="M58 82L59 83L58 82M61 82L62 83L61 82M64 82L65 83L64 82M68 82L69 83L68 82M70 82L71 83L70 82M92.3333 82.6667L92.6667 83.3333L92.3333 82.6667M101 82L102 83L101 82M105 82L106 83L105 82z"/>
<path style="fill:#686549; stroke:none;" d="M107 82L108 83L107 82z"/>
<path style="fill:#9b9740; stroke:none;" d="M108 82L109 83L108 82M110 82L111 83L110 82z"/>
<path style="fill:#686549; stroke:none;" d="M120 82L121 83L120 82M129 82L130 83L129 82z"/>
<path style="fill:#9b9740; stroke:none;" d="M131 82L130 86L131 86L131 82M135 82L136 83L135 82z"/>
<path style="fill:#fad53e; stroke:none;" d="M137 82L138 83L137 82z"/>
<path style="fill:#1e1c1d; stroke:none;" d="M147 82L148 83L147 82z"/>
<path style="fill:#fad53e; stroke:none;" d="M148 82L149 83L148 82z"/>
<path style="fill:#686549; stroke:none;" d="M58 83L59 84L58 83M61 83L62 84L61 83z"/>
<path style="fill:#9b9740; stroke:none;" d="M66 83L67 84L66 83z"/>
<path style="fill:#686549; stroke:none;" d="M69 83L70 84L69 83z"/>
<path style="fill:#9b9740; stroke:none;" d="M78 83L79 84L78 83z"/>
<path style="fill:#686549; stroke:none;" d="M100 83L100 86L101 86L102 83L100 83z"/>
<path style="fill:#9b9740; stroke:none;" d="M106 83L107 84L106 83M112 83L113 84L112 83z"/>
<path style="fill:#686549; stroke:none;" d="M121 83L122 84L121 83M131 83L132 84L131 83z"/>
<path style="fill:#9b9740; stroke:none;" d="M133 83L134 84L133 83z"/>
<path style="fill:#686549; stroke:none;" d="M135 83L136 84L135 83z"/>
<path style="fill:#9b9740; stroke:none;" d="M57 84L58 85L57 84z"/>
<path style="fill:#686549; stroke:none;" d="M60 84L61 85L60 84M65 84L66 85L65 84z"/>
<path style="fill:#9b9740; stroke:none;" d="M69 84L70 85L69 84M71 84L72 85L71 84M80 84L81 85L80 84z"/>
<path style="fill:#686549; stroke:none;" d="M92 84L93 85L92 84z"/>
<path style="fill:#9b9740; stroke:none;" d="M108 84L108 85L111 85L108 84z"/>
<path style="fill:#686549; stroke:none;" d="M119 84L120 85L119 84z"/>
<path style="fill:#9b9740; stroke:none;" d="M128 84L129 85L128 84z"/>
<path style="fill:#fad53e; stroke:none;" d="M133 84L134 85L133 84z"/>
<path style="fill:#686549; stroke:none;" d="M136 84L137 85L136 84z"/>
<path style="fill:#fad53e; stroke:none;" d="M57 85L58 86L57 85z"/>
<path style="fill:#9b9740; stroke:none;" d="M59.6667 85.3333L60.3333 85.6667L59.6667 85.3333M65 85L66 86L65 85z"/>
<path style="fill:#686549; stroke:none;" d="M71 85L72 86L71 85M80 85L81 86L80 85M91 85L92 86L91 85M120 85L121 86L120 85M128 85L129 88L130 88L130 85L128 85z"/>
<path style="fill:#fad53e; stroke:none;" d="M134 85L135 86L134 85z"/>
<path style="fill:#9b9740; stroke:none;" d="M136 85L137 86L136 85M52.6667 86.3333L53.3333 86.6667L52.6667 86.3333z"/>
<path style="fill:#686549; stroke:none;" d="M58 86L59 87L58 86z"/>
<path style="fill:#fad53e; stroke:none;" d="M60.3333 86.6667L60.6667 87.3333L60.3333 86.6667z"/>
<path style="fill:#9b9740; stroke:none;" d="M62 86L63 87L62 86z"/>
<path style="fill:#686549; stroke:none;" d="M67 86L68 87L67 86z"/>
<path style="fill:#9b9740; stroke:none;" d="M70 86L71 87L70 86M72 86L73 87L72 86M79 86L80 87L79 86z"/>
<path style="fill:#686549; stroke:none;" d="M93 86L94 87L93 86z"/>
<path style="fill:#9b9740; stroke:none;" d="M99 86L100 87L99 86M101 86L102 87L101 86z"/>
<path style="fill:#686549; stroke:none;" d="M118 86L119 87L118 86M132 86L133 87L132 86M134 86L135 87L134 86z"/>
<path style="fill:#9b9740; stroke:none;" d="M139 86L140 89L141 89L141 86L139 86z"/>
<path style="fill:#686549; stroke:none;" d="M51 87L49 91L50 91L51 87z"/>
<path style="fill:#1e1c1d; stroke:none;" d="M52 87L50 90L52 87z"/>
<path style="fill:#fad53e; stroke:none;" d="M53 87L54 88L53 87z"/>
<path style="fill:#9b9740; stroke:none;" d="M58 87L59 88L58 87z"/>
<path style="fill:#686549; stroke:none;" d="M60 89L63 88L60 89M66 87L67 88L66 87M72 87L73 88L72 87M81 87L82 88L81 87z"/>
<path style="fill:#9b9740; stroke:none;" d="M92 87L93 88L92 87z"/>
<path style="fill:#686549; stroke:none;" d="M94 87L95 88L94 87z"/>
<path style="fill:#9b9740; stroke:none;" d="M98 87L99 88L98 87z"/>
<path style="fill:#686549; stroke:none;" d="M100 87L101 88L100 87z"/>
<path style="fill:#9b9740; stroke:none;" d="M117 87L118 88L117 87M119 87L120 88L119 87M127 87L128 88L127 87M132.333 87.6667L132.667 88.3333L132.333 87.6667z"/>
<path style="fill:#686549; stroke:none;" d="M135 87L136 88L135 87z"/>
<path style="fill:#1e1c1d; stroke:none;" d="M140 87L140 88L145 91L140 87z"/>
<path style="fill:#686549; stroke:none;" d="M141 87L142 88L141 87z"/>
<path style="fill:#fad53e; stroke:none;" d="M52 88L53 89L52 88z"/>
<path style="fill:#9b9740; stroke:none;" d="M61 88L62 89L61 88z"/>
<path style="fill:#1e1c1d; stroke:none;" d="M62.3333 88.6667L62.6667 89.3333L62.3333 88.6667z"/>
<path style="fill:#9b9740; stroke:none;" d="M66 88L67 89L66 88M68 88L69 89L68 88M71 88L72 89L71 88M80 88L81 89L80 88M82 88L83 89L82 88M93 88L94 89L93 88z"/>
<path style="fill:#686549; stroke:none;" d="M99 88L100 89L99 88M118 88L119 89L118 88M128.333 88.6667L128.667 89.3333L128.333 88.6667M130 88L131 89L130 88z"/>
<path style="fill:#fad53e; stroke:none;" d="M133 88L134 89L133 88z"/>
<path style="fill:#9b9740; stroke:none;" d="M135 88L136 89L135 88M143 88L144 89L143 88z"/>
<path style="fill:#fad53e; stroke:none;" d="M51 89L52 90L51 89z"/>
<path style="fill:#9b9740; stroke:none;" d="M59 89L60 90L59 89z"/>
<path style="fill:#fad53e; stroke:none;" d="M61 89L62 90L61 89z"/>
<path style="fill:#9b9740; stroke:none;" d="M63 89L64 90L63 89z"/>
<path style="fill:#686549; stroke:none;" d="M68 89L69 90L68 89M73 89L74 90L73 89M81 89L82 90L81 89z"/>
<path style="fill:#9b9740; stroke:none;" d="M83 89L84 90L83 89z"/>
<path style="fill:#686549; stroke:none;" d="M95 89L95 90L98 90L95 89z"/>
<path style="fill:#9b9740; stroke:none;" d="M98 89L99 90L98 89z"/>
<path style="fill:#686549; stroke:none;" d="M116 89L117 90L116 89z"/>
<path style="fill:#9b9740; stroke:none;" d="M126 89L127 90L126 89M130 89L131 90L130 89z"/>
<path style="fill:#fdfdfd; stroke:none;" d="M132.333 89.6667L132.667 90.3333L132.333 89.6667z"/>
<path style="fill:#686549; stroke:none;" d="M133 89L134 90L133 89M142 89L143 90L142 89z"/>
<path style="fill:#9b9740; stroke:none;" d="M144 89L145 90L144 89M50 90L51 91L50 90z"/>
<path style="fill:#fad53e; stroke:none;" d="M59 90L60 91L59 90z"/>
<path style="fill:#686549; stroke:none;" d="M61 90L62 93L63 93L64 90L61 90z"/>
<path style="fill:#9b9740; stroke:none;" d="M67 90L68 91L67 90M72 90L73 91L72 90z"/>
<path style="fill:#686549; stroke:none;" d="M82 90L83 91L82 90z"/>
<path style="fill:#9b9740; stroke:none;" d="M84 90L85 91L84 90z"/>
<path style="fill:#686549; stroke:none;" d="M115 90L116 91L115 90z"/>
<path style="fill:#9b9740; stroke:none;" d="M117 90L118 91L117 90z"/>
<path style="fill:#686549; stroke:none;" d="M126 90L132 95L132 94L126 90M129 90L129 91L132 91L129 90z"/>
<path style="fill:#9b9740; stroke:none;" d="M134 90L135 91L134 90M143 90L144 91L143 90z"/>
<path style="fill:#686549; stroke:none;" d="M60 91L61 92L60 91M69 91L70 92L69 91M74 91L75 92L74 91M83 91L84 92L83 91M85 91L86 92L85 91z"/>
<path style="fill:#9b9740; stroke:none;" d="M114 91L115 92L114 91z"/>
<path style="fill:#686549; stroke:none;" d="M116 91L117 92L116 91z"/>
<path style="fill:#fdfdfd; stroke:none;" d="M129 91L130 92L129 91z"/>
<path style="fill:#1e1c1d; stroke:none;" d="M130.333 91.6667L130.667 92.3333L130.333 91.6667z"/>
<path style="fill:#9b9740; stroke:none;" d="M131.667 91.3333L132.333 91.6667L131.667 91.3333z"/>
<path style="fill:#fad53e; stroke:none;" d="M60 92L61 93L60 92z"/>
<path style="fill:#9b9740; stroke:none;" d="M64 92L65 93L64 92z"/>
<path style="fill:#686549; stroke:none;" d="M68 92L69 93L68 92M73 92L74 93L73 92z"/>
<path style="fill:#9b9740; stroke:none;" d="M84 92L85 93L84 92M87 92L88 93L87 92z"/>
<path style="fill:#686549; stroke:none;" d="M115 92L116 93L115 92M125 92L126 93L125 92z"/>
<path style="fill:#9b9740; stroke:none;" d="M129 92L130 93L129 92z"/>
<path style="fill:#fdfdfd; stroke:none;" d="M131.333 92.6667L131.667 93.3333L131.333 92.6667z"/>
<path style="fill:#686549; stroke:none;" d="M132.667 92.3333L133.333 92.6667L132.667 92.3333z"/>
<path style="fill:#9b9740; stroke:none;" d="M137 92L143 98L137 92z"/>
<path style="fill:#686549; stroke:none;" d="M56 93L55 95L56 93z"/>
<path style="fill:#9b9740; stroke:none;" d="M57 93L58 94L57 93z"/>
<path style="fill:#686549; stroke:none;" d="M61 93L62 94L61 93M70 93L71 94L70 93M75 93L76 94L75 93M86 93L87 94L86 93z"/>
<path style="fill:#9b9740; stroke:none;" d="M89 93L90 94L89 93z"/>
<path style="fill:#686549; stroke:none;" d="M126 93L126 95L128 95L126 93z"/>
<path style="fill:#fad53e; stroke:none;" d="M128 93L129 94L128 93z"/>
<path style="fill:#1e1c1d; stroke:none;" d="M132 93L127 104L128 104L132 93z"/>
<path style="fill:#9b9740; stroke:none;" d="M133 93L134 94L133 93z"/>
<path style="fill:#1e1c1d; stroke:none;" d="M138 93L142 97L138 93M56 94L55 96L56 94z"/>
<path style="fill:#fad53e; stroke:none;" d="M61 94C62.8763 100.501 66.6226 106.85 72 111L61 94z"/>
<path style="fill:#9b9740; stroke:none;" d="M65 94L66 95L65 94M69 94L70 95L69 94z"/>
<path style="fill:#686549; stroke:none;" d="M74 94L75 95L74 94M90 94L91 95L90 94M112 94L113 95L112 94z"/>
<path style="fill:#9b9740; stroke:none;" d="M124 94L125 95L124 94z"/>
<path style="fill:#fdfdfd; stroke:none;" d="M128 94L129 95L128 94z"/>
<path style="fill:#9b9740; stroke:none;" d="M130 94L131 95L130 94M54 95L55 96L54 95M56 95L57 96L56 95M62 95L63 96L62 95z"/>
<path style="fill:#686549; stroke:none;" d="M65 95L66 96L65 95M71 95L72 96L71 95M76 95L77 96L76 95z"/>
<path style="fill:#9b9740; stroke:none;" d="M89 95L90 96L89 95z"/>
<path style="fill:#686549; stroke:none;" d="M91 95L92 96L91 95M111 95L112 96L111 95z"/>
<path style="fill:#9b9740; stroke:none;" d="M113 95L114 96L113 95z"/>
<path style="fill:#686549; stroke:none;" d="M125 95L126 96L125 95z"/>
<path style="fill:#fad53e; stroke:none;" d="M127 95L128 96L127 95z"/>
<path style="fill:#9b9740; stroke:none;" d="M128 95L129 96L128 95z"/>
<path style="fill:#fdfdfd; stroke:none;" d="M130 95L131 96L130 95z"/>
<path style="fill:#9b9740; stroke:none;" d="M132 95L133 96L132 95z"/>
<path style="fill:#686549; stroke:none;" d="M54.6667 96.3333L55.3333 96.6667L54.6667 96.3333z"/>
<path style="fill:#9b9740; stroke:none;" d="M70 96L71 97L70 96M72 96L73 97L72 96z"/>
<path style="fill:#686549; stroke:none;" d="M75 96L76 97L75 96z"/>
<path style="fill:#9b9740; stroke:none;" d="M90 96L91 97L90 96z"/>
<path style="fill:#686549; stroke:none;" d="M92 96L93 97L92 96z"/>
<path style="fill:#9b9740; stroke:none;" d="M110 96L111 97L110 96z"/>
<path style="fill:#686549; stroke:none;" d="M112 96L113 97L112 96z"/>
<path style="fill:#9b9740; stroke:none;" d="M123 96L124 97L123 96z"/>
<path style="fill:#fdfdfd; stroke:none;" d="M127 96L128 97L127 96z"/>
<path style="fill:#9b9740; stroke:none;" d="M129.667 96.3333L130.333 96.6667L129.667 96.3333M63 97L64 98L63 97M66 97L67 98L66 97z"/>
<path style="fill:#686549; stroke:none;" d="M71 97L72 98L71 97M77 97L78 98L77 97z"/>
<path style="fill:#9b9740; stroke:none;" d="M91 97L92 98L91 97M93 97L94 98L93 97M126.667 97.3333L127.333 97.6667L126.667 97.3333z"/>
<path style="fill:#fad53e; stroke:none;" d="M129 97L130 98L129 97z"/>
<path style="fill:#9b9740; stroke:none;" d="M131 97L132 98L131 97z"/>
<path style="fill:#686549; stroke:none;" d="M64 98L65 99L64 98M73 98L74 99L73 98z"/>
<path style="fill:#9b9740; stroke:none;" d="M76 98L77 99L76 98z"/>
<path style="fill:#686549; stroke:none;" d="M92 98L93 99L92 98z"/>
<path style="fill:#9b9740; stroke:none;" d="M109 98L110 99L109 98M122 98L123 99L122 98z"/>
<path style="fill:#fdfdfd; stroke:none;" d="M126 98L127 99L126 98z"/>
<path style="fill:#686549; stroke:none;" d="M128 98L129 99L128 98z"/>
<path style="fill:#9b9740; stroke:none;" d="M129 98L130 99L129 98M67 99L68 100L67 99M72 99L73 100L72 99z"/>
<path style="fill:#686549; stroke:none;" d="M78 99L79 100L78 99M94 99L95 100L94 99M110 99L111 100L110 99z"/>
<path style="fill:#9b9740; stroke:none;" d="M125.667 99.3333L126.333 99.6667L125.667 99.3333z"/>
<path style="fill:#fad53e; stroke:none;" d="M128 99L129 100L128 99z"/>
<path style="fill:#9b9740; stroke:none;" d="M130 99L131 100L130 99M65 100L66 101L65 100M77 100L78 101L77 100M79 100L80 101L79 100M93 100L94 101L93 100M95 100L96 101L95 100M108 100L109 101L108 100M121 100L122 101L121 100z"/>
<path style="fill:#686549; stroke:none;" d="M124 100L125 101L124 100z"/>
<path style="fill:#fdfdfd; stroke:none;" d="M125 100L126 101L125 100z"/>
<path style="fill:#686549; stroke:none;" d="M127.667 100.333L128.333 100.667L127.667 100.333z"/>
<path style="fill:#9b9740; stroke:none;" d="M68 101L69 102L68 101M75 101L76 102L75 101z"/>
<path style="fill:#686549; stroke:none;" d="M109 101L110 102L109 101z"/>
<path style="fill:#9b9740; stroke:none;" d="M124.667 101.333L125.333 101.667L124.667 101.333z"/>
<path style="fill:#fad53e; stroke:none;" d="M127 101L128 102L127 101z"/>
<path style="fill:#9b9740; stroke:none;" d="M129 101L130 102L129 101z"/>
<path style="fill:#686549; stroke:none;" d="M74 102L75 103L74 102z"/>
<path style="fill:#9b9740; stroke:none;" d="M80 102L81 103L80 102M94 102L95 103L94 102M96 102L97 103L96 102M107 102L108 103L107 102M109 102L110 103L109 102M120 102L121 103L120 102z"/>
<path style="fill:#686549; stroke:none;" d="M123 102L124 103L123 102z"/>
<path style="fill:#fdfdfd; stroke:none;" d="M124 102L125 103L124 102z"/>
<path style="fill:#686549; stroke:none;" d="M126.667 102.333L127.333 102.667L126.667 102.333z"/>
<path style="fill:#9b9740; stroke:none;" d="M67 103L68 104L67 103M69 103L70 104L69 103z"/>
<path style="fill:#686549; stroke:none;" d="M76 103L77 104L76 103M79 103L80 104L79 103M96 103L97 104L96 103M107 103L108 104L107 103z"/>
<path style="fill:#fad53e; stroke:none;" d="M123 103L124 104L123 103z"/>
<path style="fill:#9b9740; stroke:none;" d="M124 103L125 104L124 103M126 103L125 106L126 106L126 103M128 103L129 104L128 103M75 104L76 105L75 104M77 104L78 105L77 104z"/>
<path style="fill:#686549; stroke:none;" d="M95 104L96 105L95 104M108 104L109 105L108 104z"/>
<path style="fill:#9b9740; stroke:none;" d="M119 104L120 105L119 104z"/>
<path style="fill:#686549; stroke:none;" d="M122 104L123 105L122 104z"/>
<path style="fill:#fdfdfd; stroke:none;" d="M123 104L121 108L122 108L123 104z"/>
<path style="fill:#686549; stroke:none;" d="M126.667 104.333L127.333 104.667L126.667 104.333M70 105L71 106L70 105M76 105L77 106L76 105z"/>
<path style="fill:#9b9740; stroke:none;" d="M80 105L81 106L80 105z"/>
<path style="fill:#686549; stroke:none;" d="M82 105L83 106L82 105z"/>
<path style="fill:#9b9740; stroke:none;" d="M95 105L96 106L95 105M97 105L98 106L97 105M108 105L109 106L108 105M123 105L124 106L123 105z"/>
<path style="fill:#fad53e; stroke:none;" d="M127 105L128 106L127 105z"/>
<path style="fill:#9b9740; stroke:none;" d="M69 106L70 107L69 106M71 106L72 107L71 106z"/>
<path style="fill:#686549; stroke:none;" d="M78 106L79 107L78 106z"/>
<path style="fill:#9b9740; stroke:none;" d="M81 106L82 107L81 106M83 106L84 107L83 106z"/>
<path style="fill:#686549; stroke:none;" d="M97 106L98 107L97 106z"/>
<path style="fill:#9b9740; stroke:none;" d="M106 106L107 107L106 106z"/>
<path style="fill:#686549; stroke:none;" d="M118 106L119 107L118 106M121 106L122 107L121 106z"/>
<path style="fill:#9b9740; stroke:none;" d="M124 106L125 107L124 106z"/>
<path style="fill:#686549; stroke:none;" d="M126 106L127 107L126 106z"/>
<path style="fill:#9b9740; stroke:none;" d="M72 107L73 108L72 107M77 107L78 108L77 107M79 107L80 108L79 107z"/>
<path style="fill:#686549; stroke:none;" d="M82 107L83 108L82 107M96.3333 107.667L96.6667 108.333L96.3333 107.667M106 107L106 110L107 110L106 107z"/>
<path style="fill:#9b9740; stroke:none;" d="M117 107L118 108L117 107z"/>
<path style="fill:#686549; stroke:none;" d="M122 107L123 109L124 109L125 107L122 107z"/>
<path style="fill:#9b9740; stroke:none;" d="M70 108L71 109L70 108z"/>
<path style="fill:#686549; stroke:none;" d="M78 108L79 109L78 108M118 108L117 111L118 108z"/>
<path style="fill:#9b9740; stroke:none;" d="M120 108L121 109L120 108z"/>
<path style="fill:#fad53e; stroke:none;" d="M121 108L122 109L121 108M125 108L126 109L125 108z"/>
<path style="fill:#686549; stroke:none;" d="M71 109L72 110L71 109M80 109L81 110L80 109M85 109L86 110L85 109z"/>
<path style="fill:#9b9740; stroke:none;" d="M96 109L97 110L96 109z"/>
<path style="fill:#fdfdfd; stroke:none;" d="M120 109L103 126L103 127C109.929 124.095 120.082 117.479 120 109z"/>
<path style="fill:#686549; stroke:none;" d="M121 109L122 110L121 109M124 109L125 110L124 109M74 110L75 111L74 110z"/>
<path style="fill:#9b9740; stroke:none;" d="M79 110L80 111L79 110M81 110L82 111L81 110M84 110L85 111L84 110z"/>
<path style="fill:#686549; stroke:none;" d="M86 110L87 111L86 110z"/>
<path style="fill:#9b9740; stroke:none;" d="M98.3333 110.667L98.6667 111.333L98.3333 110.667z"/>
<path style="fill:#686549; stroke:none;" d="M107 110L107 113L108 113L107 110M115 110L116 111L115 110z"/>
<path style="fill:#9b9740; stroke:none;" d="M120 110L121 111L120 110M72 111L74 113L72 111z"/>
<path style="fill:#686549; stroke:none;" d="M75 111L76 112L75 111M80 111L81 112L80 111z"/>
<path style="fill:#9b9740; stroke:none;" d="M85 111L86 112L85 111z"/>
<path style="fill:#686549; stroke:none;" d="M87 111L88 112L87 111z"/>
<path style="fill:#9b9740; stroke:none;" d="M114 111L115 112L114 111M116 111L117 112L116 111z"/>
<path style="fill:#686549; stroke:none;" d="M118 111L119 112L118 111z"/>
<path style="fill:#fad53e; stroke:none;" d="M123 111L124 112L123 111M72 112L73 113L72 112z"/>
<path style="fill:#686549; stroke:none;" d="M76 112L77 113L76 112M82 112L83 113L82 112z"/>
<path style="fill:#9b9740; stroke:none;" d="M86 112L87 113L86 112z"/>
<path style="fill:#686549; stroke:none;" d="M88 112L89 113L88 112M98.3333 112.667L98.6667 113.333L98.3333 112.667M114 114L117 112L114 114z"/>
<path style="fill:#9b9740; stroke:none;" d="M119 112L120 113L119 112M122 112L123 113L122 112z"/>
<path style="fill:#fad53e; stroke:none;" d="M73 113L75 115L73 113z"/>
<path style="fill:#686549; stroke:none;" d="M74 113L75 114L74 113M77 113L78 114L77 113z"/>
<path style="fill:#9b9740; stroke:none;" d="M81 113L82 114L81 113M83 113L84 114L83 113M87 113L88 114L87 113z"/>
<path style="fill:#686549; stroke:none;" d="M89 113L90 114L89 113z"/>
<path style="fill:#9b9740; stroke:none;" d="M107 113L107 116L108 116L107 113z"/>
<path style="fill:#686549; stroke:none;" d="M121 113L122 114L121 113M78 114L79 115L78 114M82 114L83 115L82 114z"/>
<path style="fill:#9b9740; stroke:none;" d="M88 114L89 115L88 114z"/>
<path style="fill:#686549; stroke:none;" d="M97 114L97 118L98 118L97 114z"/>
<path style="fill:#9b9740; stroke:none;" d="M114 114L115 115L114 114M116 114L117 115L116 114M118 114L119 115L118 114z"/>
<path style="fill:#fad53e; stroke:none;" d="M75 115L76 116L75 115z"/>
<path style="fill:#686549; stroke:none;" d="M111 115L112 116L111 115z"/>
<path style="fill:#9b9740; stroke:none;" d="M113 115L114 116L113 115z"/>
<path style="fill:#686549; stroke:none;" d="M115 115L116 116L115 115z"/>
<path style="fill:#9b9740; stroke:none;" d="M120 115L121 116L120 115M76 116L77 117L76 116z"/>
<path style="fill:#686549; stroke:none;" d="M78.6667 116.333L79.3333 116.667L78.6667 116.333z"/>
<path style="fill:#9b9740; stroke:none;" d="M81 116L82 117L81 116M93 116L94 117L93 116M105.333 116.667L105.667 117.333L105.333 116.667z"/>
<path style="fill:#686549; stroke:none;" d="M110 116L111 117L110 116z"/>
<path style="fill:#9b9740; stroke:none;" d="M112 116L113 117L112 116z"/>
<path style="fill:#686549; stroke:none;" d="M117 116L118 117L117 116z"/>
<path style="fill:#9b9740; stroke:none;" d="M119 116L120 117L119 116M77 117L78 118L77 117M79 117L85 121L85 120L79 117z"/>
<path style="fill:#686549; stroke:none;" d="M82 117L83 118L82 117M92 117L93 118L92 117M94 117L95 118L94 117M109 117L110 118L109 117z"/>
<path style="fill:#9b9740; stroke:none;" d="M111 117L109 120L111 117M116 117L117 118L116 117z"/>
<path style="fill:#686549; stroke:none;" d="M118 117L119 118L118 117z"/>
<path style="fill:#fad53e; stroke:none;" d="M77 118L78 119L77 118z"/>
<path style="fill:#686549; stroke:none;" d="M78 118L79 119L78 118z"/>
<path style="fill:#9b9740; stroke:none;" d="M93 118L94 119L93 118M98 118L99 119L98 118z"/>
<path style="fill:#686549; stroke:none;" d="M106 118L105 120L105 121C107.158 120.022 107.501 119.812 106 118M108 118L109 119L108 118M111 118L112 119L111 118z"/>
<path style="fill:#9b9740; stroke:none;" d="M115 118L116 119L115 118z"/>
<path style="fill:#686549; stroke:none;" d="M79 119L80 120L79 119z"/>
<path style="fill:#fad53e; stroke:none;" d="M82 119L83 120L82 119z"/>
<path style="fill:#686549; stroke:none;" d="M85 119L86 120L85 119M87 119L89 123L87 119z"/>
<path style="fill:#9b9740; stroke:none;" d="M89 119L90 120L89 119z"/>
<path style="fill:#686549; stroke:none;" d="M97 119L98 120L97 119z"/>
<path style="fill:#9b9740; stroke:none;" d="M104 119L105 120L104 119M106 119L107 120L106 119z"/>
<path style="fill:#686549; stroke:none;" d="M110 119L111 120L110 119z"/>
<path style="fill:#fad53e; stroke:none;" d="M112 119L113 120L112 119z"/>
<path style="fill:#9b9740; stroke:none;" d="M114 119L115 120L114 119M117 119L118 120L117 119z"/>
<path style="fill:#686549; stroke:none;" d="M80 120L81 121L80 120z"/>
<path style="fill:#fad53e; stroke:none;" d="M83 120L84 121L83 120z"/>
<path style="fill:#9b9740; stroke:none;" d="M87 120L88 121L87 120M90 120L91 121L90 120M96 120L97 121L96 120z"/>
<path style="fill:#686549; stroke:none;" d="M99 120L100 121L99 120z"/>
<path style="fill:#9b9740; stroke:none;" d="M100 120L101 121L100 120M103 120L104 121L103 120M108 120L109 121L108 120z"/>
<path style="fill:#fad53e; stroke:none;" d="M111 120L112 121L111 120z"/>
<path style="fill:#9b9740; stroke:none;" d="M113 120L114 121L113 120z"/>
<path style="fill:#686549; stroke:none;" d="M116 120L117 121L116 120M81 121L82 122L81 121z"/>
<path style="fill:#fad53e; stroke:none;" d="M84 121L92 125L84 121z"/>
<path style="fill:#686549; stroke:none;" d="M86 121L87 122L86 121z"/>
<path style="fill:#9b9740; stroke:none;" d="M92 121L93 122L92 121z"/>
<path style="fill:#686549; stroke:none;" d="M98 121L99 122L98 121z"/>
<path style="fill:#9b9740; stroke:none;" d="M107 121L108 122L107 121M112 121L113 122L112 121M82 122L83 123L82 122z"/>
<path style="fill:#686549; stroke:none;" d="M84 122L85 123L84 122M93 122L94 123L93 122z"/>
<path style="fill:#9b9740; stroke:none;" d="M94 122L95 123L94 122M101 122L97 123L97 124L102 123L101 122z"/>
<path style="fill:#686549; stroke:none;" d="M102 122L103 123L102 122M105.667 122.333L106.333 122.667L105.667 122.333M108 122L109 123L108 122M111 122L112 123L111 122z"/>
<path style="fill:#9b9740; stroke:none;" d="M115 122L116 123L115 122M83 123L84 124L83 123z"/>
<path style="fill:#686549; stroke:none;" d="M85 123L86 124L85 123z"/>
<path style="fill:#9b9740; stroke:none;" d="M89 123L90 124L89 123z"/>
<path style="fill:#686549; stroke:none;" d="M90 123L91 124L90 123M96 123L97 124L96 123M101 123L102 124L101 123z"/>
<path style="fill:#9b9740; stroke:none;" d="M107 123L108 124L107 123z"/>
<path style="fill:#686549; stroke:none;" d="M110 123L111 124L110 123M112 123L113 124L112 123M114 123L115 124L114 123z"/>
<path style="fill:#9b9740; stroke:none;" d="M84 124L85 125L84 124M87 124L88 125L87 124M91 126L94 126L93 124L91 126z"/>
<path style="fill:#686549; stroke:none;" d="M93 124L94 125L93 124M105 124L106 125L105 124z"/>
<path style="fill:#9b9740; stroke:none;" d="M108 124L109 125L108 124z"/>
<path style="fill:#fad53e; stroke:none;" d="M111 124L112 125L111 124z"/>
<path style="fill:#686549; stroke:none;" d="M86 125L87 126L86 125M88 125L89 126L88 125M94 125L95 126L94 125M101 125L101 127L103 125L101 125z"/>
<path style="fill:#9b9740; stroke:none;" d="M103 125L104 126L103 125M106 125L107 126L106 125z"/>
<path style="fill:#686549; stroke:none;" d="M109 125L109 126L112 126L112 125L109 125z"/>
<path style="fill:#fdfdfd; stroke:none;" d="M110 125L111 126L110 125z"/>
<path style="fill:#9b9740; stroke:none;" d="M102 126L103 127L102 126M104 126L105 127L104 126z"/>
<path style="fill:#686549; stroke:none;" d="M105 126L106 127L105 126z"/>
<path style="fill:#9b9740; stroke:none;" d="M108 126L109 127L108 126z"/>
<path style="fill:#fdfdfd; stroke:none;" d="M109 126L110 127L109 126z"/>
<path style="fill:#fad53e; stroke:none;" d="M112 126L113 127L112 126z"/>
<path style="fill:#9b9740; stroke:none;" d="M84 127L85 128L84 127z"/>
<path style="fill:#686549; stroke:none;" d="M88.6667 127.333L89.3333 127.667L88.6667 127.333z"/>
<path style="fill:#9b9740; stroke:none;" d="M93 127L94 128L93 127z"/>
<path style="fill:#fad53e; stroke:none;" d="M94 127L95 128L94 127z"/>
<path style="fill:#fdfdfd; stroke:none;" d="M95 127L95 128L99 128L95 127z"/>
<path style="fill:#9b9740; stroke:none;" d="M99 127L100 128L99 127z"/>
<path style="fill:#686549; stroke:none;" d="M100 127L101 128L100 127z"/>
<path style="fill:#9b9740; stroke:none;" d="M106 127L107 128L106 127z"/>
<path style="fill:#fdfdfd; stroke:none;" d="M107.667 127.333L108.333 127.667L107.667 127.333z"/>
<path style="fill:#9b9740; stroke:none;" d="M111 127L112 128L111 127M83 128L84 129L83 128M86 128L87 129L86 128z"/>
<path style="fill:#fdfdfd; stroke:none;" d="M85 132L94 130C90.3702 127.84 86.5473 127.603 85 132z"/>
<path style="fill:#9b9740; stroke:none;" d="M91 128L92 129L91 128z"/>
<path style="fill:#686549; stroke:none;" d="M92 128L93 129L92 128z"/>
<path style="fill:#9b9740; stroke:none;" d="M103.667 128.333L104.333 128.667L103.667 128.333z"/>
<path style="fill:#686549; stroke:none;" d="M107.667 128.333L108.333 128.667L107.667 128.333z"/>
<path style="fill:#9b9740; stroke:none;" d="M110 128L111 129L110 128z"/>
<path style="fill:#686549; stroke:none;" d="M84 129L85 130L84 129z"/>
<path style="fill:#fad53e; stroke:none;" d="M94 129L95 130L94 129z"/>
<path style="fill:#9b9740; stroke:none;" d="M93 130L93 131L101 130L93 130z"/>
<path style="fill:#fdfdfd; stroke:none;" d="M99 130L99 131L106 130L99 130z"/>
<path style="fill:#686549; stroke:none;" d="M105 130L105 131L108 131L105 130M109 129L110 130L109 129z"/>
<path style="fill:#fad53e; stroke:none;" d="M82 130L83 131L82 130M84 130L85 131L84 130M98 130L99 131L98 130z"/>
<path style="fill:#1e1c1d; stroke:none;" d="M106 130L91 131L91 132C95.0232 132 100.797 130.811 100 134L109 136L105 133L106 130z"/>
<path style="fill:#9b9740; stroke:none;" d="M108 130L111 133L108 130z"/>
<path style="fill:#686549; stroke:none;" d="M110 130L111 131L110 130M83 131L84 132L83 131z"/>
<path style="fill:#fad53e; stroke:none;" d="M89 131L90 132L89 131z"/>
<path style="fill:#686549; stroke:none;" d="M90 131L91 132L90 131M101 131L102 132L101 131z"/>
<path style="fill:#9b9740; stroke:none;" d="M102.667 131.333L103.333 131.667L102.667 131.333M106 131L105 133L106 131z"/>
<path style="fill:#fdfdfd; stroke:none;" d="M106 132L111 135L106 132z"/>
<path style="fill:#686549; stroke:none;" d="M111 131L112 132L111 131z"/>
<path style="fill:#fad53e; stroke:none;" d="M86 132L87 133L86 132z"/>
<path style="fill:#9b9740; stroke:none;" d="M87 132L88 133L87 132z"/>
<path style="fill:#686549; stroke:none;" d="M91 132L92 133L91 132z"/>
<path style="fill:#9b9740; stroke:none;" d="M92 132L93 133L92 132z"/>
<path style="fill:#fad53e; stroke:none;" d="M93 132L94 133L93 132z"/>
<path style="fill:#fdfdfd; stroke:none;" d="M90 133L90 134L99 133L90 133z"/>
<path style="fill:#9b9740; stroke:none;" d="M99 132L98 134L99 132z"/>
<path style="fill:#686549; stroke:none;" d="M100 132L101 133L100 132z"/>
<path style="fill:#9b9740; stroke:none;" d="M112 132L113 133L112 132M89 133L90 134L89 133z"/>
<path style="fill:#fad53e; stroke:none;" d="M97 133L98 134L97 133z"/>
<path style="fill:#686549; stroke:none;" d="M99.3333 133.667L99.6667 134.333L99.3333 133.667z"/>
<path style="fill:#9b9740; stroke:none;" d="M102.667 133.333L103.333 133.667L102.667 133.333M107 133L108 134L107 133z"/>
<path style="fill:#686549; stroke:none;" d="M112.333 133.667L112.667 134.333L112.333 133.667z"/>
<path style="fill:#9b9740; stroke:none;" d="M84 134L85 135L84 134z"/>
<path style="fill:#686549; stroke:none;" d="M89 136L97 136C94.2594 134.129 91.3515 133.323 89 136z"/>
<path style="fill:#1e1c1d; stroke:none;" d="M95 134L95 135L99 135L95 134z"/>
<path style="fill:#9b9740; stroke:none;" d="M100 134L101 135L100 134z"/>
<path style="fill:#fdfdfd; stroke:none;" d="M109 138C105.25 133.754 91.4374 133.405 86.3372 136.193C84.0802 137.427 84.7352 140.12 87.1528 140.498C91.0209 141.102 94.925 138.746 99 139.328C103.327 139.946 105.226 140.543 109 138z"/>
<path style="fill:#9b9740; stroke:none;" d="M105 134L106 135L105 134z"/>
<path style="fill:#686549; stroke:none;" d="M106 134L107 135L106 134M108 134L109 135L108 134M83 135L84 136L83 135M85 135L86 136L85 135z"/>
<path style="fill:#9b9740; stroke:none;" d="M88 135L89 136L88 135z"/>
<path style="fill:#1e1c1d; stroke:none;" d="M91 135L91 136L95 136L91 135z"/>
<path style="fill:#9b9740; stroke:none;" d="M97 135L98 136L97 135M107 135L108 136L107 135z"/>
<path style="fill:#686549; stroke:none;" d="M109 135L110 136L109 135z"/>
<path style="fill:#9b9740; stroke:none;" d="M110 135L111 136L110 135M112 135L113 136L112 135M82 136L83 137L82 136M84 136L85 137L84 136z"/>
<path style="fill:#fad53e; stroke:none;" d="M108 136L109 137L108 136z"/>
<path style="fill:#686549; stroke:none;" d="M111 136L112 137L111 136M83 137L84 138L83 137M109 137L110 138L109 137z"/>
<path style="fill:#9b9740; stroke:none;" d="M111.333 137.667L111.667 138.333L111.333 137.667z"/>
<path style="fill:#fad53e; stroke:none;" d="M81 138L82 139L81 138z"/>
<path style="fill:#9b9740; stroke:none;" d="M83 138L84 139L83 138M108 138L109 139L108 138z"/>
<path style="fill:#686549; stroke:none;" d="M83 139L84 140L83 139z"/>
<path style="fill:#fad53e; stroke:none;" d="M92 139L93 140L92 139z"/>
<path style="fill:#9b9740; stroke:none;" d="M93 139L94 140L93 139z"/>
<path style="fill:#686549; stroke:none;" d="M94 139L94 140L99 141L99 139L94 139z"/>
<path style="fill:#9b9740; stroke:none;" d="M99.6667 139.333L100.333 139.667L99.6667 139.333M107 139L108 140L107 139z"/>
<path style="fill:#686549; stroke:none;" d="M108 140L108 141L111 143L112 143L112 139L108 140z"/>
<path style="fill:#9b9740; stroke:none;" d="M82 140L83 141L82 140z"/>
<path style="fill:#686549; stroke:none;" d="M84 140L85 141L84 140z"/>
<path style="fill:#9b9740; stroke:none;" d="M89 140L90 141L89 140z"/>
<path style="fill:#686549; stroke:none;" d="M90 140L88 144L90 140z"/>
<path style="fill:#1e1c1d; stroke:none;" d="M91 140L91 141L95 141L91 140M99 140L99 141L103 141L99 140z"/>
<path style="fill:#9b9740; stroke:none;" d="M103 140L104 141L103 140z"/>
<path style="fill:#686549; stroke:none;" d="M106 140L107 141L106 140z"/>
<path style="fill:#fdfdfd; stroke:none;" d="M109 140L108 143L109 140z"/>
<path style="fill:#9b9740; stroke:none;" d="M83 141L84 142L83 141M86.6667 141.333L87.3333 141.667L86.6667 141.333M91 141L90 143L91 141z"/>
<path style="fill:#fad53e; stroke:none;" d="M92 141L93 142L92 141z"/>
<path style="fill:#fdfdfd; stroke:none;" d="M91 142L91 143L101 142L91 142z"/>
<path style="fill:#9b9740; stroke:none;" d="M101.333 141.667L101.667 142.333L101.333 141.667z"/>
<path style="fill:#686549; stroke:none;" d="M102 141L102 144L103 144L102 141z"/>
<path style="fill:#9b9740; stroke:none;" d="M107 141L108 142L107 141z"/>
<path style="fill:#686549; stroke:none;" d="M85 142L86 143L85 142z"/>
<path style="fill:#fad53e; stroke:none;" d="M100 142L101 143L100 142z"/>
<path style="fill:#686549; stroke:none;" d="M107 142L108 143L107 142z"/>
<path style="fill:#9b9740; stroke:none;" d="M84 143L85 144L84 143z"/>
<path style="fill:#686549; stroke:none;" d="M86 143L85 145L86 143z"/>
<path style="fill:#9b9740; stroke:none;" d="M87 143L88 144L87 143z"/>
<path style="fill:#1e1c1d; stroke:none;" d="M89 143L89 144L95 144L89 143z"/>
<path style="fill:#686549; stroke:none;" d="M93 144L93 145L99 145L93 144z"/>
<path style="fill:#1e1c1d; stroke:none;" d="M97 143L97 144L102 144L97 143z"/>
<path style="fill:#9b9740; stroke:none;" d="M103 143L104 144L103 143z"/>
<path style="fill:#fdfdfd; stroke:none;" d="M85 145L85 146C92.9389 149.984 99.9279 149.009 108 146L108 144L85 145z"/>
<path style="fill:#9b9740; stroke:none;" d="M106 143L107 144L106 143z"/>
<path style="fill:#686549; stroke:none;" d="M109 143L110 144L109 143z"/>
<path style="fill:#9b9740; stroke:none;" d="M83 144L84 145L83 144M91.6667 144.333L92.3333 144.667L91.6667 144.333M99.6667 144.333L100.333 144.667L99.6667 144.333M108 144L109 145L108 144z"/>
<path style="fill:#686549; stroke:none;" d="M83 145L84 146L83 145M108 145L109 146L108 145M111 145L112 146L111 145z"/>
<path style="fill:#9b9740; stroke:none;" d="M83 146L84 147L83 146M85 146L86 147L85 146M106 146L107 147L106 146z"/>
<path style="fill:#fad53e; stroke:none;" d="M109.667 146.333L110.333 146.667L109.667 146.333z"/>
<path style="fill:#9b9740; stroke:none;" d="M112 146L113 147L112 146z"/>
<path style="fill:#686549; stroke:none;" d="M84 147L85 148L84 147M86 147L87 148L86 147z"/>
<path style="fill:#fad53e; stroke:none;" d="M87 147L88 148L87 147z"/>
<path style="fill:#9b9740; stroke:none;" d="M104 147L105 148L104 147z"/>
<path style="fill:#686549; stroke:none;" d="M105 147L106 148L105 147z"/>
<path style="fill:#fdfdfd; stroke:none;" d="M105 150C108.554 151.204 109.877 150.616 111 147L105 150z"/>
<path style="fill:#686549; stroke:none;" d="M111 147L112 148L111 147z"/>
<path style="fill:#9b9740; stroke:none;" d="M85 148L86 149L85 148M89.6667 148.333L90.3333 148.667L89.6667 148.333z"/>
<path style="fill:#fad53e; stroke:none;" d="M91 148L92 149L91 148M100 148L101 149L100 148z"/>
<path style="fill:#9b9740; stroke:none;" d="M101 148L102 149L101 148z"/>
<path style="fill:#686549; stroke:none;" d="M102 148L103 149L102 148z"/>
<path style="fill:#9b9740; stroke:none;" d="M106 148L107 149L106 148M111 148L112 149L111 148M87 149L88 150L87 149z"/>
<path style="fill:#686549; stroke:none;" d="M88 149L89 150L88 149M93 149L93 150L98 150L93 149z"/>
<path style="fill:#9b9740; stroke:none;" d="M103 149L106 151L106 150L103 149z"/>
<path style="fill:#fad53e; stroke:none;" d="M104 149L105 150L104 149z"/>
<path style="fill:#686549; stroke:none;" d="M111 149L112 150L111 149z"/>
<path style="fill:#9b9740; stroke:none;" d="M91 150L92 151L91 150z"/>
<path style="fill:#686549; stroke:none;" d="M92 150L93 151L92 150M103 150L102 152L104 152L103 150z"/>
<path style="fill:#9b9740; stroke:none;" d="M110 150L111 151L110 150z"/>
<path style="fill:#686549; stroke:none;" d="M112 150L113 151L112 150z"/>
<path style="fill:#9b9740; stroke:none;" d="M89 151L90 152L89 151z"/>
<path style="fill:#686549; stroke:none;" d="M90 151L91 152L90 151M94.6667 151.333L95.3333 151.667L94.6667 151.333z"/>
<path style="fill:#9b9740; stroke:none;" d="M96 151L96 152L102 152L96 151z"/>
<path style="fill:#686549; stroke:none;" d="M107 151L108 152L107 151z"/>
<path style="fill:#9b9740; stroke:none;" d="M109 151L110 152L109 151M87 152L88 153L87 152M91.6667 152.333L92.3333 152.667L91.6667 152.333z"/>
<path style="fill:#fdfdfd; stroke:none;" d="M86 155L86 156L106 154C100.3 149.682 92.0163 152.683 86 155z"/>
<path style="fill:#9b9740; stroke:none;" d="M105 152L107 154L107 152L105 152z"/>
<path style="fill:#686549; stroke:none;" d="M110 152L111 153L110 152z"/>
<path style="fill:#fad53e; stroke:none;" d="M85 153L86 154L85 153z"/>
<path style="fill:#686549; stroke:none;" d="M88 153L89 154L88 153z"/>
<path style="fill:#9b9740; stroke:none;" d="M89 153L90 154L89 153M111 153L112 154L111 153M84 154L85 155L84 154M87 154L88 155L87 154z"/>
<path style="fill:#fad53e; stroke:none;" d="M102 154L103 155L102 154z"/>
<path style="fill:#9b9740; stroke:none;" d="M103 154L104 155L103 154z"/>
<path style="fill:#686549; stroke:none;" d="M104.333 154.667L104.667 155.333L104.333 154.667M107 154L108 155L107 154M110 154L111 155L110 154M112 154L113 155L112 154M85 155L86 156L85 155z"/>
<path style="fill:#9b9740; stroke:none;" d="M98.6667 155.333L99.3333 155.667L98.6667 155.333z"/>
<path style="fill:#686549; stroke:none;" d="M100 155L102 157L100 155z"/>
<path style="fill:#1e1c1d; stroke:none;" d="M101 155L101 156L104 156L101 155z"/>
<path style="fill:#9b9740; stroke:none;" d="M105 155L106 156L105 155M111 155L112 156L111 155z"/>
<path style="fill:#686549; stroke:none;" d="M113 155L114 156L113 155M84 156L85 157L84 156M86 158L89 157L86 158z"/>
<path style="fill:#9b9740; stroke:none;" d="M89 156L89 157L93 157L89 156z"/>
<path style="fill:#686549; stroke:none;" d="M93 156L93 157L97 158L97 157L93 156z"/>
<path style="fill:#1e1c1d; stroke:none;" d="M96 156L96 157L101 157L96 156z"/>
<path style="fill:#9b9740; stroke:none;" d="M102 156L103 157L102 156M112 156L113 157L112 156z"/>
<path style="fill:#686549; stroke:none;" d="M114 156L115 157L114 156z"/>
<path style="fill:#9b9740; stroke:none;" d="M85 157L86 158L85 157z"/>
<path style="fill:#1e1c1d; stroke:none;" d="M87 157L87 158L95 158L87 157z"/>
<path style="fill:#9b9740; stroke:none;" d="M97.6667 157.333L98.3333 157.667L97.6667 157.333M113 157L114 158L113 157z"/>
<path style="fill:#686549; stroke:none;" d="M115 157L116 158L115 157z"/>
<path style="fill:#9b9740; stroke:none;" d="M114 158L115 159L114 158M116 158L117 159L116 158z"/>
<path style="fill:#686549; stroke:none;" d="M115 159L116 160L115 159M117 160L118 161L117 160z"/>
<path style="fill:#9b9740; stroke:none;" d="M116 161L117 162L116 161z"/>
<path style="fill:#686549; stroke:none;" d="M118 162L119 163L118 162M117 163L118 164L117 163z"/>
<path style="fill:#9b9740; stroke:none;" d="M119 164L120 165L119 164z"/>
<path style="fill:#686549; stroke:none;" d="M119 165L120 166L119 165M118 166L119 167L118 166z"/>
<path style="fill:#9b9740; stroke:none;" d="M118 167L119 168L118 167z"/>
<path style="fill:#fad53e; stroke:none;" d="M118 168L119 169L118 168z"/>
<path style="fill:#9b9740; stroke:none;" d="M120 168L120 173L121 173L120 168M106 169L107 170L106 169z"/>
<path style="fill:#686549; stroke:none;" d="M107 169L108 171L109 171L110 169L107 169z"/>
<path style="fill:#9b9740; stroke:none;" d="M110.667 169.333L111.333 169.667L110.667 169.333M104 170L105 171L104 170z"/>
<path style="fill:#686549; stroke:none;" d="M113 170L114 171L113 170z"/>
<path style="fill:#fad53e; stroke:none;" d="M114 170L115 171L114 170z"/>
<path style="fill:#686549; stroke:none;" d="M103 171L104 172L103 171M105 171L106 172L105 171z"/>
<path style="fill:#fad53e; stroke:none;" d="M106 171L107 172L106 171z"/>
<path style="fill:#fdfdfd; stroke:none;" d="M107.044 171.782C98.9479 174.658 102.611 184.473 110.996 181.561C120.397 178.296 115.008 168.954 107.044 171.782z"/>
<path style="fill:#fad53e; stroke:none;" d="M111 171L112 172L111 171z"/>
<path style="fill:#686549; stroke:none;" d="M112 171L113 172L112 171M115 171L116 172L115 171z"/>
<path style="fill:#9b9740; stroke:none;" d="M116 171L117 172L116 171z"/>
<path style="fill:#686549; stroke:none;" d="M102 172L103 173L102 172z"/>
<path style="fill:#9b9740; stroke:none;" d="M104 172L105 173L104 172M114 172L115 173L114 172z"/>
<path style="fill:#686549; stroke:none;" d="M117 172L118 173L117 172z"/>
<path style="fill:#fad53e; stroke:none;" d="M118 172L119 173L118 172z"/>
<path style="fill:#9b9740; stroke:none;" d="M101 173L102 174L101 173M103 173L104 174L103 173z"/>
<path style="fill:#686549; stroke:none;" d="M116 173L117 174L116 173M102 174L103 175L102 174z"/>
<path style="fill:#fad53e; stroke:none;" d="M117 174L118 175L117 174M120 174L121 175L120 174z"/>
<path style="fill:#9b9740; stroke:none;" d="M100 175L101 176L100 175z"/>
<path style="fill:#fad53e; stroke:none;" d="M102 175L103 176L102 175M121 175L122 176L121 175z"/>
<path style="fill:#686549; stroke:none;" d="M100 176L101 177L100 176M117 176L118 177L117 176M120 176L121 177L120 176z"/>
<path style="fill:#fad53e; stroke:none;" d="M122 176L123 177L122 176z"/>
<path style="fill:#686549; stroke:none;" d="M101 177L101 180L102 180L101 177M118 177L119 178L118 177M123 178L124 179L123 178z"/>
<path style="fill:#fad53e; stroke:none;" d="M117 179L118 180L117 179z"/>
<path style="fill:#9b9740; stroke:none;" d="M122 179L123 180L122 179M124 179L125 180L124 179z"/>
<path style="fill:#686549; stroke:none;" d="M100 180L101 181L100 180z"/>
<path style="fill:#fad53e; stroke:none;" d="M113 180L114 181L113 180M116 180L117 181L116 180z"/>
<path style="fill:#686549; stroke:none;" d="M123 180L124 181L123 180z"/>
<path style="fill:#fad53e; stroke:none;" d="M100 181L101 182L100 181z"/>
<path style="fill:#686549; stroke:none;" d="M102 181L103 182L102 181M112 181L113 182L112 181z"/>
<path style="fill:#fad53e; stroke:none;" d="M123 181L124 182L123 181z"/>
<path style="fill:#9b9740; stroke:none;" d="M125 181L126 182L125 181M145 181L146 182L145 181z"/>
<path style="fill:#686549; stroke:none;" d="M146.667 181.333L147.333 181.667L146.667 181.333z"/>
<path style="fill:#9b9740; stroke:none;" d="M148 181L149 182L148 181M101 182L102 183L101 182z"/>
<path style="fill:#686549; stroke:none;" d="M103 182L104 183L103 182z"/>
<path style="fill:#9b9740; stroke:none;" d="M104 182L105 183L104 182z"/>
<path style="fill:#fad53e; stroke:none;" d="M105 182L106 183L105 182M107 182L108 183L107 182z"/>
<path style="fill:#9b9740; stroke:none;" d="M108.667 182.333L109.333 182.667L108.667 182.333z"/>
<path style="fill:#686549; stroke:none;" d="M110 182L111 183L110 182M113 182L114 183L113 182M124 182L125 183L124 182z"/>
<path style="fill:#9b9740; stroke:none;" d="M143 182L144 183L143 182z"/>
<path style="fill:#1e1c1d; stroke:none;" d="M140 189L141 189C143.768 183.262 149.019 182.178 151 189C153.994 180.287 142.158 181.404 140 189z"/>
<path style="fill:#9b9740; stroke:none;" d="M102 183L103 184L102 183M111 183L112 184L111 183M124 183L125 184L124 183z"/>
<path style="fill:#fad53e; stroke:none;" d="M126 183L127 184L126 183z"/>
<path style="fill:#686549; stroke:none;" d="M142 183L143 184L142 183M144 183L145 184L144 183z"/>
<path style="fill:#fad53e; stroke:none;" d="M145 183L146 184L145 183z"/>
<path style="fill:#fdfdfd; stroke:none;" d="M145 197C148.081 195.014 155.075 185.771 147.772 183.971C138.802 181.76 142.326 193.649 145 197z"/>
<path style="fill:#fad53e; stroke:none;" d="M148 183L149 184L148 183M104 184L105 185L104 184z"/>
<path style="fill:#9b9740; stroke:none;" d="M105 184L105 185L108 185L105 184z"/>
<path style="fill:#fad53e; stroke:none;" d="M108 184L109 185L108 184z"/>
<path style="fill:#686549; stroke:none;" d="M126 184L127 185L126 184M141 184L142 185L141 184z"/>
<path style="fill:#9b9740; stroke:none;" d="M143 184L144 185L143 184z"/>
<path style="fill:#686549; stroke:none;" d="M151 184L152 185L151 184M125 185L126 186L125 185z"/>
<path style="fill:#9b9740; stroke:none;" d="M140 185L141 186L140 185M142 185L143 186L142 185z"/>
<path style="fill:#686549; stroke:none;" d="M150 185L151 186L150 185z"/>
<path style="fill:#9b9740; stroke:none;" d="M125 186L126 187L125 186z"/>
<path style="fill:#686549; stroke:none;" d="M141 186L142 187L141 186z"/>
<path style="fill:#9b9740; stroke:none;" d="M152 186L153 187L152 186M127 187L128 188L127 187M139 187L140 188L139 187z"/>
<path style="fill:#686549; stroke:none;" d="M152 187L152 191L153 191L152 187M126 188L126 190L128 188L126 188M139 188L139 192L140 192L139 188z"/>
<path style="fill:#1e1c1d; stroke:none;" d="M127 189C129.288 201.629 138.361 198.624 148 200L147 197L152 190L151 190C148.341 195.615 144.025 197.2 141 191L140 191L144 198C134.585 199.742 131.977 196.353 127 189z"/>
<path style="fill:#fad53e; stroke:none;" d="M126 190L127 191L126 190M128 190L129 191L128 190z"/>
<path style="fill:#686549; stroke:none;" d="M128 191L129 192L128 191z"/>
<path style="fill:#fad53e; stroke:none;" d="M150 191L151 192L150 191z"/>
<path style="fill:#9b9740; stroke:none;" d="M152 191L153 192L152 191z"/>
<path style="fill:#686549; stroke:none;" d="M127 192L128 193L127 192z"/>
<path style="fill:#9b9740; stroke:none;" d="M139 192L140 193L139 192M141 192L142 193L141 192z"/>
<path style="fill:#686549; stroke:none;" d="M150 192L151 193L150 192z"/>
<path style="fill:#9b9740; stroke:none;" d="M127 193L128 194L127 193M129 193L130 194L129 193z"/>
<path style="fill:#686549; stroke:none;" d="M141 193L142 194L141 193z"/>
<path style="fill:#9b9740; stroke:none;" d="M149 193L150 194L149 193M151 193L152 194L151 193z"/>
<path style="fill:#686549; stroke:none;" d="M128 194L129 195L128 194z"/>
<path style="fill:#9b9740; stroke:none;" d="M140 194L141 195L140 194z"/>
<path style="fill:#686549; stroke:none;" d="M142 194L143 195L142 194M150 194L151 195L150 194z"/>
<path style="fill:#fad53e; stroke:none;" d="M128 195L129 196L128 195z"/>
<path style="fill:#686549; stroke:none;" d="M130 195L131 196L130 195z"/>
<path style="fill:#9b9740; stroke:none;" d="M141 195L142 196L141 195M143 195L144 196L143 195M147 195L148 196L147 195M129 196L130 197L129 196z"/>
<path style="fill:#686549; stroke:none;" d="M131 196L132 197L131 196M142 196L143 197L142 196z"/>
<path style="fill:#9b9740; stroke:none;" d="M144 196L145 197L144 196z"/>
<path style="fill:#686549; stroke:none;" d="M146 196L147 197L146 196M148 196L149 197L148 196M130 197L131 198L130 197M132 197L133 198L132 197z"/>
<path style="fill:#fad53e; stroke:none;" d="M133 197L134 198L133 197z"/>
<path style="fill:#686549; stroke:none;" d="M143 197L144 198L143 197z"/>
<path style="fill:#9b9740; stroke:none;" d="M147 197L148 198L147 197M131 198L132 199L131 198z"/>
<path style="fill:#686549; stroke:none;" d="M134.667 198.333L135.333 198.667L134.667 198.333z"/>
<path style="fill:#9b9740; stroke:none;" d="M136 198L136 199L141 199L136 198z"/>
<path style="fill:#686549; stroke:none;" d="M141 198L142 199L141 198z"/>
<path style="fill:#fad53e; stroke:none;" d="M147 198L148 199L147 198z"/>
<path style="fill:#9b9740; stroke:none;" d="M133 199L134 200L133 199z"/>
<path style="fill:#686549; stroke:none;" d="M142 199L143 200L142 199z"/>
<path style="fill:#9b9740; stroke:none;" d="M143 199L144 200L143 199z"/>
<path style="fill:#fdfdfd; stroke:none;" d="M144.667 199.333L145.333 199.667L144.667 199.333z"/>
<path style="fill:#686549; stroke:none;" d="M148 199L149 200L148 199z"/>
<path style="fill:#fad53e; stroke:none;" d="M149 199L150 200L149 199z"/>
</svg>
